<?xml version="1.0" encoding="utf-8"?>
<!-- Generator: Adobe Illustrator 24.0.2, SVG Export Plug-In . SVG Version: 6.00 Build 0)  -->
<svg version="1.1" id="Layer_1" xmlns="http://www.w3.org/2000/svg" xmlns:xlink="http://www.w3.org/1999/xlink" x="0px" y="0px"
	 viewBox="0 0 250 100" style="enable-background:new 0 0 250 100;" xml:space="preserve">
<style type="text/css">
	.st0{fill:url(#SVGID_1_);}
	.st1{fill:url(#SVGID_2_);}
	.st2{fill:url(#SVGID_3_);}
	.st3{fill:url(#SVGID_4_);}
	.st4{fill:url(#SVGID_5_);}
	.st5{fill:url(#SVGID_6_);}
	.st6{fill:url(#SVGID_7_);}
	.st7{fill:url(#SVGID_8_);}
	.st8{fill:url(#SVGID_9_);}
	.st9{fill:url(#SVGID_10_);}
	.st10{fill:url(#SVGID_11_);}
	.st11{fill:url(#SVGID_12_);}
	.st12{fill:url(#SVGID_13_);}
	.st13{fill:url(#SVGID_14_);}
	.st14{fill:url(#SVGID_15_);}
	.st15{fill:url(#SVGID_16_);}
	.st16{fill:url(#SVGID_17_);}
	.st17{fill:url(#SVGID_18_);}
	.st18{fill:url(#SVGID_19_);}
	.st19{fill:url(#SVGID_20_);}
	.st20{fill:url(#SVGID_21_);}
	.st21{fill:url(#SVGID_22_);}
	.st22{fill:url(#SVGID_23_);}
	.st23{fill:url(#SVGID_24_);}
	.st24{fill:url(#SVGID_25_);}
	.st25{fill:url(#SVGID_26_);}
	.st26{fill:url(#SVGID_27_);}
	.st27{fill:url(#SVGID_28_);}
</style>
<g>
	<linearGradient id="SVGID_1_" gradientUnits="userSpaceOnUse" x1="23.7151" y1="82.4717" x2="67.8801" y2="82.4717">
		<stop  offset="0.3452" style="stop-color:#5565AF"/>
		<stop  offset="0.6109" style="stop-color:#662D91"/>
	</linearGradient>
	<path class="st0" d="M67.79,80.44l-2.53,8.21c-0.31,1.01-1.33,1.61-2.35,1.42c-0.05-0.01-0.09,0.03-0.08,0.08l0.73,2.64
		c0.01,0.04-0.02,0.08-0.06,0.08l-1.15,0c-0.03,0-0.05-0.02-0.06-0.05l-0.77-2.76c-0.01-0.03-0.04-0.05-0.08-0.04
		c-0.22,0.06-0.46,0.09-0.7,0.09H30.85c-0.24,0-0.48-0.03-0.7-0.09c-0.03-0.01-0.07,0.01-0.08,0.04l-0.77,2.76
		c-0.01,0.03-0.03,0.05-0.06,0.05l-1.15,0c-0.04,0-0.07-0.04-0.06-0.08l0.73-2.64c0.01-0.05-0.03-0.09-0.08-0.08
		c-1.02,0.2-2.04-0.4-2.35-1.42l-2.53-8.21c-0.34-1.09,0.28-2.24,1.36-2.57l0.28-0.09c0.91-0.28,1.86,0.1,2.35,0.86
		c0.06,0.1,0.12,0.21,0.17,0.33l0.87,1.74c0.03,0.07,0.14,0.03,0.12-0.04l-0.99-3.84c0-0.01,0-0.01,0-0.02v-1.87
		c0-1.59,1.29-2.88,2.88-2.88h29.89c1.59,0,2.88,1.29,2.88,2.88v1.87c0,0.01,0,0.01,0,0.02l-0.99,3.84
		c-0.02,0.07,0.09,0.11,0.12,0.04l0.87-1.74c0.05-0.12,0.1-0.22,0.17-0.33c0.48-0.77,1.44-1.15,2.35-0.86l0.28,0.09
		C67.51,78.2,68.12,79.36,67.79,80.44z"/>
	<g>
		<linearGradient id="SVGID_2_" gradientUnits="userSpaceOnUse" x1="67.2174" y1="70.7991" x2="75.1814" y2="70.7991">
			<stop  offset="0" style="stop-color:#5565AF"/>
			<stop  offset="1" style="stop-color:#662D91"/>
		</linearGradient>
		<path class="st1" d="M75.18,73.54h-7.96l2.69-5.43c0.02-0.03,0.04-0.05,0.08-0.05h2.43c0.03,0,0.06,0.02,0.08,0.05L75.18,73.54z"
			/>
		<linearGradient id="SVGID_3_" gradientUnits="userSpaceOnUse" x1="70.9685" y1="82.7176" x2="71.4302" y2="82.7176">
			<stop  offset="0" style="stop-color:#5565AF"/>
			<stop  offset="1" style="stop-color:#662D91"/>
		</linearGradient>
		<rect x="70.97" y="73.54" class="st2" width="0.46" height="18.36"/>
		<linearGradient id="SVGID_4_" gradientUnits="userSpaceOnUse" x1="69.9297" y1="91.8809" x2="72.469" y2="91.8809">
			<stop  offset="0" style="stop-color:#5565AF"/>
			<stop  offset="1" style="stop-color:#662D91"/>
		</linearGradient>
		<path class="st3" d="M72.47,92.28h-2.54v-0.2c0-0.33,0.27-0.6,0.6-0.6h1.33c0.33,0,0.6,0.27,0.6,0.6V92.28z"/>
		<linearGradient id="SVGID_5_" gradientUnits="userSpaceOnUse" x1="68.9404" y1="92.4951" x2="73.4583" y2="92.4951">
			<stop  offset="0" style="stop-color:#5565AF"/>
			<stop  offset="1" style="stop-color:#662D91"/>
		</linearGradient>
		<path class="st4" d="M73.46,92.88h-4.52v-0.19c0-0.32,0.26-0.58,0.58-0.58h3.36c0.32,0,0.58,0.26,0.58,0.58V92.88z"/>
	</g>
	<g>
		<linearGradient id="SVGID_6_" gradientUnits="userSpaceOnUse" x1="93.1353" y1="24.6726" x2="111.738" y2="24.6726">
			<stop  offset="0" style="stop-color:#5565AF"/>
			<stop  offset="1" style="stop-color:#662D91"/>
		</linearGradient>
		<path class="st5" d="M95.46,42.51c-1.55-1.72-2.33-4.19-2.33-7.4v-2.27h5.9v2.72c0,2.57,1.08,3.86,3.23,3.86
			c1.06,0,1.86-0.31,2.41-0.94c0.55-0.62,0.82-1.63,0.82-3.03c0-1.66-0.38-3.13-1.13-4.4c-0.76-1.27-2.16-2.79-4.2-4.57
			c-2.57-2.27-4.37-4.32-5.39-6.15c-1.02-1.83-1.53-3.9-1.53-6.21c0-3.14,0.79-5.57,2.38-7.29s3.89-2.58,6.92-2.58
			c2.99,0,5.25,0.86,6.78,2.58c1.53,1.72,2.3,4.19,2.3,7.4v1.64h-5.9v-2.04c0-1.36-0.27-2.35-0.79-2.98
			c-0.53-0.62-1.3-0.94-2.33-0.94c-2.08,0-3.12,1.27-3.12,3.8c0,1.44,0.39,2.78,1.16,4.03c0.77,1.25,2.18,2.76,4.23,4.54
			c2.61,2.27,4.4,4.33,5.39,6.18c0.98,1.85,1.47,4.03,1.47,6.52c0,3.25-0.8,5.75-2.41,7.49c-1.61,1.74-3.94,2.61-7,2.61
			C99.3,45.09,97.01,44.23,95.46,42.51z"/>
		<linearGradient id="SVGID_7_" gradientUnits="userSpaceOnUse" x1="115.3108" y1="24.6722" x2="135.8416" y2="24.6722">
			<stop  offset="0" style="stop-color:#5565AF"/>
			<stop  offset="1" style="stop-color:#662D91"/>
		</linearGradient>
		<path class="st6" d="M115.31,4.82h6.24v16.73l7.94-16.73h6.24L128.3,19.4l7.54,25.13h-6.52l-5.27-17.69l-2.5,5.05v12.65h-6.24
			V4.82z"/>
		<linearGradient id="SVGID_8_" gradientUnits="userSpaceOnUse" x1="138.7901" y1="24.6722" x2="145.0287" y2="24.6722">
			<stop  offset="0" style="stop-color:#5565AF"/>
			<stop  offset="1" style="stop-color:#662D91"/>
		</linearGradient>
		<path class="st7" d="M138.79,4.82h6.24v39.7h-6.24V4.82z"/>
		<linearGradient id="SVGID_9_" gradientUnits="userSpaceOnUse" x1="149.6786" y1="24.6722" x2="166.1825" y2="24.6722">
			<stop  offset="0" style="stop-color:#5565AF"/>
			<stop  offset="1" style="stop-color:#662D91"/>
		</linearGradient>
		<path class="st8" d="M149.68,4.82h6.24v34.03h10.27v5.67h-16.5V4.82z"/>
		<linearGradient id="SVGID_10_" gradientUnits="userSpaceOnUse" x1="169.1883" y1="24.6722" x2="185.6929" y2="24.6722">
			<stop  offset="0" style="stop-color:#5565AF"/>
			<stop  offset="1" style="stop-color:#662D91"/>
		</linearGradient>
		<path class="st9" d="M169.19,4.82h6.24v34.03h10.27v5.67h-16.5V4.82z"/>
	</g>
	<g>
		<linearGradient id="SVGID_11_" gradientUnits="userSpaceOnUse" x1="93.1353" y1="75.7539" x2="99.3743" y2="75.7539">
			<stop  offset="0" style="stop-color:#5565AF"/>
			<stop  offset="1" style="stop-color:#662D91"/>
		</linearGradient>
		<path class="st10" d="M93.14,55.9h6.24v39.7h-6.24V55.9z"/>
		<linearGradient id="SVGID_12_" gradientUnits="userSpaceOnUse" x1="104.0239" y1="75.7539" x2="123.5906" y2="75.7539">
			<stop  offset="0" style="stop-color:#5565AF"/>
			<stop  offset="1" style="stop-color:#662D91"/>
		</linearGradient>
		<path class="st11" d="M104.02,55.9h7.83l6.07,23.76h0.11V55.9h5.56v39.7h-6.41l-7.49-28.98h-0.11V95.6h-5.56V55.9z"/>
		<linearGradient id="SVGID_13_" gradientUnits="userSpaceOnUse" x1="126.5964" y1="75.7539" x2="145.8795" y2="75.7539">
			<stop  offset="0" style="stop-color:#5565AF"/>
			<stop  offset="1" style="stop-color:#662D91"/>
		</linearGradient>
		<path class="st12" d="M133.12,61.58h-6.52V55.9h19.28v5.67h-6.52V95.6h-6.24V61.58z"/>
		<linearGradient id="SVGID_14_" gradientUnits="userSpaceOnUse" x1="148.8846" y1="75.7539" x2="165.8995" y2="75.7539">
			<stop  offset="0" style="stop-color:#5565AF"/>
			<stop  offset="1" style="stop-color:#662D91"/>
		</linearGradient>
		<path class="st13" d="M148.88,55.9h17.01v5.67h-10.78v10.49h8.56v5.67h-8.56v12.19h10.78v5.67h-17.01V55.9z"/>
		<linearGradient id="SVGID_15_" gradientUnits="userSpaceOnUse" x1="169.472" y1="75.7539" x2="188.6987" y2="75.7539">
			<stop  offset="0" style="stop-color:#5565AF"/>
			<stop  offset="1" style="stop-color:#662D91"/>
		</linearGradient>
		<path class="st14" d="M169.47,55.9h9.24c3.21,0,5.56,0.75,7.03,2.24c1.47,1.49,2.21,3.79,2.21,6.89v2.44
			c0,4.12-1.36,6.73-4.08,7.83v0.11c1.51,0.45,2.58,1.38,3.2,2.78c0.62,1.4,0.94,3.27,0.94,5.61v6.98c0,1.13,0.04,2.05,0.11,2.75
			c0.08,0.7,0.26,1.39,0.57,2.07h-6.35c-0.23-0.64-0.38-1.25-0.45-1.81c-0.08-0.57-0.11-1.59-0.11-3.06v-7.26
			c0-1.81-0.29-3.08-0.88-3.8c-0.59-0.72-1.6-1.08-3.03-1.08h-2.15V95.6h-6.24V55.9z M177.98,72.92c1.25,0,2.18-0.32,2.81-0.96
			c0.62-0.64,0.94-1.72,0.94-3.23v-3.06c0-1.44-0.26-2.48-0.77-3.12c-0.51-0.64-1.31-0.96-2.41-0.96h-2.84v11.34H177.98z"/>
		<linearGradient id="SVGID_16_" gradientUnits="userSpaceOnUse" x1="192.3282" y1="75.7539" x2="198.5673" y2="75.7539">
			<stop  offset="0" style="stop-color:#5565AF"/>
			<stop  offset="1" style="stop-color:#662D91"/>
		</linearGradient>
		<path class="st15" d="M192.33,55.9h6.24v39.7h-6.24V55.9z"/>
		<linearGradient id="SVGID_17_" gradientUnits="userSpaceOnUse" x1="202.7635" y1="75.7542" x2="221.7058" y2="75.7542">
			<stop  offset="0" style="stop-color:#5565AF"/>
			<stop  offset="1" style="stop-color:#662D91"/>
		</linearGradient>
		<path class="st16" d="M205.2,93.56c-1.63-1.74-2.44-4.2-2.44-7.37V65.32c0-3.18,0.81-5.63,2.44-7.37
			c1.63-1.74,3.97-2.61,7.03-2.61c3.06,0,5.41,0.87,7.03,2.61c1.63,1.74,2.44,4.2,2.44,7.37v20.87c0,3.18-0.81,5.63-2.44,7.37
			c-1.63,1.74-3.97,2.61-7.03,2.61C209.17,96.17,206.83,95.3,205.2,93.56z M215.47,86.59V64.92c0-2.61-1.08-3.91-3.23-3.91
			c-2.16,0-3.23,1.31-3.23,3.91v21.67c0,2.61,1.08,3.91,3.23,3.91C214.39,90.5,215.47,89.2,215.47,86.59z"/>
		<linearGradient id="SVGID_18_" gradientUnits="userSpaceOnUse" x1="225.902" y1="75.7539" x2="245.1287" y2="75.7539">
			<stop  offset="0" style="stop-color:#5565AF"/>
			<stop  offset="1" style="stop-color:#662D91"/>
		</linearGradient>
		<path class="st17" d="M225.9,55.9h9.24c3.21,0,5.56,0.75,7.03,2.24c1.47,1.49,2.21,3.79,2.21,6.89v2.44
			c0,4.12-1.36,6.73-4.08,7.83v0.11c1.51,0.45,2.58,1.38,3.2,2.78c0.62,1.4,0.94,3.27,0.94,5.61v6.98c0,1.13,0.04,2.05,0.11,2.75
			c0.08,0.7,0.26,1.39,0.57,2.07h-6.35c-0.23-0.64-0.38-1.25-0.45-1.81c-0.08-0.57-0.11-1.59-0.11-3.06v-7.26
			c0-1.81-0.29-3.08-0.88-3.8c-0.59-0.72-1.6-1.08-3.03-1.08h-2.15V95.6h-6.24V55.9z M234.41,72.92c1.25,0,2.18-0.32,2.81-0.96
			c0.62-0.64,0.94-1.72,0.94-3.23v-3.06c0-1.44-0.26-2.48-0.77-3.12c-0.51-0.64-1.31-0.96-2.41-0.96h-2.84v11.34H234.41z"/>
	</g>
	<linearGradient id="SVGID_19_" gradientUnits="userSpaceOnUse" x1="4.8713" y1="57.5069" x2="81.748" y2="57.5069">
		<stop  offset="0" style="stop-color:#5565AF"/>
		<stop  offset="1" style="stop-color:#662D91"/>
	</linearGradient>
	<path class="st18" d="M80.52,59.15H6.1c-0.68,0-1.23-0.55-1.23-1.23l0-0.83c0-0.68,0.55-1.23,1.23-1.23h74.41
		c0.68,0,1.23,0.55,1.23,1.23v0.83C81.75,58.6,81.2,59.15,80.52,59.15z"/>
	<linearGradient id="SVGID_20_" gradientUnits="userSpaceOnUse" x1="4.8713" y1="94.5264" x2="81.748" y2="94.5264">
		<stop  offset="0" style="stop-color:#5565AF"/>
		<stop  offset="1" style="stop-color:#662D91"/>
	</linearGradient>
	<path class="st19" d="M80.52,96.17H6.1c-0.68,0-1.23-0.55-1.23-1.23l0-0.83c0-0.68,0.55-1.23,1.23-1.23h74.41
		c0.68,0,1.23,0.55,1.23,1.23v0.83C81.75,95.62,81.2,96.17,80.52,96.17z"/>
	<linearGradient id="SVGID_21_" gradientUnits="userSpaceOnUse" x1="78.4575" y1="76.0167" x2="81.748" y2="76.0167">
		<stop  offset="0" style="stop-color:#5565AF"/>
		<stop  offset="1" style="stop-color:#662D91"/>
	</linearGradient>
	<path class="st20" d="M81.75,57.09v37.85c0,0.68-0.55,1.23-1.23,1.23h-0.83c-0.68,0-1.23-0.55-1.23-1.23V57.09
		c0-0.68,0.55-1.23,1.23-1.23h0.83C81.2,55.86,81.75,56.41,81.75,57.09z"/>
	<linearGradient id="SVGID_22_" gradientUnits="userSpaceOnUse" x1="63.3657" y1="12.9805" x2="82.0126" y2="12.9805">
		<stop  offset="0" style="stop-color:#5565AF"/>
		<stop  offset="1" style="stop-color:#662D91"/>
	</linearGradient>
	<path class="st21" d="M79.33,21.94l-15.6-15.6c-0.48-0.48-0.48-1.26,0-1.74l0.58-0.58c0.48-0.48,1.26-0.48,1.74,0l15.6,15.6
		c0.48,0.48,0.48,1.26,0,1.74l-0.58,0.58C80.59,22.42,79.81,22.42,79.33,21.94z"/>
	<linearGradient id="SVGID_23_" gradientUnits="userSpaceOnUse" x1="4.7" y1="31.4902" x2="60.3664" y2="31.4902">
		<stop  offset="0" style="stop-color:#5565AF"/>
		<stop  offset="1" style="stop-color:#662D91"/>
	</linearGradient>
	<path class="st22" d="M60.01,6.34L7.39,58.96c-0.48,0.48-1.26,0.48-1.74,0l-0.58-0.58c-0.48-0.48-0.48-1.26,0-1.74L57.68,4.02
		c0.48-0.48,1.26-0.48,1.74,0l0.58,0.58C60.49,5.08,60.49,5.86,60.01,6.34z"/>
	<linearGradient id="SVGID_24_" gradientUnits="userSpaceOnUse" x1="11.3673" y1="31.4902" x2="67.0337" y2="31.4902">
		<stop  offset="0" style="stop-color:#5565AF"/>
		<stop  offset="1" style="stop-color:#662D91"/>
	</linearGradient>
	<path class="st23" d="M66.67,6.34L14.05,58.96c-0.48,0.48-1.26,0.48-1.74,0l-0.58-0.58c-0.48-0.48-0.48-1.26,0-1.74L64.35,4.02
		c0.48-0.48,1.26-0.48,1.74,0l0.58,0.58C67.15,5.08,67.15,5.86,66.67,6.34z"/>
	<g>
		<linearGradient id="SVGID_25_" gradientUnits="userSpaceOnUse" x1="52.4464" y1="32.9043" x2="62.9581" y2="32.9043">
			<stop  offset="0" style="stop-color:#5565AF"/>
			<stop  offset="1" style="stop-color:#662D91"/>
		</linearGradient>
		<rect x="52.45" y="27.65" class="st24" width="10.51" height="10.51"/>
		<linearGradient id="SVGID_26_" gradientUnits="userSpaceOnUse" x1="64.4693" y1="32.9043" x2="74.981" y2="32.9043">
			<stop  offset="0" style="stop-color:#5565AF"/>
			<stop  offset="1" style="stop-color:#662D91"/>
		</linearGradient>
		<rect x="64.47" y="27.65" class="st25" width="10.51" height="10.51"/>
		<linearGradient id="SVGID_27_" gradientUnits="userSpaceOnUse" x1="52.4464" y1="45.09" x2="62.9581" y2="45.09">
			<stop  offset="0" style="stop-color:#5565AF"/>
			<stop  offset="1" style="stop-color:#662D91"/>
		</linearGradient>
		<rect x="52.45" y="39.83" class="st26" width="10.51" height="10.51"/>
		<linearGradient id="SVGID_28_" gradientUnits="userSpaceOnUse" x1="64.4693" y1="45.09" x2="74.981" y2="45.09">
			<stop  offset="0" style="stop-color:#5565AF"/>
			<stop  offset="1" style="stop-color:#662D91"/>
		</linearGradient>
		<rect x="64.47" y="39.83" class="st27" width="10.51" height="10.51"/>
	</g>
</g>
</svg>
