<svg xmlns="http://www.w3.org/2000/svg" width="188.377" height="153.381" viewBox="0 0 188.377 153.381"><defs><style>.a{fill:#777;}</style></defs><path class="a" d="M172.588,52.26V21.188A21.226,21.226,0,0,0,151.478,0H36.9a21.226,21.226,0,0,0-21.11,21.207V52.279A21.459,21.459,0,0,0,0,72.9v56.979A2.913,2.913,0,0,0,2.913,132.8H15.09v17.672a2.913,2.913,0,0,0,5.826,0V132.8H167.461v17.672a2.913,2.913,0,0,0,5.826,0V132.8h12.177a2.913,2.913,0,0,0,2.913-2.913V72.9A21.459,21.459,0,0,0,172.588,52.26Zm-5.826-31.072v30.3A21.459,21.459,0,0,0,145.4,72.845v18.43H97.1V6.739a2.855,2.855,0,0,0-.155-.913h54.532a15.4,15.4,0,0,1,15.284,15.381ZM36.9,5.826H91.275a2.855,2.855,0,0,0-.155.913V91.275H42.88V72.9A21.459,21.459,0,0,0,21.518,51.541V21.207A15.4,15.4,0,0,1,36.9,5.826ZM182.551,126.97H5.826V72.9a15.614,15.614,0,1,1,31.228,0V94.266a2.913,2.913,0,0,0,2.913,2.913H148.41a2.913,2.913,0,0,0,2.913-2.913V72.9a15.614,15.614,0,0,1,31.228,0Z"/></svg>