<svg xmlns="http://www.w3.org/2000/svg" width="204.907" height="154.918" viewBox="0 0 204.907 154.918"><defs><style>.a{fill:#777;}</style></defs><path class="a" d="M602.814,583.01a3.26,3.26,0,0,0-3.26,3.26v16.577a3.26,3.26,0,0,0,6.52,0V586.27A3.26,3.26,0,0,0,602.814,583.01Zm0,82.544a3.26,3.26,0,0,0-3.26,3.26v16.577a3.26,3.26,0,0,0,6.52,0V668.814A3.261,3.261,0,0,0,602.814,665.554Z" transform="translate(-549.32 -559.927)"/><path class="a" d="M415.976,487.191h-127V435.6h15.405v6.771a15.746,15.746,0,0,0-12.459,15.379,3.26,3.26,0,0,0,3.26,3.26H320.1a3.26,3.26,0,0,0,3.26-3.26q0-.074,0-.148A15.746,15.746,0,0,0,310.9,442.373V435.6h16.945a4.957,4.957,0,0,0,1.72-.306,4.955,4.955,0,0,0,1.719.306h40.411a4.956,4.956,0,0,0,1.7-.3,4.851,4.851,0,0,0,1.682.3h16.287v6.771a15.746,15.746,0,0,0-12.459,15.379,3.26,3.26,0,0,0,3.26,3.26h24.919a3.26,3.26,0,0,0,3.26-3.26,15.746,15.746,0,0,0-12.459-15.379V435.6h16.287a4.957,4.957,0,0,0,4.923-4.98V410.98a4.957,4.957,0,0,0-4.923-4.98H375.077a4.852,4.852,0,0,0-1.682.3,4.956,4.956,0,0,0-1.7-.3H331.283a4.955,4.955,0,0,0-1.719.306,4.957,4.957,0,0,0-1.72-.306H287.433a4.959,4.959,0,0,0-1.546.247,4.543,4.543,0,0,0-1.478-.247H218.893a4.569,4.569,0,0,0-4.564,4.564v145.79a4.569,4.569,0,0,0,4.564,4.564h65.516a4.579,4.579,0,0,0,.708-.055,3.279,3.279,0,0,0,.6.055H415.976a3.26,3.26,0,0,0,3.26-3.26V490.451A3.26,3.26,0,0,0,415.976,487.191Zm-99.735-32.7H299.035a9.2,9.2,0,0,1,17.205,0Zm86.987,0H386.022a9.2,9.2,0,0,1,17.205,0Zm-59.963,39.22h69.311v14.343H343.265V493.711Zm-6.52,0v26.2H288.973v-26.2h47.772Zm75.83-64.629h-35.9V412.52h35.9v16.562Zm-42.421,0h-37.33V412.52h37.33Zm-43.85,0h-37.33V412.52H326.3v16.562ZM220.849,412.52h61.6v56.222h-61.6Zm0,62.742h61.6V554.4h-61.6ZM288.973,554.4V526.435h47.771V554.4Zm54.292,0V514.575h69.451V554.4Z" transform="translate(-214.329 -406)"/><path class="a" d="M1333.214,1268.79h-40.179a3.26,3.26,0,0,0-3.26,3.26v25.52a3.26,3.26,0,0,0,3.26,3.26h40.179a3.26,3.26,0,0,0,3.26-3.26v-25.52A3.26,3.26,0,0,0,1333.214,1268.79Zm-3.26,25.52H1296.3v-19h33.659Z" transform="translate(-1149.534 -1156.28)"/><circle class="a" cx="4.259" cy="4.259" r="4.259" transform="translate(94.271 91.41)"/><circle class="a" cx="2.929" cy="2.929" r="2.929" transform="translate(90.381 11.873)"/><circle class="a" cx="2.929" cy="2.929" r="2.929" transform="translate(134.232 11.873)"/><circle class="a" cx="2.929" cy="2.929" r="2.929" transform="translate(177.368 11.873)"/><circle class="a" cx="4.259" cy="4.259" r="4.259" transform="translate(94.271 124.271)"/><circle class="a" cx="4.259" cy="4.259" r="4.259" transform="translate(136.04 90.625)"/><circle class="a" cx="4.259" cy="4.259" r="4.259" transform="translate(147.687 90.625)"/><circle class="a" cx="4.259" cy="4.259" r="4.259" transform="translate(159.333 90.625)"/><circle class="a" cx="4.259" cy="4.259" r="4.259" transform="translate(170.979 90.625)"/><circle class="a" cx="4.259" cy="4.259" r="4.259" transform="translate(182.624 90.625)"/></svg>