<svg xmlns="http://www.w3.org/2000/svg" width="129.858" height="156.884" viewBox="0 0 129.858 156.884"><defs><style>.a{fill:#777;}</style></defs><g transform="translate(-1127.696 -7283.229)"><path class="a" d="M179.365,18H68.492A9.336,9.336,0,0,0,59,27.033V160.744c0,.044.074.09.074.134,0,7.722,6.617,14,14.659,14H171.3a9.177,9.177,0,0,0,9.315-9.031v-12.47a9.258,9.258,0,0,0,8.24-8.948V27.031A9.333,9.333,0,0,0,179.365,18Zm-5.339,147.853a2.587,2.587,0,0,1-2.724,2.439H73.733c-4.407,0-7.993-3.325-7.993-7.412v-.1a7.741,7.741,0,0,1,7.993-7.32H174.026Zm8.24-21.418a2.752,2.752,0,0,1-2.9,2.434H73.733a15.488,15.488,0,0,0-8.141,2.3V27.033a2.759,2.759,0,0,1,2.9-2.441H179.365a2.758,2.758,0,0,1,2.9,2.439Z" transform="translate(1068.696 7265.229)"/><path class="a" d="M161.633,115.647l2.28-46.411a9.232,9.232,0,0,0-2.579-6.871,10.037,10.037,0,0,0-14.43,0,9.23,9.23,0,0,0-2.579,6.871l2.28,46.411a19.488,19.488,0,0,0-6.2,5.507,29.45,29.45,0,0,0,0,33.552c3.6,4.806,8.468,7.452,13.716,7.452s10.12-2.647,13.716-7.452a29.45,29.45,0,0,0,0-33.552A19.492,19.492,0,0,0,161.633,115.647ZM150.91,68.913a2.7,2.7,0,0,1,.769-2,3.447,3.447,0,0,1,4.882,0,2.7,2.7,0,0,1,.769,2l-2.2,44.824q-.5-.033-1.009-.033c-.338,0-.674.012-1.008.033Zm11.649,81.846c-2.321,3.1-5.318,4.812-8.437,4.812s-6.117-1.708-8.437-4.812a22.892,22.892,0,0,1,0-25.654c2.321-3.1,5.318-4.812,8.437-4.812s6.117,1.708,8.437,4.812a22.892,22.892,0,0,1,0,25.654Zm51.624-87a5.962,5.962,0,0,0-11.883-.243c0,.031-.005.063-.007.094l-.351,5.649-.351-5.649c0-.031,0-.139-.007-.171A6.024,6.024,0,0,0,195.62,58h-.01c-.03,0-.059.076-.089.076a5.952,5.952,0,0,0-5.875,5.405c0,.031-.005.082-.007.113l-.352,5.663-.351-5.649c0-.031,0-.06-.007-.091a5.916,5.916,0,0,0-5.875-5.365h-.1a5.881,5.881,0,0,0-5.914,5.63l-.63,20.429v.1c0,9.528,4.784,18.549,11.641,22.471l-2.234,45.445A9.231,9.231,0,0,0,188.4,159.1a10.037,10.037,0,0,0,14.43,0,9.228,9.228,0,0,0,2.579-6.871l-2.233-45.447c6.863-3.932,11.64-12.947,11.64-22.469v-.1Zm-16.128,90.795a3.447,3.447,0,0,1-4.882,0,2.7,2.7,0,0,1-.77-2l2.149-43.736c.355.026.71.043,1.066.043s.705-.017,1.058-.043l2.148,43.736A2.7,2.7,0,0,1,198.054,154.556Zm.51-52.852a8,8,0,0,1-5.919-.007c-5.4-2.1-9.624-9.705-9.642-17.332l.205-6.65.259,4.2a3.32,3.32,0,0,0,3.29,3.117h5.062a3.319,3.319,0,0,0,3.29-3.118l.507-8.166.507,8.174a3.314,3.314,0,0,0,3.288,3.11h5.061a3.319,3.319,0,0,0,3.29-3.118l.258-4.159.2,6.621C208.205,92,203.976,99.6,198.563,101.7Z" transform="translate(1017.639 7238.413)"/></g></svg>