<svg xmlns="http://www.w3.org/2000/svg" width="126.932" height="171.426" viewBox="0 0 126.932 171.426"><defs><style>.a{fill:#777;}</style></defs><g transform="translate(-0.04)"><g transform="translate(0.04 0)"><path class="a" d="M125.254,52.19,97.243,5.763A12.009,12.009,0,0,0,87.006,0H40.024A12.009,12.009,0,0,0,29.8,5.763L1.758,52.19A11.956,11.956,0,0,0,11.942,70.321H45.429c2.38,3.687,4.528,11.2,5.8,20.4a2.506,2.506,0,0,1-2.112,2.667c-9.611,1.665-31.876,8.144-31.142,32.467C18.511,143.756,29.2,151.524,37,157.2c4.063,2.953,7.571,5.513,8.752,8.627a.662.662,0,0,1-.268.752l-.179.161a2.685,2.685,0,0,0,1.79,4.689h0l30.605-.179a2.685,2.685,0,0,0,1.575-4.8.609.609,0,0,1-.268-.734c1.253-3.293,4.832-5.888,8.949-8.949,8.108-5.871,18.184-13.173,18.721-30.838.788-25.97-24.842-31.554-32.735-32.646a1.02,1.02,0,0,1-.591-.931c.555-8.537,3.114-17.9,5.942-22.032h35.8A11.956,11.956,0,0,0,125.254,52.19Zm-23.929,73.56c-.447,15.016-8.949,21.191-16.5,26.65-4.636,3.365-8.949,6.533-10.846,11.329a5.906,5.906,0,0,0-.376,2.148L51.138,166a5.87,5.87,0,0,0-.376-2.112c-1.79-4.6-6.049-7.732-10.6-11.043-7.66-5.584-16.359-11.92-16.806-27.169-.609-19.383,16.448-25.236,26.722-26.99a7.875,7.875,0,0,0,6.533-8.7,78.75,78.75,0,0,0-4.815-19.2h21.03a65.721,65.721,0,0,0-4.85,21.227,6.336,6.336,0,0,0,5.369,6.6h0C81.887,99.8,101.986,104.846,101.324,125.751ZM120.815,61.6a6.5,6.5,0,0,1-5.727,3.347H11.942A6.586,6.586,0,0,1,6.3,54.964L34.386,8.537a6.622,6.622,0,0,1,5.638-3.168H87.006a6.622,6.622,0,0,1,5.638,3.168l28.082,46.427a6.515,6.515,0,0,1,.089,6.64Z" transform="translate(-0.04 0)"/></g></g></svg>