<svg xmlns="http://www.w3.org/2000/svg" width="157.312" height="162.404" viewBox="0 0 157.312 162.404"><defs><style>.a{fill:#777;}</style></defs><g transform="translate(0 0.039)"><g transform="translate(0 -0.039)"><path class="a" d="M157.312,79.128a2.467,2.467,0,0,0-.53-1.507V19.8a20.417,20.417,0,0,0-40.818,0V22.96A21,21,0,0,0,97.252,43.278a2.484,2.484,0,0,0,2.484,2.484h35.85a2.484,2.484,0,0,0,2.484-2.484,21.03,21.03,0,0,0-17.188-20.07V19.9a15.45,15.45,0,0,1,30.883,0V76.645H2.484A2.484,2.484,0,0,0,0,79.128c0,28.879,11.591,59.745,36.662,64.581l-7.485,14.953a2.484,2.484,0,1,0,4.438,2.219l8.28-16.559h71.817a35.967,35.967,0,0,0,9.6-1.292l8.909,17.834a2.484,2.484,0,1,0,4.438-2.219l-8.644-17.271C148.038,132.5,157.312,104.994,157.312,79.128ZM132.87,40.794H102.484c1.275-6.541,7.352-12.949,15.2-12.949S131.6,34.253,132.87,40.794Zm17.652,53.271h-91.6V81.612h93.112a2.434,2.434,0,0,0,.265.447,99.723,99.723,0,0,1-1.093,12.1,2.451,2.451,0,0,0-.679-.1ZM53.95,81.612v30.866H32.042V81.612Zm-26.892,0V95.075a2.467,2.467,0,0,0-2-1.01H7.154a2.467,2.467,0,0,0-1.027.232A99.635,99.635,0,0,1,4.968,81.612Zm86.654,57.758H43.6c-19.656,0-32.042-18.215-36.629-40.355h18.1a2.467,2.467,0,0,0,2-1.01v16.957a2.484,2.484,0,0,0,2.484,2.484H56.433a2.484,2.484,0,0,0,2.484-2.484V99.032H150.34C145.72,121.155,133.367,139.37,113.711,139.37Z" transform="translate(0 0.039)"/></g></g></svg>