<svg xmlns="http://www.w3.org/2000/svg" width="151.981" height="156.884" viewBox="0 0 151.981 156.884"><defs><style>.a{fill:#777;}</style></defs><path class="a" d="M2.451,0A2.452,2.452,0,0,0,0,2.451v4.9a7.392,7.392,0,0,0,7.354,7.354H9.805v7.354a2.452,2.452,0,0,0,2.451,2.451h2.452V132.371H12.257a2.452,2.452,0,0,0-2.451,2.451v7.354H7.354A7.393,7.393,0,0,0,0,149.53v4.9a2.452,2.452,0,0,0,2.451,2.451H149.53a2.451,2.451,0,0,0,2.451-2.451v-4.9a7.392,7.392,0,0,0-7.354-7.354h-2.451v-7.354a2.452,2.452,0,0,0-2.451-2.451h-2.452V24.513h2.451a2.451,2.451,0,0,0,2.451-2.451V14.708h2.451a7.392,7.392,0,0,0,7.354-7.354v-4.9A2.452,2.452,0,0,0,149.53,0ZM4.9,4.9H147.079V7.354a2.394,2.394,0,0,1-2.451,2.451H7.354A2.394,2.394,0,0,1,4.9,7.354Zm9.805,9.805H137.273v4.9H14.708Zm4.9,9.805H73.539V132.371H19.61Zm58.831,0h53.929V132.371H78.442Zm-47.006,4.9a2.452,2.452,0,0,0-2.308,1.637,4.9,4.9,0,0,1-2.988,2.978,2.452,2.452,0,0,0-1.628,2.308V81.324a2.452,2.452,0,0,0,1.628,2.317,4.9,4.9,0,0,1,2.988,2.978,2.452,2.452,0,0,0,2.308,1.628H61.714a2.452,2.452,0,0,0,2.308-1.628,4.9,4.9,0,0,1,2.988-2.978,2.452,2.452,0,0,0,1.628-2.317V36.339a2.452,2.452,0,0,0-1.628-2.308,4.9,4.9,0,0,1-2.988-2.978,2.452,2.452,0,0,0-2.308-1.637Zm58.831,0a2.452,2.452,0,0,0-2.308,1.637,4.9,4.9,0,0,1-2.988,2.978,2.452,2.452,0,0,0-1.628,2.308V81.334a2.452,2.452,0,0,0,1.628,2.308A4.9,4.9,0,0,1,87.96,86.62a2.452,2.452,0,0,0,2.308,1.628h30.278a2.452,2.452,0,0,0,2.308-1.628,4.9,4.9,0,0,1,2.988-2.978,2.452,2.452,0,0,0,1.628-2.308V36.339a2.452,2.452,0,0,0-1.628-2.308,4.9,4.9,0,0,1-2.988-2.978,2.452,2.452,0,0,0-2.308-1.637Zm-58.152,4.9H61.034a9.43,9.43,0,0,0,2.7,2.71V80.644a9.425,9.425,0,0,0-2.691,2.7H32.106a9.43,9.43,0,0,0-2.691-2.7V37.028A9.428,9.428,0,0,0,32.116,34.318Zm58.832,0h28.918a9.43,9.43,0,0,0,2.7,2.71V80.644a9.425,9.425,0,0,0-2.691,2.7H90.938a9.425,9.425,0,0,0-2.691-2.7V37.028A9.43,9.43,0,0,0,90.948,34.318ZM56.093,93.15a2.454,2.454,0,1,0,.249,4.9h9.805a2.451,2.451,0,1,0,0-4.9H56.342a2.452,2.452,0,0,0-.249,0Zm29.492,0a2.454,2.454,0,1,0,.249,4.9h9.805a2.451,2.451,0,1,0,0-4.9H85.834a2.451,2.451,0,0,0-.249,0Zm-54.149,9.805a2.452,2.452,0,0,0-2.308,1.637,4.9,4.9,0,0,1-2.988,2.978,2.452,2.452,0,0,0-1.628,2.308v10.667a2.452,2.452,0,0,0,1.628,2.317,4.9,4.9,0,0,1,2.988,2.978,2.452,2.452,0,0,0,2.308,1.628H61.714a2.452,2.452,0,0,0,2.308-1.628,4.9,4.9,0,0,1,2.988-2.978,2.452,2.452,0,0,0,1.628-2.317V109.878a2.452,2.452,0,0,0-1.628-2.308,4.9,4.9,0,0,1-2.988-2.978,2.452,2.452,0,0,0-2.308-1.637Zm58.831,0a2.452,2.452,0,0,0-2.308,1.637,4.9,4.9,0,0,1-2.988,2.978,2.452,2.452,0,0,0-1.628,2.308v10.667a2.452,2.452,0,0,0,1.628,2.317,4.9,4.9,0,0,1,2.988,2.978,2.452,2.452,0,0,0,2.308,1.628h30.278a2.452,2.452,0,0,0,2.308-1.628,4.9,4.9,0,0,1,2.988-2.978,2.452,2.452,0,0,0,1.628-2.317V109.878a2.452,2.452,0,0,0-1.628-2.308,4.9,4.9,0,0,1-2.988-2.978,2.452,2.452,0,0,0-2.308-1.637Zm-58.152,4.9H61.034a9.429,9.429,0,0,0,2.7,2.71v9.3a9.431,9.431,0,0,0-2.691,2.7H32.106a9.435,9.435,0,0,0-2.691-2.7v-9.3A9.428,9.428,0,0,0,32.116,107.858Zm58.832,0h28.918a9.429,9.429,0,0,0,2.7,2.71v9.3a9.431,9.431,0,0,0-2.691,2.7H90.938a9.431,9.431,0,0,0-2.691-2.7v-9.3A9.429,9.429,0,0,0,90.948,107.858Zm-76.24,29.416H137.273v4.9H14.708Zm-7.354,9.805H144.627a2.394,2.394,0,0,1,2.451,2.451v2.451H4.9V149.53A2.394,2.394,0,0,1,7.354,147.079Z"/></svg>