<svg xmlns="http://www.w3.org/2000/svg" width="162.386" height="162.404" viewBox="0 0 162.386 162.404"><defs><style>.a{fill:#777;}</style></defs><path class="a" d="M81.815,82.06H63.308a2.538,2.538,0,1,0,0,5.075H81.815a2.538,2.538,0,0,0,0-5.075Z" transform="translate(42.035 56.761)"/><path class="a" d="M159.8,64.826h-9.237V48.67a2.538,2.538,0,0,0-2.538-2.538H110.975a2.538,2.538,0,0,0-2.538,2.538V64.826H55.725V51.292H94.735a2.538,2.538,0,0,0,2.538-2.538V2.538A2.538,2.538,0,0,0,94.735,0H11.571A2.538,2.538,0,0,0,9.034,2.538V48.789a2.538,2.538,0,0,0,2.538,2.538H50.649V64.86H2.538a2.538,2.538,0,0,0,0,5.075H11.52v89.931a2.538,2.538,0,1,0,5.075,0V69.9H80.677v52.95h0v37.014a2.538,2.538,0,0,0,2.538,2.538h64.758a2.538,2.538,0,0,0,2.588-2.538v-37h0V69.9h9.287a2.538,2.538,0,1,0,0-5.075ZM14.109,5.075H92.282V46.251H14.109Zm99.4,46.133h31.973V64.623H113.513Zm31.973,69.123H85.752V97.645h59.734ZM85.8,125.406h59.683v31.922H85.752ZM145.486,92.57H85.752V69.9h59.734Z"/></svg>