<svg xmlns="http://www.w3.org/2000/svg" width="191.5" height="149.494" viewBox="0 0 191.5 149.494"><defs><style>.a{fill:#777;}</style></defs><path class="a" d="M188.411,77.9h-7.8V3.089A3.089,3.089,0,0,0,177.518,0H13.982a3.089,3.089,0,0,0-3.089,3.089V77.9h-7.8A3.089,3.089,0,0,0,0,80.986V124.6a3.089,3.089,0,0,0,3.089,3.068h23.68V146.4a3.089,3.089,0,0,0,3.089,3.089H51.581A3.089,3.089,0,0,0,54.67,146.4V127.667h81.048V146.4a3.089,3.089,0,0,0,3.089,3.089h21.806A3.089,3.089,0,0,0,163.7,146.4V127.667h24.71a3.089,3.089,0,0,0,3.089-3.089V80.986A3.089,3.089,0,0,0,188.411,77.9ZM36.158,46.7a7.825,7.825,0,0,1,7.8-7.8h32.72A7.8,7.8,0,0,1,78.391,54.32H42.254a7.825,7.825,0,0,1-6.1-7.619Zm-.371,13.8H41.7a13.94,13.94,0,0,0,2.265.206h32.72a13.94,13.94,0,0,0,2.265-.206h33.626a13.94,13.94,0,0,0,2.265.206h32.7A13.94,13.94,0,0,0,149.8,60.5h5.91a18.738,18.738,0,0,1,18.532,15.629H17.4A19.521,19.521,0,0,1,35.788,60.477Zm71.287-13.8a7.825,7.825,0,0,1,7.8-7.8h32.658a7.8,7.8,0,0,1,1.709,15.423H113.129a7.825,7.825,0,0,1-6.054-7.619ZM174.43,6.177V62.845a24.833,24.833,0,0,0-15.341-8.237A13.982,13.982,0,0,0,147.537,32.74h-32.72a13.982,13.982,0,0,0-11.717,21.6H88.4a13.982,13.982,0,0,0-11.717-21.6H43.963A13.982,13.982,0,0,0,32.431,54.629a25.472,25.472,0,0,0-15.341,8.607V6.177ZM48.493,143.316H32.946V127.667H48.575Zm109.011,0H141.9V127.667h15.629Zm27.819-21.827H6.177V84.075H185.323Z" transform="translate(0 0)"/></svg>