<svg xmlns="http://www.w3.org/2000/svg" width="252.963" height="249.137" viewBox="0 0 252.963 249.137"><defs><style>.a{fill:#fde9e4;}.b{fill:#fff;}.c{fill:#1d6e87;}.d{fill:#13375b;}.e{fill:#f48c7f;}.f{fill:#8acbe2;}.g{fill:#94dcf0;}.h{fill:#f7a491;}.i{fill:#f47458;}.j{fill:#c5eff9;}.k{fill:#355389;}</style></defs><g transform="translate(-135.356 -157.486)"><g transform="translate(135.356 157.486)"><path class="a" d="M352.413,405.39s30.384-33.508,35.316-103.324c4.042-57.21-12.664-100.047-50.943-130.639-27.745-22.173-98.615-18.725-136.434,16.343-35.364,32.791-38.156,73.6-38.156,73.6s-25.272,17.216-26.756,63.767c-1.663,52.165,21.741,80.084,21.741,80.084Z" transform="translate(-135.356 -157.486)"/></g><g transform="translate(231.99 201.665)"><path class="b" d="M799.034,493.185h31.044a3.958,3.958,0,0,0,3.951-3.965V463.06a3.958,3.958,0,0,0-3.951-3.965H799.034a3.958,3.958,0,0,0-3.951,3.965V489.22A3.958,3.958,0,0,0,799.034,493.185Z" transform="translate(-795.083 -459.095)"/></g><path class="b" d="M845.958,683.9l-3.518,11.326L854.089,683.9Z" transform="translate(-603.514 -449.305)"/><g transform="translate(140.273 403.559)"><path class="c" d="M1.532,0H230.464A1.532,1.532,0,0,1,232,1.532v0a1.532,1.532,0,0,1-1.532,1.532H1.532A1.532,1.532,0,0,1,0,1.532v0A1.532,1.532,0,0,1,1.532,0Z" transform="translate(0 0)"/></g><g transform="translate(170.794 251.25)"><rect class="d" width="3.105" height="45.416" transform="translate(53.741 102.186)"/><path class="d" d="M632.647,1819.134H663.5a2.574,2.574,0,0,1,2.573,2.574h0a.45.45,0,0,1-.45.45h-35.1a.45.45,0,0,1-.45-.45h0A2.573,2.573,0,0,1,632.647,1819.134Z" transform="translate(-593.048 -1669.507)"/><path class="d" d="M730.089,1803.233h3.78a2.025,2.025,0,0,1,2.025,2.025h0a2.025,2.025,0,0,1-2.025,2.025h-3.78a2.025,2.025,0,0,1-2.025-2.025h0A2.025,2.025,0,0,1,730.089,1803.233Z" transform="translate(-676.685 -1655.935)"/><path class="e" d="M780.359,1686.329s-6.1,7.218-6.145,7.906.264,8.191,1.055,8.879,3.018.344,2.271,1.118c-.564.584-4.907.46-7.785.3-.84-.046-1.2-5.962-1.538-6.938-.483-1.418-2.251-4.508-1.812-5.5a8.353,8.353,0,0,1,2.682-2.4c1.518-.972,5.954-7.208,5.954-7.208Z" transform="translate(-709.351 -1552.883)"/><path class="f" d="M763.4,1731.384s4.465,12.458,6.213,13.06c.464.159,2.691.565,3.111,1.541a4.187,4.187,0,0,1,0,1.276h-9.307s-1.177-5.489-1.642-7.9c0,0-2.464-5.893-2.19-6.428S763.4,1731.384,763.4,1731.384Z" transform="translate(-703.575 -1594.61)"/><path class="f" d="M675.708,1323.418s-6.724,7.605-8.439,8.81-18.173,31.238-18.173,31.238l5.863,4.242s14.709-18.176,21.617-27.9c5.841-8.22,3.689-7.7,7.124-12.7a6.641,6.641,0,0,0-1.031-8.714q-.465-.417-1.013-.871c-5.084-4.2-39.935-8.926-39.935-8.926l-22.291,2.163s18.213,12.656,18.892,12.993,25.151,3.873,25.661,3.873S675.708,1323.418,675.708,1323.418Z" transform="translate(-583.963 -1233.752)"/><path class="e" d="M779.082,1057.782c.23-.665-3-1.191-3.179-1.862s4.079-.739,4.229-1.33c.277-1.089-4.663-.213-4.567-.722s5.145-1.664,4.6-2.535-5.111,1.744-5.251,1.151,4.461-2.05,4.374-3.349c-.047-.694-7.548,3.489-8.421,3.114s.925-3.644.229-4.126-2.663,6.642-3.141,6.881-10.612,6.07-14.222,7c-.443-1.209-3.618-7.614-4.009-8.757-2.022,1.45-4.373,1.773-6.46,3.1,1.529,3.793,6.77,13.128,7.827,13.6,3.221,1.442,15.621-8.916,18.1-10.69s3.9-1.208,5.58-1.772S778.853,1058.448,779.082,1057.782Z" transform="translate(-689.654 -1011.411)"/><path class="f" d="M722.639,1030.31l-12.2,6.289-2.409-3.871s-3.414-8.289-7.593-12.462c-2.548-2.544-2.207,5.282-3.554,5.636-3.559.935-7.043-1.379-4.97,2.176s8.928,8.52,8.928,8.52l1.341-.722.006.023,2.486,5.157,10.2,1.675,11.091-7.7Z" transform="translate(-645.299 -987.221)"/><path class="d" d="M640.333,799.62c-3.15-1.35-6.676-2.719-9.906-1.572-2.034.722-3.6,2.34-5.086,3.9-1.63,1.716-3.362,3.668-3.4,6.035a8.65,8.65,0,0,0,.557,2.818,16.309,16.309,0,0,0,2.453,5.026,14.467,14.467,0,0,0,7.669,4.63c2.589.723,3.231.468,5.917.352,1.813-.078,4.686-2.959,5.863-4.341,1.87-2.194,1.708-11.705-.266-14.1a10.337,10.337,0,0,0-2.1-1.822,16.906,16.906,0,0,0-1.667-1.007Z" transform="translate(-586.104 -797.62)"/><path class="g" d="M618.161,993.264s-9.333-.68-12.631,2.051.707,27.01.7,31.035-2.265,15.4-2.265,15.4,21.907,3.8,25.387-2.242c0,0,.99-23.02.843-25.915s-3.4-14.734-4.293-16S618.161,993.264,618.161,993.264Z" transform="translate(-570.766 -964.542)"/><path class="h" d="M670.468,925.536s-.038.214-.106.579c-.328,1.748-1.59,7.548-2.443,9.142-1.031,1.927,3.529,8.072,7.916,7.322,1.306-.223-1.1-5.646-.988-6.221.222-1.1.522-2.6.83-4.138l.514-2.574c.469-2.35.852-4.272.852-4.272Z" transform="translate(-625.223 -906.661)"/><path class="i" d="M684.294,926.115c.068-.364.106-.579.106-.579l6.575-.162s-.383,1.922-.852,4.272c-.164.822-.339,1.7-.512,2.56a6.186,6.186,0,0,1-3.139-1.557,8.2,8.2,0,0,1-2.378-3.5C684.175,926.74,684.243,926.386,684.294,926.115Z" transform="translate(-639.156 -906.661)"/><path class="h" d="M673.529,822.781a5.964,5.964,0,0,0-4.726,2.761c-1.607,2.714-2.7,10.6,2.626,14.127s9.444-1.779,9.5-6.842S680.478,821.7,673.529,822.781Z" transform="translate(-624.979 -818.988)"/><path class="d" d="M658.852,817.652s-3.168,7.779-6.062,8.494-2.781,4.616-2.781,4.616-.1-9.009,2.587-11.1A11,11,0,0,1,658.852,817.652Z" transform="translate(-610.063 -814.718)"/><path class="h" d="M1137.744,1710.582s5.43,7.576,4.953,9.973c-.256,1.284-.983,2.73-.329,3.938a1.68,1.68,0,0,0,1.666,1.035l14.9.27c.923.015,1.672.135.928-.406a34.249,34.249,0,0,0-6.09-3.332c-.254-.121-1.177-.7-1.51-.9a11.683,11.683,0,0,1-2.423-2.117c-1.216-1.339-6.565-12.252-6.565-12.252Z" transform="translate(-1026.357 -1573.616)"/><path class="f" d="M1175.59,1802.693a15.494,15.494,0,0,1-9.644-.375c-.478,1.339-1.111,3.019-.775,3.987.411,1.186,1,1.454,1.514,1.468,4.092.106,14.989.251,18.109.291a.5.5,0,0,0,.4-.829C1184.416,1806.322,1175.923,1802.895,1175.59,1802.693Z" transform="translate(-1049.686 -1655.154)"/><path class="j" d="M596.693,1319.9s-3.824,11.367,1.912,16.672,39.808,4.715,51.023,4.715c0,0,4.589,12.462,5.1,14.483S677.5,1383.89,677.5,1383.89l6.118-3.874s-23.961-46.142-25.831-48.163-28.549-10.1-35.177-11.957S596.693,1319.9,596.693,1319.9Z" transform="translate(-563.491 -1242.693)"/><g transform="translate(13.783 40.222)"><path class="k" d="M639.805,1322.049l-2.123-8.838a14.338,14.338,0,0,0-13.311-10.936l-26.892-1.087-.83-2.738,27.831,1.125a17.051,17.051,0,0,1,15.829,13l2.256,9.392C641.8,1322,640.87,1322.029,639.805,1322.049Z" transform="translate(-578.302 -1265.313)"/><path class="i" d="M496.824,1124.248s36.947.632,40.8,0,5.519,4.2,4.369,6.726-4.312,3.507-8.968,3.737-43.4,1.322-44.5.287c-.892-.845-12.639-41-16.913-55.69a5.539,5.539,0,0,1,3.764-6.863h0a5.544,5.544,0,0,1,6.867,3.711Z" transform="translate(-471.391 -1072.219)"/></g><path class="h" d="M673.469,1055.167l-20.249-4.877s-7.161-9.518-14.058-17.725c-2.122,2-3.343,5.107-5.479,7.083l15.175,17.341a2.979,2.979,0,0,0,2.171,1.013l21.559.513Z" transform="translate(-596.129 -998.151)"/><g transform="translate(76.103 55.988)"><path class="h" d="M911.869,1182.905c.212-.324-.32-.874-.72-1.287a18.106,18.106,0,0,0-3.578-1.743,25.036,25.036,0,0,0-5.856.893,5.339,5.339,0,0,1-2.48.286c-.392-.079-.981-.186-1.439-.28l-.937,3.455c3.51-.044,7.179.215,7.512.207,1.055-.026,2.986-1.12,3.434-1.281a3.176,3.176,0,0,1,1.966.25,7.821,7.821,0,0,0,2.684.8C912.753,1184.049,911.869,1182.905,911.869,1182.905Z" transform="translate(-896.859 -1179.854)"/></g><g transform="translate(72.076 33.801)"><path class="d" d="M934.717,1028.384H901.16a2.188,2.188,0,0,0-2.024,1.346L888.8,1054.7H870.3a.932.932,0,0,0-.937.928h0a.932.932,0,0,0,.937.927h52.653a3.677,3.677,0,0,0,3.353-2.151l10.4-22.967A2.17,2.17,0,0,0,934.717,1028.384Z" transform="translate(-869.367 -1028.384)"/><path class="b" d="M1170.982,1113.574a1.844,1.844,0,1,1-1.384-2.387A1.971,1.971,0,0,1,1170.982,1113.574Z" transform="translate(-1123.699 -1099.032)"/></g><rect class="k" width="175.126" height="2.726" transform="translate(0 61.9)"/><path class="h" d="M657.675,877.071c.438,1.246.078,2.507-.805,2.818s-1.954-.447-2.393-1.692-.078-2.507.805-2.818S657.237,875.826,657.675,877.071Z" transform="translate(-613.718 -863.929)"/><path class="j" d="M625.519,1021.537c-.678-1.1-9.99-12.078-11.69-14.08-3.455-4.091-7.522-8.266-9.385-7.776-3.558.935-5.1,6.892-3.023,10.448a31.236,31.236,0,0,0,4.9,5.448h0s13.564,14.811,15.073,14.838,25.645-.245,25.645-.245l.71-4.132S626.265,1022.748,625.519,1021.537Z" transform="translate(-567.795 -970.051)"/><path class="j" d="M653.157,992.844l-2.681,1.1,5.145,4.1-.726.612,6.777,3.839Z" transform="translate(-610.462 -964.248)"/><path class="j" d="M716.075,1000.362l2.089,1.114-1.045,1.009,1.319.4-.776,6.034Z" transform="translate(-666.453 -970.665)"/><path class="f" d="M708.392,1036.362a2.353,2.353,0,0,0,2.1-.242l.616,3.319Z" transform="translate(-659.895 -1001.186)"/><path class="d" d="M1498.25,1325.624h3.114l-6.709-88.054h-3.114Z" transform="translate(-1328.331 -1173.128)"/><path class="d" d="M1338.565,1325.624h-3.114l6.709-88.054h3.114Z" transform="translate(-1195.105 -1173.128)"/><path class="d" d="M546.025,1325.624h3.114l-6.709-88.054h-3.114Z" transform="translate(-515.584 -1173.128)"/><path class="d" d="M386.339,1325.624h-3.114l6.709-88.054h3.114Z" transform="translate(-382.357 -1173.128)"/></g><g transform="translate(246.566 208.338)"><path d="M897.876,522.187a6.64,6.64,0,0,1-1.751-.757,7.534,7.534,0,0,1-1.529-1.259l1.481-1.794a5.328,5.328,0,0,0,1.724,1.41,4.559,4.559,0,0,0,2.059.47,3.65,3.65,0,0,0,2.291-.6,2.183,2.183,0,0,0,.757-1.821v-.011a1.9,1.9,0,0,0-.367-1.232,2.242,2.242,0,0,0-.951-.681,8.685,8.685,0,0,0-1.491-.4.19.19,0,0,0-.059-.011.187.187,0,0,1-.06-.011l-.113-.021-.113-.022a14.472,14.472,0,0,1-2.345-.605,3.323,3.323,0,0,1-1.535-1.216,4.215,4.215,0,0,1-.638-2.5v-.011a5.4,5.4,0,0,1,.573-2.621,3.616,3.616,0,0,1,1.713-1.567,6.849,6.849,0,0,1,2.859-.524,7.222,7.222,0,0,1,1.5.157,7.485,7.485,0,0,1,1.464.476,9.5,9.5,0,0,1,1.437.794l-1.329,1.827a6.809,6.809,0,0,0-1.562-.805,4.572,4.572,0,0,0-1.508-.265,3.3,3.3,0,0,0-2.14.589,2.159,2.159,0,0,0-.713,1.767v.011a1.838,1.838,0,0,0,.411,1.27,2.424,2.424,0,0,0,1.032.676,15.653,15.653,0,0,0,1.7.454l.086.022.1.022.1.022.1.022a10.19,10.19,0,0,1,2.134.686,3.434,3.434,0,0,1,1.432,1.3,4.505,4.505,0,0,1,.573,2.443v.022a4.934,4.934,0,0,1-.594,2.534,3.639,3.639,0,0,1-1.778,1.513,7.623,7.623,0,0,1-2.967.5A7.546,7.546,0,0,1,897.876,522.187Zm1.086-17.536h2.2v2.464h-2.2Zm0,16.936h2.2v2.6h-2.2Z" transform="translate(-894.596 -504.651)"/></g></g></svg>