<svg xmlns="http://www.w3.org/2000/svg" width="383.91" height="272.804" viewBox="0 0 383.91 272.804"><defs><style>.a{fill:#cfddf9;}.b{fill:#d4e8ff;}.c{fill:#dce6ff;}.d{fill:#eef7ff;}.e{fill:#9358e0;}.f{fill:#fcb4b4;}.g{fill:#8a9edd;}.h{fill:#255084;}.i{fill:#1d3f70;}.j{fill:#fff;}.k{fill:#b0c7f5;}.l{fill:#677cc1;}.m{fill:#bfd2f9;}.n{fill:#eb5648;}.o{fill:#ce3932;}.p{fill:#f99370;}.q{fill:#e57d61;}.r{fill:#7640cc;}.s{fill:#8c4225;}.t{fill:#c16256;}.u{fill:#163356;}.v{fill:#306599;}.w{fill:#647dbc;}</style></defs><g transform="translate(-166.84 -194.782)"><g transform="translate(172.924 213.312)"><path class="a" d="M203.031,1612.958s-2.588,7.557,8.133,9.45c14.664,2.588,97.573,9.532,76.663,14.7-11.8,2.917,9.192,6.734,66.686,8.192s156.151-4.256,122.974-12.711,101.994-2.042,93.76-19.63Z" transform="translate(-202.757 -1391.252)"/><path class="b" d="M478.927,604.9S437.248,494.381,468.5,470.866c20.888-15.717,41.281,23.853,67.707,5.524,23.527-16.318,7.662-55.333,31.372-72.828,36.874-27.208,75.232,89.639,108.293,72.227,52.006-27.39,83.8,15.819,47.685,129.317Z" transform="translate(-413.831 -383.296)"/><path class="c" d="M319.534,517.074c-.729-2.019-1.45-4.112-2.144-6.219l1.709-.459c.689,2.094,1.405,4.172,2.13,6.178Zm305.746-2.608-1.769-.2c.294-2.15.573-4.314.829-6.434l1.772.175C625.854,510.137,625.574,512.309,625.279,514.466Zm-309.858-9.876c-.624-2.083-1.229-4.2-1.8-6.3l1.732-.384c.566,2.088,1.168,4.2,1.788,6.267Zm311.42-3.048-1.775-.152c.226-2.158.435-4.329.621-6.453l1.777.127C627.278,497.2,627.068,499.376,626.841,501.542Zm-314.848-9.6c-.515-2.122-1.005-4.267-1.456-6.377l1.751-.306c.449,2.1.936,4.229,1.448,6.337Zm315.983-3.364-1.78-.1c.151-2.157.284-4.332.393-6.466l1.781.075C628.261,484.23,628.128,486.414,627.976,488.58Zm-318.717-9.421c-.4-2.148-.764-4.314-1.091-6.437l1.766-.222c.325,2.109.69,4.261,1.084,6.394Zm319.384-3.57-1.782-.047c.07-2.166.118-4.344.143-6.473l1.783.017C628.761,471.224,628.713,473.412,628.643,475.588Zm-321.37-9.33c-.266-2.169-.5-4.351-.688-6.485l1.777-.13c.189,2.118.419,4.284.683,6.437ZM627.011,462.6c-.021-2.168-.067-4.345-.135-6.471l1.782-.047c.069,2.137.115,4.325.136,6.5Zm-320.893-9.323c-.118-2.182-.2-4.373-.233-6.512l1.783-.025c.036,2.121.114,4.294.231,6.458Zm320.471-3.613c-.122-2.165-.273-4.337-.447-6.457l1.778-.12c.175,2.132.327,4.317.45,6.494Zm-318.9-9.384-1.783-.033c.05-2.188.146-4.379.285-6.513l1.78.095C307.829,435.937,307.734,438.107,307.685,440.275Zm317.838-3.517c-.238-2.165-.508-4.327-.8-6.426l1.769-.2c.3,2.113.567,4.29.807,6.469Zm-316.991-9.369-1.774-.161c.242-2.18.537-4.358.878-6.475l1.764.232C309.064,423.078,308.772,425.233,308.532,427.389Zm315.191-3.458c-.371-2.151-.778-4.294-1.21-6.369l1.752-.3c.436,2.092.846,4.251,1.22,6.419ZM412.849,423.7c-2.478-.353-4.27-1.373-6.752-3.133l1.127-1.249c2.175,1.538,3.745,2.461,5.815,2.78Zm6.186-3.835-1.588-.733a23.811,23.811,0,0,0,2.145-5.959l1.742.344A24.891,24.891,0,0,1,419.035,419.868Zm-18.171-3.921c-1.42-1.43-2.938-3.075-4.64-5.031l1.4-1c1.678,1.928,3.172,3.547,4.566,4.951Zm-90.272-1.322-1.751-.307c.462-2.151.985-4.3,1.554-6.376l1.731.387C311.563,410.382,311.047,412.5,310.591,414.625Zm310.481-3.391c-.528-2.129-1.1-4.239-1.693-6.273l1.724-.412c.6,2.053,1.176,4.184,1.709,6.333Zm-198.539-4.2-1.768-.206c.274-1.924.519-4.031.75-6.441l1.776.139C423.058,402.958,422.81,405.087,422.533,407.033Zm-30.677-1.31c-1.449-1.769-2.953-3.64-4.248-5.254l1.443-.946c1.293,1.611,2.793,3.478,4.237,5.241Zm130.54-.132a8.113,8.113,0,0,1-4.049-1.115l.951-1.364a6.255,6.255,0,0,0,5.941.228l.767,1.455A9.121,9.121,0,0,1,522.4,405.59Zm-208.374-3.473-1.705-.471c.708-2.094,1.486-4.177,2.31-6.191l1.672.56C315.486,398,314.72,400.053,314.022,402.117Zm217.814-1.537-1.31-1.093a55.785,55.785,0,0,0,4.43-4.991l1.444.945A57.358,57.358,0,0,1,531.835,400.581Zm-18.559-1.108a48.583,48.583,0,0,1-3.5-5.793l1.612-.689a47.022,47.022,0,0,0,3.381,5.606Zm104.133-.714c-.718-2.089-1.485-4.144-2.278-6.11l1.675-.552c.8,1.991,1.579,4.071,2.306,6.184Zm-234.026-3.545c-1.631-2.015-2.991-3.67-4.278-5.207l1.421-.973c1.294,1.544,2.659,3.205,4.3,5.228Zm40.445-1.2-1.779-.1c.135-1.888.273-4.011.42-6.489l1.781.087C424.1,389.994,423.963,392.122,423.828,394.016Zm-104.856-3.968-1.631-.651q1.468-3.006,3.13-5.9l1.581.745Q320.415,387.086,318.971,390.048Zm221.514,0-1.49-.886c1.267-1.741,2.576-3.587,3.9-5.45l1.5.871C543.068,386.452,541.757,388.3,540.485,390.048Zm-33.575-2.384c-.808-1.831-1.642-3.829-2.551-6.108l1.677-.547c.9,2.262,1.73,4.243,2.53,6.058Zm105.6-1.005c-.959-2.019-1.973-3.979-3.014-5.828l1.589-.731c1.059,1.88,2.089,3.873,3.063,5.923ZM374.7,384.9c-1.618-1.815-3.124-3.431-4.6-4.94l1.334-1.07c1.5,1.528,3.023,3.163,4.659,5Zm49.918-3.892-1.781-.081c.12-2.153.24-4.308.367-6.5l1.781.084C424.86,376.7,424.74,378.856,424.62,381.008ZM548.3,379.139l-1.488-.889c1.49-2.038,2.822-3.8,4.074-5.389l1.452.935C551.1,375.37,549.783,377.117,548.3,379.139Zm-222.717-.455-1.5-.867a50.506,50.506,0,0,1,4.294-5.325l1.362,1.04A48.837,48.837,0,0,0,325.587,378.685Zm176.391-3.279c-.818-2.166-1.62-4.334-2.3-6.168l1.691-.51c.676,1.832,1.477,4,2.293,6.157ZM365.2,375.293a60.111,60.111,0,0,0-5.326-4.211l1.087-1.277a61.881,61.881,0,0,1,5.482,4.334Zm240.837-.069a65.96,65.96,0,0,0-3.982-5.3l1.422-.972a67.6,67.6,0,0,1,4.08,5.428Zm-271.29-6.076-1.081-1.281a21.965,21.965,0,0,1,6.587-3.147l.522,1.541A20.114,20.114,0,0,0,334.742,369.147Zm221.9-.493-1.385-1.015a65.628,65.628,0,0,1,4.844-4.906l1.261,1.139A64.073,64.073,0,0,0,556.644,368.654Zm-131.257-.634-1.78-.1c.155-2.343.308-4.47.469-6.5l1.778.115C425.693,363.563,425.54,365.684,425.386,368.02Zm-71.412-.337a22.781,22.781,0,0,0-6.5-1.9l.242-1.6a24.694,24.694,0,0,1,7.057,2.053Zm243.489-2.605a41.059,41.059,0,0,0-5.283-4.171l1.05-1.3a42.817,42.817,0,0,1,5.509,4.348ZM497.407,363.07c-.887-2.4-1.618-4.354-2.3-6.154l1.687-.523c.684,1.8,1.416,3.763,2.3,6.165Zm69.293-3.312-1.022-1.321a26.235,26.235,0,0,1,6.583-3.053l.551,1.533A24.4,24.4,0,0,0,566.7,359.758Zm19.455-1.974a24.455,24.455,0,0,0-6.644-1.549l.166-1.6a26.386,26.386,0,0,1,7.171,1.669Zm-159.731-2.719-1.776-.143c.222-2.261.464-4.446.719-6.491l1.772.18C426.885,350.643,426.645,352.815,426.424,355.064Zm66.31-4.278c-.862-2.174-1.673-4.161-2.482-6.075l1.666-.575c.813,1.925,1.629,3.922,2.5,6.107Zm-64.688-8.6-1.765-.231c.361-2.257.757-4.427,1.178-6.451l1.752.3C428.8,337.8,428.4,339.949,428.046,342.183Zm59.557-3.491c-.958-2.083-1.924-4.076-2.87-5.924l1.618-.677c.957,1.867,1.932,3.88,2.9,5.983Zm-56.877-9.2L429,329.1c.622-2.251,1.308-4.371,2.038-6.3l1.687.521C432.007,325.21,431.336,327.286,430.726,329.492Zm50.84-2.509c-1.173-2-2.371-3.871-3.561-5.571l1.507-.862c1.214,1.734,2.435,3.644,3.629,5.677ZM435.4,317.417l-1.6-.713a31.725,31.725,0,0,1,3.859-5.636l1.4,1A30.118,30.118,0,0,0,435.4,317.417Zm38.52-1.232a41.314,41.314,0,0,0-4.78-4.649l1.2-1.2a43.012,43.012,0,0,1,4.977,4.839Zm-29.885-8.3-.961-1.358a18.962,18.962,0,0,1,6.917-2.362l.271,1.593A17.071,17.071,0,0,0,444.034,307.887Zm19.48,0a23.047,23.047,0,0,0-6.431-2.057l.313-1.587a24.959,24.959,0,0,1,6.964,2.225Z" transform="translate(-288.415 -304.168)"/><path class="d" d="M552.674,1003.026c-14.8-2.061-13.457,28.912-34.548,28.912-19.283,0-29.6-69.2-50.763-55.126-85.071,56.582-18.88-39.7-76.083-41.584-25.866-.851-43.1,25.067-49.457,70.954-9.213,41.484-30.58-31.641-52.568-24.842-13.975,4.321-12.375,50.6-31.658,50.6-21.091,0-19.7-26.045-34.5-23.984-15.931,2.219-19.525,42.6-19.525,42.6H572.135S568.6,1005.245,552.674,1003.026Z" transform="translate(-203.436 -828.311)"/><path class="c" d="M610.182,1289.88c-13.612-.88-11.391,7.071-30.794,7.071-17.74,0-17.253-17.819-29.124-21.606-21.862-6.974-39.886,28.322-48.362,10.608-16.1-47-63.049-70.576-84.709,0-8.476,17.714-28.3-13.894-48.362-10.608-12.351,2.023-11.384,21.606-29.124,21.606-19.4,0-17.182-7.951-30.794-7.071-14.656.948-19.033,15.02-19.033,15.02H629.215S624.838,1290.828,610.182,1289.88Z" transform="translate(-275.121 -1082.656)"/></g><path class="e" d="M1444.812,305.583a208.1,208.1,0,0,0-4.705-44.119c-.612,1.857-6.084,7.23-7.267,6.083-1.311-1.3,5.2-7.95,6.9-7.754q-.293-1.316-.6-2.6c-.658,1.757-7.267,6.6-8.334,5.24-1.095-1.49,6.353-7.053,8.01-6.6q-.393-1.621-.8-3.193c-.772,1.752-7.2,6.423-8.238,5.081-1.062-1.48,6.1-6.848,7.84-6.6-.278-1.045-.558-2.078-.842-3.088-.532,1.677-8.457,5.82-9.331,4.223-.862-1.651,7.561-6.037,9.049-5.213-.279-.975-.56-1.936-.843-2.875-.818,1.647-8.307,5.507-9.161,3.964-.807-1.627,7.068-5.759,8.765-5.262q-.519-1.688-1.042-3.295c-.869,1.64-8.273,5.441-9.119,3.909-.8-1.614,6.931-5.684,8.673-5.266-.274-.823-.547-1.624-.819-2.412-.969,1.522-9.2,4.166-9.791,2.478-.508-1.709,7.641-4.4,9.342-3.763-.4-1.119-.775-2.172-1.172-3.239-1.1,1.483-9.1,4.023-9.678,2.364-.5-1.671,7.347-4.3,9.142-3.79q-.462-1.216-.922-2.385c-1.015,1.407-10.1,2.311-10.3.487-.129-1.754,8.209-2.637,9.813-1.721q-.576-1.435-1.144-2.792c-1.073,1.38-10.056,2.269-10.267.453-.13-1.734,8.06-2.621,9.718-1.754q-.62-1.453-1.222-2.808c-1.585,1.088-9.457,1.741-9.645.065-.2-1.526,6.829-2.494,8.786-1.969q-.6-1.319-1.179-2.529c-1.516,1.008-10.034.348-9.947-1.428.072-1.552,7.233-1.287,9.056-.421q-.536-1.1-1.035-2.08c-1.247,1.184-10.426-.086-10.187-1.917.222-1.609,7.7-.752,9.365.314-.517-.994-.991-1.88-1.415-2.656-1.452,1.019-10.208-.218-9.995-2.016.154-1.517,7.147-.828,8.941.128-.394-.691-.7-1.206-.9-1.539-1.757-.537-6.775-7.322-5.388-8.414.658-.493,2.622,1.016,4.386,3.371,2.141,2.731,1.717,3.824,3.118,6-.175-2.034,1.833-8.659,3.269-8.217,1.8.465-.557,9.632-2.159,10.209.393.721.827,1.534,1.3,2.434.139-1.993,3.635-8.438,5.038-7.7,1.625.851-2.47,8.979-4.149,9.435q.587,1.161,1.226,2.474c.327-1.976,4.35-8.054,5.676-7.2,1.519.985-3.109,8.51-4.821,8.983q.574,1.215,1.176,2.537c.459-1.934,5.074-7.737,6.343-6.762,1.414,1.114-3.815,8.121-5.567,8.489q.546,1.232,1.108,2.545c.576-1.856,6.1-7.3,7.3-6.146,1.261,1.29-4.856,7.583-6.638,7.7q.5,1.2,1.01,2.463c.636-1.758,7.277-6.637,8.349-5.268,1.058,1.478-6.068,6.825-7.819,6.6q.52,1.318,1.044,2.7c.541-1.757,7.32-6.769,8.411-5.382,1.083,1.487-6.267,6.984-7.954,6.6.375,1,.731,1.991,1.1,3.038.658-1.757,7.267-6.605,8.334-5.241,1.064,1.482-6.122,6.868-7.857,6.6q.385,1.109.772,2.265c.991-1.617,8.185-5.271,9.007-3.767.78,1.588-6.7,5.557-8.511,5.271.3.931.608,1.878.911,2.851.888-1.637,8.26-5.416,9.1-3.889.8,1.615-6.94,5.689-8.679,5.266q.452,1.484.9,3.029c.706-1.662,8.372-5.639,9.237-4.074.83,1.641-7.293,5.885-8.9,5.243.268.948.533,1.916.8,2.9.99-1.55,8.852-4.584,9.535-2.958.617,1.688-7.481,4.9-9.176,4.306.276,1.054.546,2.129.813,3.216.677-1.616,9.049-4.905,9.747-3.219.665,1.73-8.045,5.137-9.5,4.232q.413,1.716.808,3.489c.958-1.486,9.6-3.548,10.056-1.793.386,1.777-8.282,3.863-9.8,2.959a209.656,209.656,0,0,1,4.891,45.133Z" transform="translate(-1032.796)"/><path class="f" d="M1516.076,336.185a231.053,231.053,0,0,0,27.642-40.777c-1.85,1.136-10.341,1.768-10.522-.053-.177-2.046,10.1-3.015,11.41-1.626q.695-1.325,1.361-2.633c-1.818,1.018-10.9.39-10.822-1.532.14-2.048,10.442-1.424,11.522.148q.83-1.656,1.613-3.279c-1.911.932-10.711.281-10.627-1.6.161-2.016,10.079-1.434,11.379.025q.771-1.628,1.5-3.221c-1.653,1.041-11.342-1.129-10.939-3.11.453-2.018,10.738.3,11.409,2.068q.694-1.54,1.347-3.042c-1.875.81-10.991-1.287-10.609-3.207.482-1.958,10.121.185,11.2,1.823q.77-1.8,1.479-3.54c-1.913.767-10.914-1.319-10.533-3.223.482-1.939,9.951.15,11.129,1.754.358-.894.7-1.768,1.034-2.632-1.913.6-10.785-3.063-10.077-4.919.8-1.813,9.63,1.75,10.618,3.508.466-1.232.9-2.4,1.327-3.586-1.994.469-10.595-3.111-9.9-4.935.775-1.775,9.309,1.624,10.468,3.341q.48-1.363.926-2.683c-1.871.464-10.216-5.28-9.083-6.974,1.148-1.579,8.847,3.648,9.552,5.575q.54-1.628,1.032-3.186c-1.9.4-10.151-5.286-9.029-6.977,1.133-1.564,8.711,3.556,9.5,5.48q.516-1.676.977-3.256c-11.593-4.385-10.3-12.36.637-2.23q.434-1.55.814-2.989c-2.008-.233-8.756-6.9-7.409-8.343,1.173-1.264,7.053,4.093,7.979,6.135q.331-1.312.614-2.5c-1.906.109-8.777-7.548-7.261-8.929,1.341-1.2,7.067,4.883,7.714,6.98.274-1.212.508-2.305.7-3.265-1.962-.178-8.5-7.5-7.028-8.875,1.218-1.176,6.652,4.422,7.488,6.519.161-.872.271-1.525.34-1.95-1.1-1.715-.494-11.065,1.465-11,.912.054,1.495,2.741,1.3,6-.143,3.85-1.286,4.473-1.659,7.324,1.31-1.85,7.762-6.027,8.662-4.623,1.195,1.686-7.379,7.767-9.15,7.107q-.276,1.341-.647,2.993c1.547-1.59,9.132-4.549,9.794-2.918.768,1.886-8.533,5.842-10.283,5.024-.224.939-.466,1.929-.734,2.977,1.694-1.441,9.463-3.709,9.974-2.035.581,1.924-8.739,4.987-10.529,4.159q-.384,1.443-.821,3c1.775-1.311,9.849-2.923,10.227-1.186.4,1.959-9.057,4.149-10.806,3.205q-.42,1.436-.886,2.952c1.819-1.161,10.4-1.817,10.592.019.145,2-9.555,2.947-11.15,1.771q-.436,1.377-.911,2.813c1.8-1.035,10.929-.41,10.857,1.519-.162,2.012-10.04,1.436-11.36-.013-.336,1-.683,2-1.047,3.035,1.718-1.1,11.06-.491,10.99,1.467-.148,2.038-10.323,1.428-11.476-.108-.4,1.12-.807,2.213-1.242,3.367,1.818-1.018,10.9-.39,10.823,1.532-.16,2.019-10.114,1.433-11.394-.037q-.469,1.217-.969,2.474c2-.66,10.719,1.4,10.338,3.264-.478,1.906-9.663-.092-10.994-1.634-.41,1.008-.831,2.029-1.271,3.07,1.926-.751,10.886,1.33,10.505,3.229-.482,1.94-9.962-.153-11.134-1.758q-.681,1.582-1.411,3.211c1.79-.9,11.14,1.221,10.752,3.169-.473,1.986-10.4-.239-11.306-1.937q-.679,1.494-1.4,3.025c1.95-.6,10.791,2.46,10.2,4.328-.687,1.873-9.854-1.212-10.867-2.928q-.783,1.636-1.616,3.31c1.733-.884,11.188,2.329,10.571,4.259-.676,1.944-10.5-1.413-11.087-3.222q-.88,1.751-1.816,3.537c1.878-.573,10.68,3.873,9.811,5.69-.946,1.783-9.791-2.662-10.427-4.515a232.78,232.78,0,0,1-28.211,41.77Z" transform="translate(-1120.678 -20.505)"/><path class="g" d="M1989.541,604.747a52.2,52.2,0,0,1,2.15,10.35q1.93-3.427,3.7-6.321c-1.753-1.564-5.159-23.095-3.054-23.523,1.994-.058,4.717,18.212,4.22,21.643,1.353-2.152,2.63-4.075,3.823-5.789-1.738-.9-.669-24.3,1.479-24.05.916.047,1.382,5.5,1.04,12.184a55.5,55.5,0,0,1-1.277,10.116c1.606-2.222,3.043-4.043,4.294-5.522-1.577-1.135,3.977-24.029,6.03-23.345,1.838.669-2.5,18.195-4.245,21.317,3.684-3.782,4.513-5.357,11.07-10.075,12.737-9.22,14.724-6.47,1.941,2.7-6.232,4.833-8.444,3.976-12.574,8.936,2.887-1.411,22.075-3.433,22.529-1.431.169,2.148-22.063,4.233-23.713,2.8-1.307,1.548-2.825,3.476-4.534,5.857,2.632-1.227,22.847-1.177,23.068.915-.081,2.152-22.322,1.79-23.856.2-1.238,1.765-2.566,3.755-3.978,6,2.943-1.117,22.439-1.037,22.674,1.016-.209,2.128-21.4,1.776-23.524.349-1.249,2.024-2.558,4.236-3.925,6.657,2.952-1.113,22.426-1.032,22.66,1.019-.227,2.121-21.208,1.775-23.443.38q-1.684,3.033-3.474,6.486c2.753-1.185,22.7-1.125,22.927.953-.191,2.133-21.549,1.778-23.584.325-1.1,2.193-2.294,4.373-3.549,6.381,2.732-.843,22.832,2.285,22.726,4.391-.492,2.088-21.744-1.532-23.424-3.291a62.84,62.84,0,0,1-4.527,6.158c2.112-1.024,23.315,4.066,22.906,6.175-.4,2.125-23.03-3.625-23.436-5.548a52.04,52.04,0,0,1-6.666,6.508c2.807-.152,21.539,8.123,20.884,10.133-.969,1.92-20.958-7.256-21.871-9.353a44.874,44.874,0,0,1-8.018,4.948c2.864.438,19.65,11.734,18.669,13.6-1.292,1.719-19.351-10.805-19.893-13.034-7.438,3.267-12.947,3.126-13.184,3.118l.044-1.339a32.285,32.285,0,0,0,12.4-2.92c-1.941-1.995-7.849-21.685-5.891-22.49,2.077-.334,7.6,19,7.156,21.917a43.254,43.254,0,0,0,7.76-4.772c-2.021-.912-10-21.65-8-22.461,2.06-.576,9.383,19.349,8.805,21.831a51.444,51.444,0,0,0,6.6-6.364c-2.086-.738-11.707-20.783-9.782-21.75,2.01-.7,10.751,18.22,10.514,20.893a61.176,61.176,0,0,0,4.321-5.848c-1.971-.063-12.017-21.079-10.013-21.891,2.006-.747,10.935,18.593,10.531,21.082,1.193-1.883,2.378-3.971,3.482-6.164-2.194-1.429-11.291-20.379-9.451-21.456,1.927-.622,9.9,16.441,10.311,19.778q1.792-3.468,3.478-6.51c-1.946-1.013-8.36-22.369-6.3-23.016C1985.427,593.328,1987.663,598.325,1989.541,604.747Z" transform="translate(-1479.923 -312.051)"/><path class="f" d="M213.828,880.376a52.222,52.222,0,0,0,1.389,10.479q-2.953-2.6-5.584-4.743c1.138-2.055-2.757-23.5-4.885-23.212-1.9.6,1.562,18.748,3.164,21.822-1.988-1.584-3.828-2.978-5.521-4.2,1.344-1.419-7.395-23.162-9.338-22.212-.849.347.513,5.649,3.042,11.844a55.5,55.5,0,0,0,4.546,9.127c-2.25-1.567-4.208-2.811-5.877-3.795,1.114-1.592-11.689-21.368-13.4-20.044-1.514,1.239,8.366,16.349,11.046,18.719-4.726-2.354-6.029-3.566-13.776-5.854-15.067-4.5-16.035-1.244-.943,3.185,7.478,2.5,9.284.964,14.819,4.282-3.19-.378-21.97,4.05-21.738,6.09.55,2.083,22.223-3.291,23.307-5.19,1.745,1.03,3.815,2.348,6.214,4.031-2.89-.289-21.954,6.434-21.472,8.482.787,2,21.661-5.682,22.583-7.692,1.751,1.257,3.662,2.7,5.735,4.347-3.147-.082-21.523,6.432-21.066,8.447.9,1.94,20.784-5.39,22.32-7.439,1.847,1.5,3.814,3.154,5.9,4.988-3.154-.076-21.509,6.432-21.052,8.445.915,1.927,20.6-5.328,22.253-7.383q2.591,2.307,5.421,4.975c-2.99-.209-21.8,6.434-21.326,8.471.885,1.95,20.927-5.438,22.368-7.482,1.762,1.706,3.609,3.37,5.457,4.851-2.858.107-20.8,9.7-20,11.65,1.154,1.808,20.018-8.627,21.023-10.843a62.85,62.85,0,0,0,6.307,4.317c-2.332-.269-20.665,11.538-19.581,13.393,1.077,1.875,20.541-11.027,20.289-12.976a52.022,52.022,0,0,0,8.441,3.941c-2.7.783-17.648,14.78-16.366,16.461,1.549,1.492,17.386-13.77,17.555-16.052a44.871,44.871,0,0,0,9.2,2.023c-2.559,1.359-14.673,17.565-13.132,19,1.788,1.2,14.7-16.589,14.472-18.872,8.1.628,13.253-1.324,13.474-1.41l-.484-1.249a32.294,32.294,0,0,1-12.669,1.339c1.173-2.524.247-23.061-1.867-23.174-2.071.37-.893,20.446.484,23.051a43.245,43.245,0,0,1-8.9-1.942c1.607-1.529,2.286-23.737.135-23.843-2.135.136-2.466,21.362-1.1,23.514a51.446,51.446,0,0,1-8.331-3.827c1.726-1.385,4.187-23.483,2.051-23.76-2.129,0-4.131,20.748-3.024,23.193a61.156,61.156,0,0,1-6.01-4.093c1.84-.71,4.382-23.865,2.222-23.969-2.14-.043-4.181,21.161-2.978,23.377-1.748-1.383-3.555-2.963-5.323-4.668,1.6-2.073,3.928-22.964,1.836-23.373-2.025.05-3.918,18.789-3.2,22.074q-2.836-2.682-5.432-5c1.5-1.6.5-23.875-1.65-23.807C213.94,868.239,213.479,873.694,213.828,880.376Z" transform="translate(0 -548.692)"/><path class="g" d="M327.953,436.635c-.709-1.355,11.387-9.607,13.476-9.949a32.461,32.461,0,0,1-5.83-3.561c-.62,1.518-15.128,8.292-15.827,6.9-.475-1.461,13.083-7.554,15.119-7.45a38.467,38.467,0,0,1-4.877-4.7c-.241,1.4-16.7,5.688-16.98,4.144-.3-1.529,15.082-5.329,16.6-4.583a45.327,45.327,0,0,1-3.33-4.449c-1.2,1.282-16.62,4.012-16.975,2.5-.072-1.53,14.464-3.887,16.464-3.292-.892-1.4-1.79-3.012-2.605-4.612-1.456,1.064-16.971,1.422-17.107-.125.171-1.509,14.607-1.644,16.625-.8q-1.313-2.5-2.55-4.688c-1.6,1.023-16.844,1.372-17.005-.165.175-1.489,14.269-1.638,16.431-.846-1-1.749-1.963-3.348-2.878-4.81-1.521,1.046-16.915,1.4-17.064-.143.175-1.49,14.285-1.639,16.441-.843-1.035-1.62-2.008-3.057-2.914-4.331-1.1,1.163-17.245,1.53-17.3-.031.165-1.519,14.8-1.649,16.728-.772-1.251-1.719-2.361-3.11-3.316-4.227-1.181,1.05-17.333-.36-17.213-1.918.335-1.453,14.231-.078,16.348.932-3.013-3.574-4.625-2.95-9.162-6.423-9.312-6.585-7.889-8.593,1.4-1.964,4.784,3.4,5.379,4.523,8.077,7.255-1.28-2.243-4.512-14.96-3.179-15.441,1.486-.5,5.621,16.072,4.483,16.9.914,1.067,1.965,2.381,3.14,3.985-.895-2.254-1.72-15.916-.276-16.173,1.557-.192,2.442,16.776,1.186,17.436.874,1.238,1.809,2.627,2.8,4.181-.379-2.472,1.515-15.763,2.959-15.717,1.527.312-.839,15.921-2.1,17.076q1.3,2.1,2.716,4.567c-.2-2.286,3.6-15.867,5.08-15.636,1.49.469-3.055,15.969-4.465,16.723q1.237,2.2,2.553,4.705c.273-2.409,5.991-14.848,7.386-14.394,1.334.784-5.164,14.545-6.754,15.606.812,1.586,1.681,3.094,2.555,4.454-.311-1.792,6.086-15.884,7.539-15.34,1.455.583-5.729,15.866-7.16,15.925a44.38,44.38,0,0,0,3.161,4.221c-.191-1.925,6.073-15.717,7.528-15.2,1.4.7-5.479,15.267-6.993,15.821a37.33,37.33,0,0,0,4.817,4.585c-.436-1.784,4.792-16.3,6.284-15.875,1.447.587-4.233,15.648-5.7,16.329a31.372,31.372,0,0,0,5.651,3.425c-.338-2.1,3.583-16.177,5.087-15.93,1.42.588-2.765,14.869-4.167,16.34a23.427,23.427,0,0,0,9.008,2.059l.038.971a23.945,23.945,0,0,1-9.577-2.2C341.946,428.7,328.891,437.882,327.953,436.635Z" transform="translate(-104.01 -144.068)"/><g transform="translate(230.181 247.463)"><rect class="h" width="38.75" height="36.193" transform="translate(107.794 154.801)"/><rect class="i" width="38.75" height="43.448" transform="translate(107.794 132.35)"/><rect class="h" width="169.55" height="254.339" rx="64.768" transform="translate(254.339 0) rotate(90)"/><rect class="j" width="234.421" height="137.793" transform="translate(9.959 9.959)"/><circle class="i" cx="5.818" cy="5.818" r="5.818" transform="translate(118.942 158.794) rotate(-45)"/><rect class="i" width="85.049" height="9.408" rx="4.704" transform="translate(84.645 190.994)"/></g><g transform="translate(391.431 265.328)"><rect class="k" width="43.436" height="25.973" transform="translate(0)"/><rect class="k" width="43.436" height="25.973" transform="translate(0 95.849)"/><rect class="k" width="43.436" height="25.973" transform="translate(0 63.899)"/><rect class="k" width="43.436" height="25.973" transform="translate(0 31.95)"/><circle class="j" cx="7.541" cy="7.541" r="7.541" transform="translate(11.054 12.987) rotate(-45)"/><path class="l" d="M1580.213,655.534a8.291,8.291,0,1,1,8.291-8.291A8.3,8.3,0,0,1,1580.213,655.534Zm0-15.081a6.79,6.79,0,1,0,6.79,6.79A6.8,6.8,0,0,0,1580.213,640.453Z" transform="translate(-1558.495 -634.256)"/><path class="l" d="M1612.377,667.861l-7.077-4.086v8.172Z" transform="translate(-1586.219 -654.875)"/><circle class="j" cx="7.54" cy="7.54" r="7.54" transform="matrix(0.23, -0.973, 0.973, 0.23, 12.647, 50.889)"/><path class="l" d="M1580.213,846.185a8.291,8.291,0,1,1,8.291-8.291A8.3,8.3,0,0,1,1580.213,846.185Zm0-15.081a6.79,6.79,0,1,0,6.79,6.79A6.8,6.8,0,0,0,1580.213,831.1Z" transform="translate(-1558.495 -792.612)"/><path class="l" d="M1612.377,858.511l-7.077-4.086V862.6Z" transform="translate(-1586.219 -813.229)"/><circle class="j" cx="7.54" cy="7.54" r="7.54" transform="matrix(0.23, -0.973, 0.973, 0.23, 12.647, 82.492)"/><path class="l" d="M1580.213,1032.748a8.291,8.291,0,1,1,8.291-8.291A8.3,8.3,0,0,1,1580.213,1032.748Zm0-15.081a6.79,6.79,0,1,0,6.79,6.79A6.8,6.8,0,0,0,1580.213,1017.667Z" transform="translate(-1558.495 -947.571)"/><path class="l" d="M1612.377,1045.075l-7.077-4.086v8.172Z" transform="translate(-1586.219 -968.189)"/><circle class="j" cx="7.54" cy="7.54" r="7.54" transform="translate(14.177 101.295)"/><path class="l" d="M1580.213,1221.355a8.291,8.291,0,1,1,8.291-8.291A8.3,8.3,0,0,1,1580.213,1221.355Zm0-15.081a6.79,6.79,0,1,0,6.79,6.79A6.8,6.8,0,0,0,1580.213,1206.274Z" transform="translate(-1558.495 -1104.229)"/><path class="l" d="M1612.377,1233.682l-7.077-4.086v8.172Z" transform="translate(-1586.219 -1124.847)"/><path class="m" d="M1783.95,636.108h-10.792a.789.789,0,1,1,0-1.579h10.792a.789.789,0,1,1,0,1.579Z" transform="translate(-1724.987 -630.583)"/><path class="m" d="M1834.327,709.169h-7.456a.789.789,0,0,1,0-1.579h7.456a.789.789,0,1,1,0,1.579Z" transform="translate(-1769.601 -691.267)"/><path class="m" d="M1779.113,709.169h-5.955a.789.789,0,1,1,0-1.579h5.955a.789.789,0,1,1,0,1.579Z" transform="translate(-1724.987 -691.267)"/><path class="m" d="M1790.8,684.815h-17.643a.789.789,0,1,1,0-1.578H1790.8a.789.789,0,1,1,0,1.578Z" transform="translate(-1724.987 -671.04)"/><path class="m" d="M1873.686,636.108H1857.8a.789.789,0,1,1,0-1.579h15.885a.789.789,0,1,1,0,1.579Z" transform="translate(-1795.291 -630.583)"/><path class="m" d="M1803.381,733.522h-30.223a.789.789,0,1,1,0-1.578h30.223a.789.789,0,1,1,0,1.578Z" transform="translate(-1724.987 -711.496)"/><path class="m" d="M1903.824,709.169h-9.738a.789.789,0,0,1,0-1.579h9.738a.789.789,0,0,1,0,1.579Z" transform="translate(-1825.43 -691.267)"/><path class="m" d="M1908.072,684.815H1899.2a.789.789,0,0,1,0-1.578h8.872a.789.789,0,1,1,0,1.578Z" transform="translate(-1829.677 -671.04)"/><path class="m" d="M1803.381,660.462h-30.223a.789.789,0,1,1,0-1.579h30.223a.789.789,0,1,1,0,1.579Z" transform="translate(-1724.987 -650.811)"/><path class="m" d="M1898.658,922.129h-10.792a.789.789,0,0,1,0-1.578h10.792a.789.789,0,1,1,0,1.578Z" transform="translate(-1820.264 -868.153)"/><path class="m" d="M1861.3,849.069h-7.456a.789.789,0,0,1,0-1.579h7.456a.789.789,0,1,1,0,1.579Z" transform="translate(-1792.005 -807.469)"/><path class="m" d="M1922.372,849.069h-5.955a.789.789,0,1,1,0-1.579h5.955a.789.789,0,1,1,0,1.579Z" transform="translate(-1843.978 -807.469)"/><path class="m" d="M1865.063,873.422h-17.643a.789.789,0,1,1,0-1.578h17.643a.789.789,0,1,1,0,1.578Z" transform="translate(-1786.668 -827.697)"/><path class="m" d="M1789.043,922.129h-15.885a.789.789,0,1,1,0-1.578h15.885a.789.789,0,0,1,0,1.578Z" transform="translate(-1724.987 -868.153)"/><path class="m" d="M1803.381,824.715h-30.223a.789.789,0,1,1,0-1.579h30.223a.789.789,0,1,1,0,1.579Z" transform="translate(-1724.987 -787.24)"/><path class="m" d="M1782.9,849.069h-9.738a.789.789,0,1,1,0-1.579h9.738a.789.789,0,1,1,0,1.579Z" transform="translate(-1724.987 -807.469)"/><path class="m" d="M1782.03,873.422h-8.872a.789.789,0,1,1,0-1.578h8.872a.789.789,0,0,1,0,1.578Z" transform="translate(-1724.987 -827.697)"/><path class="m" d="M1803.381,897.776h-30.223a.789.789,0,1,1,0-1.579h30.223a.789.789,0,1,1,0,1.579Z" transform="translate(-1724.987 -847.925)"/><path class="m" d="M1898.658,1013.323h-10.792a.789.789,0,0,1,0-1.578h10.792a.789.789,0,1,1,0,1.578Z" transform="translate(-1820.264 -943.898)"/><path class="m" d="M1861.3,1086.383h-7.456a.789.789,0,0,1,0-1.578h7.456a.789.789,0,1,1,0,1.578Z" transform="translate(-1792.005 -1004.583)"/><path class="m" d="M1922.372,1086.383h-5.955a.789.789,0,1,1,0-1.578h5.955a.789.789,0,1,1,0,1.578Z" transform="translate(-1843.978 -1004.583)"/><path class="m" d="M1865.063,1062.029h-17.643a.789.789,0,1,1,0-1.578h17.643a.789.789,0,1,1,0,1.578Z" transform="translate(-1786.668 -984.354)"/><path class="m" d="M1789.043,1013.323h-15.885a.789.789,0,1,1,0-1.578h15.885a.789.789,0,0,1,0,1.578Z" transform="translate(-1724.987 -943.898)"/><path class="m" d="M1803.381,1110.736h-30.223a.789.789,0,1,1,0-1.578h30.223a.789.789,0,1,1,0,1.578Z" transform="translate(-1724.987 -1024.811)"/><path class="m" d="M1782.9,1086.383h-9.738a.789.789,0,1,1,0-1.578h9.738a.789.789,0,1,1,0,1.578Z" transform="translate(-1724.987 -1004.583)"/><path class="m" d="M1782.03,1062.029h-8.872a.789.789,0,1,1,0-1.578h8.872a.789.789,0,0,1,0,1.578Z" transform="translate(-1724.987 -984.354)"/><path class="m" d="M1803.381,1037.675h-30.223a.789.789,0,1,1,0-1.578h30.223a.789.789,0,1,1,0,1.578Z" transform="translate(-1724.987 -964.126)"/><path class="m" d="M1783.95,1299.344h-10.792a.789.789,0,1,1,0-1.578h10.792a.789.789,0,1,1,0,1.578Z" transform="translate(-1724.987 -1181.468)"/><path class="m" d="M1834.327,1226.282h-7.456a.789.789,0,1,1,0-1.578h7.456a.789.789,0,1,1,0,1.578Z" transform="translate(-1769.601 -1120.783)"/><path class="m" d="M1779.113,1226.282h-5.955a.789.789,0,1,1,0-1.578h5.955a.789.789,0,1,1,0,1.578Z" transform="translate(-1724.987 -1120.783)"/><path class="m" d="M1790.8,1250.636h-17.643a.789.789,0,1,1,0-1.578H1790.8a.789.789,0,1,1,0,1.578Z" transform="translate(-1724.987 -1141.012)"/><path class="m" d="M1873.686,1299.344H1857.8a.789.789,0,1,1,0-1.578h15.885a.789.789,0,1,1,0,1.578Z" transform="translate(-1795.291 -1181.468)"/><path class="m" d="M1803.381,1201.929h-30.223a.789.789,0,1,1,0-1.578h30.223a.789.789,0,1,1,0,1.578Z" transform="translate(-1724.987 -1100.556)"/><path class="m" d="M1903.824,1226.282h-9.738a.789.789,0,1,1,0-1.578h9.738a.789.789,0,1,1,0,1.578Z" transform="translate(-1825.43 -1120.783)"/><path class="m" d="M1908.072,1250.636H1899.2a.789.789,0,0,1,0-1.578h8.872a.789.789,0,1,1,0,1.578Z" transform="translate(-1829.677 -1141.012)"/><path class="m" d="M1803.381,1274.99h-30.223a.789.789,0,1,1,0-1.578h30.223a.789.789,0,1,1,0,1.578Z" transform="translate(-1724.987 -1161.24)"/></g><g transform="translate(244.624 367.804)"><circle class="f" cx="9.615" cy="9.615" r="9.615" transform="translate(0 9.924) rotate(-31.068)"/><rect class="f" width="31.174" height="11.077" rx="5.539" transform="translate(108.535 7.009)"/><path class="m" d="M1087.328,1252.881h-24.74a.789.789,0,1,1,0-1.578h24.74a.789.789,0,1,1,0,1.578Z" transform="translate(-987.978 -1245.353)"/><path class="m" d="M849.708,1252.881H812.7a.789.789,0,0,1,0-1.578h37.012a.789.789,0,1,1,0,1.578Z" transform="translate(-780.418 -1245.353)"/><path class="m" d="M1029.515,1329.127h-36.53a.789.789,0,1,1,0-1.578h36.53a.789.789,0,0,1,0,1.578Z" transform="translate(-930.165 -1308.682)"/><path class="m" d="M836.217,1329.127H812.7a.789.789,0,0,1,0-1.578h23.521a.789.789,0,1,1,0,1.578Z" transform="translate(-780.418 -1308.682)"/><path class="m" d="M873.769,1291H812.7a.789.789,0,0,1,0-1.579h61.073a.789.789,0,0,1,0,1.579Z" transform="translate(-780.418 -1277.017)"/><g transform="translate(113.787 9.178)"><path class="j" d="M1298.327,1270.935c1.066-1.039,2.492-.566,3.319.508.872-1.079,2.224-1.531,3.322-.482,1.038,1.064.566,2.491-.507,3.319l-2.838,2.815-2.815-2.837C1297.727,1273.376,1297.276,1272.045,1298.327,1270.935Z" transform="translate(-1297.731 -1270.355)"/></g></g><rect class="k" width="136.127" height="98.101" transform="translate(248.206 265.328)"/><g transform="translate(248.206 355.197)"><rect class="h" width="136.127" height="11.445" transform="translate(0 0)"/><path class="m" d="M1217.88,1172.456h-37.2a.789.789,0,0,1,0-1.579h37.2a.789.789,0,1,1,0,1.579Z" transform="translate(-1089.645 -1165.944)"/><path class="n" d="M796.248,1172.456h-78.4a.789.789,0,0,1,0-1.579h78.4a.789.789,0,1,1,0,1.579Z" transform="translate(-705.217 -1165.944)"/><circle class="l" cx="2.527" cy="2.527" r="2.527" transform="translate(88.504 3.195)"/><path class="m" d="M671.252,1162.443a.789.789,0,0,1-.789-.789v-5.13a.789.789,0,1,1,1.578,0v5.13A.789.789,0,0,1,671.252,1162.443Z" transform="translate(-666.517 -1153.366)"/><path class="m" d="M688.059,1162.443a.789.789,0,0,1-.789-.789v-5.13a.789.789,0,1,1,1.579,0v5.13A.789.789,0,0,1,688.059,1162.443Z" transform="translate(-680.477 -1153.366)"/></g><g transform="translate(259.997 234.423)"><path class="o" d="M949.913,700.885c15,17.886,40.934,18.547,57.96-16.392,0,0-3.952.35-5.91-1.333a8.86,8.86,0,0,1-2.609-4.536c-33.12,23.762-30.437-1.528-55.076-9.434C944.277,669.19,949.6,700.37,949.913,700.885Z" transform="translate(-905.737 -628.468)"/><path class="e" d="M774.939,958.253H716.768c.492-2.758,1.007-5.552,1.575-8.336a110.367,110.367,0,0,1,4.879-17.626,48.05,48.05,0,0,1,6.136-11.462c13.067,6.646,30.46,10.095,44.335,11.325.074.008.147.014.219.019l.062.006q.042,1.054.083,2.115.055,1.319.106,2.646.071,1.809.14,3.626c.125,3.239.246,6.491.362,9.732C774.761,952.962,774.852,955.62,774.939,958.253Z" transform="translate(-716.768 -837.479)"/><path class="p" d="M876.76,574.719c.42-5.764,1.847-16.211-2.684-18.227-3.176-1.294-7.151,1.259-6.348,4.958.3-.169.693,10.277-.108,13.128C858.947,576.689,884.179,586.467,876.76,574.719Z" transform="translate(-840.538 -534.578)"/><path class="q" d="M876.787,560.585c.014.159.034.321.062.478.219-.129.508,5.638.293,9.8a15.921,15.921,0,0,0,9.028,1.312c-.045-6.083,1.406-13.779-2.973-16.071A4.573,4.573,0,0,0,876.787,560.585Z" transform="translate(-849.66 -534.19)"/><path class="r" d="M826.968,1126.274h-.856a16.462,16.462,0,0,1,.843-3.067v0c.032-.055.062-.085.087-.088a.212.212,0,0,1,.052.106A14.33,14.33,0,0,1,826.968,1126.274Z" transform="translate(-807.589 -1005.5)"/><path class="n" d="M720.964,737.47c13.542,8,43.383,7.062,55.309,1.131,3.99-2.257,2.957-16.451.88-30.269-2.866-18.408-8.907-31.26-18.859-42.64a15.631,15.631,0,0,0-2.763-.616c.235,1.684.409,6.612-9.142-.146-.035.038-2.622-.012-3.379.421-.758.725-9.438,7.9-9.562,8.922-.366,3.048-2.692,10.754-5.174,19.71-2.856,10.468-5.785,21.194-6.472,30.768C721.561,728.73,718.071,734.08,720.964,737.47Z" transform="translate(-719.305 -624.931)"/><path class="o" d="M857.5,665.391c3.409,4.536,16.869,10.669,15.153.3a15.066,15.066,0,0,0-2.766-.621c.051.272,1.369,7.388-9.145-.146C860.759,664.995,858.155,664.828,857.5,665.391Z" transform="translate(-833.658 -624.924)"/><path class="i" d="M789.817,666.6c1.024-2.018,5.194-3.312,6.649-1.883a173.092,173.092,0,0,1,14.911,16.952c.361-.335,1.191-.205,1.362-.65,2.369-6.14-1.124-16.007-1.124-16.007,3.946-.951,7.3,2.358,9.13,4.548,2.729.05,5.8,2.986,4.441,7.4a16.64,16.64,0,0,1-6.011,8.992c3.368,5.144,7.791,13.428,4.744,15.678-1.261,1.675-4.866,2.948-5.664-1.181-.659-3.414-1.731-8.6-2.7-11.763a2.939,2.939,0,0,1-1.174.106s1.455,11.549,4.564,18.4-6,6.993-9.311,5.138c-2.6-1.455-3.073-16.369-1.083-24.814C806.356,686.758,770.232,671.791,789.817,666.6Z" transform="translate(-772.626 -624.248)"/><path class="s" d="M954.446,501.254a24.668,24.668,0,0,0-1.276-8.19l-2.8,1.244Z" transform="translate(-910.798 -482.177)"/><path class="p" d="M868.4,488.634c-.229,7.6-9.433,12.228-15.987,10.175-9.273-2.31-11.377-15.933-7.438-23.344,2.554-5.284,10.222-7.958,14.8-3.745,2.306,2.054,3.281,5.13,4.4,8.084C865.532,482.67,868.846,485.086,868.4,488.634Z" transform="translate(-821.689 -462.723)"/><path class="q" d="M865.938,477.145c-4.818-2.144-8.473-.457-12.465-.714a9.824,9.824,0,0,1-4.826,8.538s-4.217-3.174-.84-9.294C852.163,467.529,863.118,467.971,865.938,477.145Z" transform="translate(-824.522 -462.933)"/><path class="s" d="M852.55,432.905c-1.773-3.853-7.376-6.124-12.456-1.637-3.912,3.455-7.988,3.271-8.048,7.064-7.705,3.155-4.26,11.651-4.26,11.651l3.814-.305a11.662,11.662,0,0,0,4.533-8.519h0c4.165.1,8.617-1.555,12.973.369C852.212,442.808,854.532,437.211,852.55,432.905Z" transform="translate(-808.342 -428.795)"/><path class="p" d="M827.358,551.8c.337,1.967,1.893,3.343,3.476,3.072s2.593-2.086,2.256-4.053-1.893-3.343-3.476-3.072S827.021,549.833,827.358,551.8Z" transform="translate(-808.571 -527.568)"/><path class="t" d="M836.2,556.113c-.06-.026-1.48-.634-2.316.082a1.5,1.5,0,0,0-.45.749s0,.006,0,.008c-.007.026-.018.05-.024.077v0a5.071,5.071,0,0,0,.182,2.361.233.233,0,0,0,.274.169l.011,0a.233.233,0,0,0,.166-.285,5.156,5.156,0,0,1-.211-1.951,3.181,3.181,0,0,1,1.954,1.852.233.233,0,0,0,.436-.166,3.6,3.6,0,0,0-2.263-2.137.954.954,0,0,1,.232-.325c.615-.526,1.815-.015,1.827-.009a.233.233,0,0,0,.186-.427Z" transform="translate(-813.59 -534.325)"/><path class="p" d="M1269.407,672.968s4.649-9.585,9.613-10.588c0,0,13.353,10.3-1.094,16.456C1277.926,678.836,1271.052,680.849,1269.407,672.968Z" transform="translate(-1175.791 -622.811)"/><path class="u" d="M1308.557,643.8v-16.18a1.484,1.484,0,0,0-1.485-1.484h-8.235a1.554,1.554,0,0,0-.47.076,1.248,1.248,0,0,0-.725.53,1.469,1.469,0,0,0-.287.878v.1c-.008.082-.013.166-.016.251v0c-.008.238,0,.481.016.72v16.8a1.461,1.461,0,0,0,.136.622,1.483,1.483,0,0,0,1.346.86h8.235a1.478,1.478,0,0,0,1.133-.524,1.478,1.478,0,0,0,.352-.958v-.169A12.265,12.265,0,0,0,1308.557,643.8Z" transform="translate(-1198.988 -592.709)"/><path class="i" d="M1303.2,626.138h-8.236a1.431,1.431,0,0,0-.421.063.537.537,0,0,0-.055.016,1.489,1.489,0,0,0-.721.53l0,.006a1.469,1.469,0,0,0-.281.868v17.869a1.479,1.479,0,0,0,1.484,1.482h8.236a1.482,1.482,0,0,0,1.482-1.482V627.622A1.483,1.483,0,0,0,1303.2,626.138Zm.848,18.281h-9.931V628.692h9.931Z" transform="translate(-1195.784 -592.709)"/><path class="v" d="M1317,633.284a.2.2,0,0,1-.39,0A.2.2,0,0,1,1317,633.284Z" transform="translate(-1214.998 -598.485)"/><path class="h" d="M1323.846,633.727h-2.414a.072.072,0,0,1-.072-.073c0-.059-.022-.183.072-.181h2.414c.093,0,.071.122.073.181A.072.072,0,0,1,1323.846,633.727Z" transform="translate(-1218.943 -598.801)"/><path class="h" d="M1303.109,626.142c-8.719,0-9.719,2.554-9.719,2.554-.067-1.177-.013-2.477,1.484-2.554Z" transform="translate(-1195.697 -592.712)"/><rect class="w" width="9.93" height="15.727" transform="translate(98.329 35.984)"/><path class="p" d="M1352.008,702.587c.121-.027.147-.036.208-.054s.1-.033.149-.05c.1-.035.186-.074.276-.117a2.614,2.614,0,0,0,.505-.321,2.129,2.129,0,0,0,.413-.44,1.984,1.984,0,0,0,.259-.511.939.939,0,0,0-.77-1.193,1.3,1.3,0,0,0-1.159.276l-.437.395c-.009.008.009-.01.005-.007a.092.092,0,0,1-.02.013l-.019.008h0l.051-.012a1.062,1.062,0,0,0-.926,1.252A1.231,1.231,0,0,0,1352.008,702.587Z" transform="translate(-1243.153 -653.946)"/><path class="p" d="M1351.707,689.645c.094-.039.12-.053.172-.078l.129-.068c.083-.046.162-.094.24-.146a3.036,3.036,0,0,0,.448-.362,2.274,2.274,0,0,0,.381-.492,1.857,1.857,0,0,0,.217-.618,1.07,1.07,0,0,0-1.065-1.143,1.222,1.222,0,0,0-1.372.917c0-.027.021-.034-.02.008a.662.662,0,0,1-.089.07c-.019.013-.041.026-.061.037l-.029.015s-.03.013.009,0a.984.984,0,0,0-.593,1.385A1.32,1.32,0,0,0,1351.707,689.645Z" transform="translate(-1242.698 -643.037)"/><path class="p" d="M1351.488,679.1l.9-.726a.927.927,0,0,0,.052-1.465,1.393,1.393,0,0,0-1.736-.021l-.9.726a.927.927,0,0,0-.052,1.465A1.393,1.393,0,0,0,1351.488,679.1Z" transform="translate(-1242.248 -634.621)"/><path class="p" d="M1350.962,668.022l.9-.726a.927.927,0,0,0,.052-1.465,1.392,1.392,0,0,0-1.736-.021l-.9.726a.927.927,0,0,0-.052,1.465A1.393,1.393,0,0,0,1350.962,668.022Z" transform="translate(-1241.811 -625.417)"/><path class="p" d="M1273.057,687.123c.623.716,2.884.762,2.884-.208a11.591,11.591,0,0,1,2.175-6.637c.822-1.053-.585-2.283-1.645-1.247C1276.47,679.031,1272.059,682.633,1273.057,687.123Z" transform="translate(-1178.701 -636.316)"/><path class="o" d="M730.968,705.457s-17.212,18.662-8.217,41.712c8.506,21.8,38.281,27.6,56.509,12.908,0,0-4.148-5.287-1.944-8.222,0,0-14.7,1.929-23.9-5.772-7.839-6.56-6.033-18.512-5.133-27.374C748.28,718.71,733,711.968,730.968,705.457Z" transform="translate(-719.576 -658.591)"/><path class="p" d="M1059.556,947.008s3.7-2.466,4.106-1.35c.48,1.331-3.524,3.511-3.524,3.511a17.3,17.3,0,0,0,4.687-1.58,36.166,36.166,0,0,0,4.558-2.3c3.822.139-4.382,4.938-5.2,5.685l.02.037a53.033,53.033,0,0,0,7.6-2.323c3.922,1.062-6.174,4.125-7.223,4.6l.007.019a30.948,30.948,0,0,0,7.471-1.3c3.875,1.431-6.628,3.7-7.793,3.818l-.008.031a32.051,32.051,0,0,0,6.064-.007c3.482,1.864-5.961,2.455-7.024,2.426a45.875,45.875,0,0,1-8.657,1.006c-2.7.01-3.986-6.5-1.944-8.222C1052.7,951.06,1055.346,949.693,1059.556,947.008Z" transform="translate(-994.96 -857.795)"/></g></g></svg>