<svg xmlns="http://www.w3.org/2000/svg" width="410.514" height="249.878" viewBox="0 0 410.514 249.878"><defs><style>.a{fill:#9bc1f9;opacity:0.3;}.b{fill:#466eb6;}.c{fill:#7f1ca0;}.d{fill:#f47458;}.e{fill:#f48c7f;}.f{fill:#b75742;}.g{fill:#13375b;}.h{fill:#355389;}.i{fill:#86b1f2;}.j{fill:#fae0b2;}.k{fill:#daeef7;mix-blend-mode:multiply;isolation:isolate;}.l{fill:#50bfa5;}.m{fill:#3c8f7c;}.n{fill:#184655;}.o{fill:#f7cc7f;}.p{fill:#efefef;}.q{fill:#fff;}.r{fill:#f79c8d;}.s{fill:#042a44;}.t{fill:#07345a;}.u{fill:#f7a491;}.v{fill:#327f6b;}</style></defs><g transform="translate(-74.642 -112.702)"><g transform="translate(74.642 112.702)"><path class="a" d="M453.808,425.314H405.73a26.971,26.971,0,0,0,8.427-19.906v-5.89c0-17.064,12.405-30.9,27.708-30.9h0c15.687,0,28.4-14.18,28.4-31.673h0c0-17.492-12.717-31.673-28.4-31.673h-4.653c-15.3,0-27.708-13.833-27.708-30.9h0c0-14.239-10.351-25.782-23.121-25.782H205.722c-14.213,0-25.735,12.848-25.735,28.7h0c0,10.835,5.385,20.265,13.333,25.149H161.586c-13.235,0-23.964,11.072-23.964,24.73h0c0,16.368-12.857,29.636-28.718,29.636h-4.823c-16.259,0-29.439,13.6-29.439,30.38h0c0,16.779,13.18,30.38,29.439,30.38h0c15.86,0,28.718,13.269,28.718,29.636v5.65c0,13.658,10.729,24.73,23.964,24.73h111.51q1.262.122,2.556.124H453.808a26.2,26.2,0,0,0,26.2-26.2h0A26.2,26.2,0,0,0,453.808,425.314Z" transform="translate(-74.642 -229.995)"/><g transform="translate(112.35 163.872)"><path class="b" d="M912.338,1309.9c-.729,0-1.323.84-1.326,1.879s.587,1.884,1.316,1.886,1.323-.84,1.326-1.879S913.067,1309.9,912.338,1309.9Zm0,.532c.392,0,.709.2.708.438s-.318.435-.71.434-.708-.2-.708-.438S911.945,1310.434,912.336,1310.435Zm-.006,2.527c-.552,0-1-.3-1-.675s.449-.671,1-.67,1,.3,1,.675S912.882,1312.963,912.33,1312.962Z" transform="translate(-908.88 -1309.903)"/><path class="c" d="M895.9,1340.27a4.563,4.563,0,0,0-.424,1.908l-.034,13.783a1.515,1.515,0,0,0,1.519,1.511l7.881.019a1.515,1.515,0,0,0,1.526-1.5l.034-13.783a4.564,4.564,0,0,0-.415-1.91Z" transform="translate(-895.44 -1336.113)"/><path class="c" d="M895.9,1340.27a4.563,4.563,0,0,0-.424,1.908l-.034,13.783a1.515,1.515,0,0,0,1.519,1.511l7.881.019a1.515,1.515,0,0,0,1.526-1.5l.034-13.783a4.564,4.564,0,0,0-.415-1.91Z" transform="translate(-895.44 -1336.113)"/><path class="d" d="M906.4,1342.208l-.034,13.783a1.516,1.516,0,0,1-1.526,1.5l-7.881-.019a1.515,1.515,0,0,1-1.519-1.511l.034-13.784a4.563,4.563,0,0,1,.424-1.907l10.086.025A4.567,4.567,0,0,1,906.4,1342.208Z" transform="translate(-895.444 -1336.117)"/><path class="e" d="M897.529,1355.966l.034-13.783a4.564,4.564,0,0,1,.424-1.908l-2.09-.005a4.563,4.563,0,0,0-.424,1.908l-.034,13.783a1.515,1.515,0,0,0,1.519,1.511l2.09.005A1.515,1.515,0,0,1,897.529,1355.966Z" transform="translate(-895.44 -1336.113)"/><path class="f" d="M945.359,1342.315l-.034,13.784a1.516,1.516,0,0,1-1.526,1.5l-3.222-.008a1.524,1.524,0,0,0,1.542-1.5l.034-13.784a4.54,4.54,0,0,0-.42-1.909l3.21.008A4.567,4.567,0,0,1,945.359,1342.315Z" transform="translate(-934.399 -1336.224)"/><path class="g" d="M908.868,1335.276l-10.088-.025h0a.8.8,0,0,1,.808-.8l8.476.021a.8.8,0,0,1,.8.8Z" transform="translate(-898.323 -1331.094)"/><rect class="h" width="1.713" height="10.926" transform="translate(0.003 18.839) rotate(-89.859)"/></g><g transform="translate(62.536 163.376)"><path class="i" d="M620.965,1306.493h1.205a1.26,1.26,0,0,0-.712-.216h-30.19a2.712,2.712,0,0,0-2.86,2.535v1.61a2.712,2.712,0,0,0,2.86,2.535l29.852-.009Z" transform="translate(-580.621 -1306.278)"/><path class="b" d="M683.8,1306.322a2.594,2.594,0,0,0-2.735,2.424v1.82a2.594,2.594,0,0,0,2.735,2.424h18.794v-.407h-.078l-4.778-.4-.966-3.358s1.864-1.856,1.985-1.9,3.758-.193,3.758-.193h.078v-.4Z" transform="translate(-660.592 -1306.316)"/><path class="j" d="M705.2,1312.211a3.879,3.879,0,0,1,1.145-2.915H688.014a2.383,2.383,0,0,0-2.512,2.227v1.4a2.383,2.383,0,0,0,2.512,2.227h18.335S705.2,1314.684,705.2,1312.211Z" transform="translate(-664.424 -1308.883)"/><path class="k" d="M685.5,1311.523v1.4a1.991,1.991,0,0,0,.073.534,5.253,5.253,0,0,1,4.06-3.048c5.267-.97,16.714-1.114,16.714-1.114H688.014A2.383,2.383,0,0,0,685.5,1311.523Z" transform="translate(-664.424 -1308.883)"/><path class="l" d="M590.275,1403.7h1.364a1.331,1.331,0,0,0-.806-.27H556.664a3.206,3.206,0,0,0-3.237,3.173v2.016a3.206,3.206,0,0,0,3.237,3.173l33.787-.011Z" transform="translate(-550.427 -1390.136)"/><path class="m" d="M661.388,1403.489a3.065,3.065,0,0,0-3.1,3.035v2.278a3.065,3.065,0,0,0,3.1,3.035h21.271v-.509h-.088l-5.408-.5-1.093-4.2s2.11-2.323,2.247-2.383,4.253-.242,4.253-.242h.088v-.507Z" transform="translate(-640.94 -1390.183)"/><path class="j" d="M685.617,1410.861a5.084,5.084,0,0,1,1.3-3.649H666.161a2.816,2.816,0,0,0-2.843,2.787v1.753a2.816,2.816,0,0,0,2.843,2.787h20.751S685.617,1413.956,685.617,1410.861Z" transform="translate(-645.277 -1393.396)"/><path class="k" d="M663.318,1410v1.753a2.74,2.74,0,0,0,.083.668,6.08,6.08,0,0,1,4.595-3.816c5.962-1.214,18.917-1.394,18.917-1.394H666.161A2.816,2.816,0,0,0,663.318,1410Z" transform="translate(-645.277 -1393.396)"/><path class="d" d="M536.6,1355.174h-1.364a1.572,1.572,0,0,1,.806-.214H570.22c1.788,0,3.238,1.127,3.238,2.518v1.6c0,1.391-1.45,2.518-3.238,2.518l-33.8-.009Z" transform="translate(-534.723 -1348.296)"/><path class="f" d="M552.793,1355c1.71,0,3.1,1.078,3.1,2.408v1.807c0,1.33-1.386,2.408-3.1,2.408H531.514v-.4h.088l5.41-.4,1.093-3.335s-2.11-1.843-2.248-1.891-4.255-.192-4.255-.192h-.088v-.4Z" transform="translate(-531.514 -1348.334)"/><path class="j" d="M533.425,1360.853a3.676,3.676,0,0,0-1.3-2.9h20.759c1.571,0,2.844.99,2.844,2.212v1.391c0,1.221-1.273,2.212-2.844,2.212H532.129S533.425,1363.308,533.425,1360.853Z" transform="translate(-532.045 -1350.883)"/><path class="k" d="M555.733,1360.169v1.391a1.749,1.749,0,0,1-.083.531,5.882,5.882,0,0,0-4.6-3.028c-5.964-.963-18.924-1.106-18.924-1.106h20.759C554.459,1357.957,555.733,1358.947,555.733,1360.169Z" transform="translate(-532.045 -1350.883)"/></g><rect class="n" width="3.262" height="74.741" transform="translate(186.672 173.205) rotate(10.732)"/><path class="n" d="M2050.41,1452.426h3.855l-14.365-74.388-3.2.607Z" transform="translate(-1768.131 -1204.84)"/><path class="n" d="M1534.839,1452.426h3.855l-14.365-74.388-3.2.607Z" transform="translate(-1323.131 -1204.84)"/><path class="n" d="M1860.573,1454.532l-3.13.037,13.772-74.092,3.2.607Z" transform="translate(-1613.415 -1206.945)"/><path class="j" d="M1306.891,644.122c12.69,1.359,29.112,2.793,45.6,30.77,18.019,30.578,8.534,76.254-5.688,88.946s-60.671,28.365-99.717,4.9c0,0-23.576-14.219-11.477-37.816,18.62-36.314,15.989-43.886,24.314-58.117S1279.955,641.237,1306.891,644.122Z" transform="translate(-1073.715 -571.108)"/><path class="o" d="M1400.795,690.548c-11.253-19.1-22.475-25.824-32.5-28.6a83.975,83.975,0,0,1,11.745,15.855c18.019,30.578,8.534,76.254-5.688,88.946-12.612,11.256-50.568,24.851-86.231,11.422a36.229,36.229,0,0,0,7.27,6.231c39.046,23.462,85.5,7.79,99.717-4.9S1418.813,721.126,1400.795,690.548Z" transform="translate(-1122.019 -586.763)"/><path class="e" d="M491.758,764.6c-.36,2.837,2.594,5.088,5.221,4.91a6.465,6.465,0,0,0,5.793-5.432c.46-3.089-1.4-5.56-4.268-5.786a3.583,3.583,0,0,0-3.776,4.778c.579,1.8,2.222,2.471,3.05,1.974a.823.823,0,0,0-.175-1.536.807.807,0,0,0-.8.346,2.359,2.359,0,0,1-.893-2.86c.564-1.717,2.734-1.815,4.082-1.014,1.716,1.019,1.985,3.214,1.356,4.962a5.28,5.28,0,0,1-4.427,3.422,4.114,4.114,0,0,1-4.359-3.762A.4.4,0,0,0,491.758,764.6Z" transform="translate(-434.638 -669.915)"/><g transform="translate(228.786 0)"><path class="j" d="M1769.955,112.7c-13.134-.078-23.82,6.4-23.868,14.468-.024,4.034,2.616,7.7,6.9,10.371l-5.4,11.864,11.272-9.181a36.216,36.216,0,0,0,10.919,1.7c13.134.078,23.82-6.4,23.868-14.468S1783.089,112.781,1769.955,112.7Z" transform="translate(-1746.087 -112.702)"/><g transform="translate(14.494 5.596)"><path class="o" d="M1852.248,163.989a8.288,8.288,0,1,0,5.9-10.128A8.286,8.286,0,0,0,1852.248,163.989Z" transform="translate(-1851.973 -153.585)"/><path class="p" d="M1892.244,215.178a4.431,4.431,0,1,1-8.569,2.26Z" transform="translate(-1879.335 -206.747)"/></g></g><g transform="translate(115.391 87.037)"><path class="d" d="M919.344,776.08l36.262-.272a1.5,1.5,0,0,0,1.488-1.511l-.182-24.244a1.5,1.5,0,0,0-1.511-1.488l-36.262.272a1.5,1.5,0,0,0-1.488,1.511l.182,24.244A1.5,1.5,0,0,0,919.344,776.08Z" transform="translate(-917.652 -748.566)"/><path class="d" d="M1179.109,847.086l11.708,11.931-14.443-2.7Z" transform="translate(-1140.96 -833.601)"/><g transform="translate(9.541 3.059)"><path class="q" d="M1005.4,779.657l-3.523-.063s-4.44-3.316-4.576-4.488.592-3.652-.1-3.963a2.308,2.308,0,0,0-3.069.994c-.669,1.126-.112,5.238-.526,5.513a18.615,18.615,0,0,1-3.766.184,2.614,2.614,0,0,0-2.325,1.39v0a1.393,1.393,0,0,0,.337,1.721l.786.657-.619.822a1.393,1.393,0,0,0,.268,1.945l.62.473-.425.484a1.392,1.392,0,0,0,.247,2.059l.552.387-.083.152a1.393,1.393,0,0,0,.455,1.826l.554.367,9.384.167a6.453,6.453,0,0,0,2.566-.483l3.31-.487a.727.727,0,0,0,.621-.717l.021-8.214A.726.726,0,0,0,1005.4,779.657Z" transform="translate(-987.355 -770.911)"/></g></g><path class="r" d="M1459.946,985.671l-3.262,9.785,9.94-3.91Z" transform="translate(-1267.511 -866.179)"/><path class="s" d="M1470.369,772.937c-.663.027-2.478.633-5.134,5.634-3.391,6.387-8.347,25.681-8.347,25.681l14.794,5.491,1.9-4.027,3.13-31S1470.553,772.929,1470.369,772.937Z" transform="translate(-1267.687 -682.564)"/><path class="t" d="M1569.017,752.619c-4.23.006-14.7,1.236-19.556,2.783,0,0-3.569,30.571,3.213,53.8,1.518,5.2-1.256,21.556-1.256,21.556l43.836-.576s-5.193-39.542-3.237-45.929,2-28.646,2-28.646-.3-.047-9.849-1.692A99.581,99.581,0,0,0,1569.017,752.619Z" transform="translate(-1346.779 -665.027)"/><path class="u" d="M1713.38,1738.023s-.97,11.156-2.753,14.244.094,8.341.188,9.061,3.754,1.751,9.572,1.133,5.725-1.956,5.256-4.119-3.566-4.942-3.754-7,1.783-9.473,1.783-9.473Z" transform="translate(-1486.033 -1515.55)"/><path class="v" d="M1355.264,1251.905s-30.26-1.675-37.018,2.4,1.222,12.454,1.222,12.454,24.635,10.675,65.878,13.047c9.767.562,10.608-25.379,8.782-27.526S1355.264,1251.905,1355.264,1251.905Z" transform="translate(-1145.678 -1095.381)"/><path class="h" d="M1717.139,1857.379c5.991-.636,5.251-3.57,4.767-5.8-.3-1.394-2.021-3.038-3.046-4.593a10,10,0,0,1-4.009,1.942c-2.7.8-6.406-.779-8.766-1.765a28.75,28.75,0,0,0-.8,7.7C1705.381,1855.612,1711.147,1858.015,1717.139,1857.379Z" transform="translate(-1482.06 -1609.602)"/><path class="m" d="M1722.532,1275.369c-1.209,9.117-7.195,54.506-7.195,54.506l13.889,1.716s17.08-59.243,16.2-68.3-7.269-9.824-7.269-9.824S1725.732,1251.234,1722.532,1275.369Z" transform="translate(-1490.76 -1097.27)"/><path class="t" d="M1595.466,458.983s4.615-4.866,8.327,1.053a3.69,3.69,0,0,1,4.866,1.254s5.167-1.555,6.42,6.17c0,0,2.658-.5,3.01,2.659a7.82,7.82,0,0,1-1.254,5.267s1.493,1.12.815,4.025a3.6,3.6,0,0,1-2.621,2.846s-.552,4.163-2.357,5.417a5.888,5.888,0,0,1-4.264.652s-.652,2.257-2.759,2.056-4.715-2.207-7.073-1.3-8.477-.05-8.477-.05-6.872-3.06-4.815-10.082a5.136,5.136,0,0,1-.452-7.173s-2.307-6.119,2.257-9.731S1595.466,458.983,1595.466,458.983Z" transform="translate(-1377 -409.961)"/><path class="u" d="M1666.753,650.622l-.835,6.2s-1.871,8.928.536,10.65,10.238-10.9,10.238-10.9l-.827-15.7Z" transform="translate(-1447.507 -568.567)"/><path class="d" d="M1681.3,645.949a17.814,17.814,0,0,1-10.087,9.926l.708-5.254,9.112-9.761Z" transform="translate(-1452.678 -568.566)"/><path class="u" d="M1629.708,517.506a8.282,8.282,0,0,0-10.839,6.6,62.575,62.575,0,0,0-.672,7.951c-.132,7.239,3.615,14.283,6.9,14.283s12.371-4.686,12.7-14.962C1638,525.034,1634.834,519.271,1629.708,517.506Z" transform="translate(-1406.913 -461.711)"/><path class="u" d="M1743.733,609.381a2.412,2.412,0,1,0,2.364-2.891A2.668,2.668,0,0,0,1743.733,609.381Z" transform="translate(-1515.269 -538.901)"/><path class="t" d="M1575.7,480.074c-3.4,2.69-4.585,6.776-2.657,9.128s6.242,2.078,9.637-.612,4.585-6.776,2.657-9.128S1579.1,477.385,1575.7,480.074Z" transform="translate(-1367.148 -427.88)"/><path class="u" d="M1563.295,798.982c-4.1-1.532-6.1,35.272-6.656,50.421-7.258.7-19.909.005-23.059-.231-1.481-.111-4.9-1.358-6.371-1.55a14.8,14.8,0,0,0-3.621-.171c-.272.047-7.838,3.131-8.485,3.807-.8.839-2.972,2.954-2.606,3.868s4.173-2.549,4.173-2.549l1.86-1.04c-2.316,2.255-6.734,5.225-6.1,6.306.621,1.055,4.605-1.959,7.446-4.013-2.436,2.193-5.463,6.117-4.765,6.729.627.55,4.069-3.993,7.748-5.3,1.363-.485,2.722.858,3.795,1.02a7.738,7.738,0,0,0,2.778.154l3.984-1.126c1.357.122,1.391.922,2.761,1.213,1.591.337,4.2.693,6.227,1.186,11.666,2.841,15.557,4.16,19.129,4.158C1572.354,861.857,1572.981,802.6,1563.295,798.982Z" transform="translate(-1315.575 -705.005)"/><path class="t" d="M1836.4,811.85c.768-15.517.655-34.643-8.073-37.906-3.444-1.288-9.515,6.454-8.423,38.221C1824.565,812.549,1831.406,812.857,1836.4,811.85Z" transform="translate(-1580.904 -683.319)"/><path class="r" d="M1584.494,1003h.89l13.375,32.757-.921-.14Z" transform="translate(-1377.827 -881.137)"/><path class="u" d="M1347.886,1807.733s1.212,3.873-.958,6.433-11.187,5.073-12.371,6.46a3.881,3.881,0,0,0-1.094,2.568l25.309-.694-.276-7.617-1.166-5.474Z" transform="translate(-1161.155 -1575.718)"/><path class="h" d="M1320.729,1860.4s6.5,2.622,9.644,1.07,3.047-1.982,3.956-1.4,1.234,7.72,1.234,7.72l-28.459.833c-1.98-.045-2.982-1.5-1.373-2.743a23.228,23.228,0,0,1,3.1-1.839C1311.06,1862.767,1320.729,1860.4,1320.729,1860.4Z" transform="translate(-1136.53 -1620.677)"/><path class="m" d="M1305.357,1262.965c-1.956-4.1-6.405-9.444-14.233-6.227-7.466,3.068-9.47,10.609-7.114,18.331s17.863,53.115,18.4,59.356l12.382.082s-2.25-35.943-2.8-44.631C1311.462,1281.517,1308.742,1270.066,1305.357,1262.965Z" transform="translate(-1117.666 -1099.293)"/><path class="d" d="M1281.971,1003h41.388a2.7,2.7,0,0,1,2.5,1.675l12.744,31.082h22.817a1.155,1.155,0,0,1,1.155,1.154h0a1.155,1.155,0,0,1-1.155,1.155h-64.941a4.534,4.534,0,0,1-4.136-2.677l-12.832-28.585A2.7,2.7,0,0,1,1281.971,1003Z" transform="translate(-1114.38 -881.137)"/><path class="q" d="M1461.441,1116.252a2.277,2.277,0,1,0,1.708-2.97A2.435,2.435,0,0,0,1461.441,1116.252Z" transform="translate(-1271.568 -976.289)"/><ellipse class="a" cx="20.436" cy="20.479" rx="20.436" ry="20.479" transform="translate(285.798 36.94)"/><g transform="translate(284.256 35.549)"><g transform="translate(0 21.466)"><rect class="n" width="7.534" height="0.58"/></g><g transform="translate(36.469 21.466)"><rect class="n" width="7.534" height="0.58"/></g><g transform="translate(21.657)"><rect class="n" width="0.579" height="7.55"/></g><g transform="translate(21.657 36.399)"><rect class="n" width="0.579" height="7.55"/></g><path class="n" d="M2308.59,528.243a.624.624,0,1,1-.624-.625A.624.624,0,0,1,2308.59,528.243Z" transform="translate(-2285.988 -506.373)"/><g transform="translate(10.494 10.361)"><path class="n" d="M2239.479,459.893a.277.277,0,0,1-.2-.082l-11.206-11.229a.279.279,0,0,1,.394-.4l11.206,11.229a.279.279,0,0,1-.2.477Z" transform="translate(-2227.995 -448.105)"/></g><g transform="translate(21.848 21.87)"><path class="n" d="M2314.677,543.533a.2.2,0,0,1-.1-.118l-3.622-10.964a.2.2,0,1,1,.385-.128l3.622,10.964a.2.2,0,0,1-.284.245Z" transform="translate(-2310.944 -532.184)"/></g></g><path class="t" d="M2549.266,799.619l1.824-2.963-1.465-.594a.626.626,0,0,1-.345-.816h0a.626.626,0,0,1,.816-.345l1.689.685,1.631-2.661-1.565-.634a.626.626,0,0,1-.345-.816h0a.626.626,0,0,1,.816-.345l1.789.725,1.894-3.047a.626.626,0,0,1,.767-.25l.273.111a.627.627,0,0,1,.3.908l-1.762,2.875,2.594,1.052,1.894-3.047a.626.626,0,0,1,.767-.25l.3.121a.627.627,0,0,1,.3.908l-1.762,2.875,1.465.594a.626.626,0,0,1,.345.816h0a.627.627,0,0,1-.816.345l-1.689-.685-1.605,2.671,1.564.635a.626.626,0,0,1,.345.816h0a.626.626,0,0,1-.816.345l-1.789-.726-1.935,3.142a.627.627,0,0,1-.769.252l-.32-.13a.626.626,0,0,1-.3-.909l1.824-2.963-2.594-1.052-1.935,3.142a.626.626,0,0,1-.769.252l-.319-.13A.626.626,0,0,1,2549.266,799.619Zm6.61-2.374,1.631-2.661-2.594-1.052-1.631,2.661Z" transform="translate(-2210.46 -696.009)"/><path class="e" d="M1376.739,203.022l1.865-4.209-2.41-3.923a.633.633,0,0,1,.6-.961l4.58.473,2.986-3.5a.633.633,0,0,1,1.1.278l.966,4.5,4.256,1.757a.633.633,0,0,1,.076,1.132l-3.983,2.309-.356,4.59a.633.633,0,0,1-1.053.422l-3.427-3.075-4.475,1.08A.633.633,0,0,1,1376.739,203.022Z" transform="translate(-1197.956 -180.002)"/><path class="o" d="M2364.769,222.449l1.4-3.157-1.808-2.943a.475.475,0,0,1,.453-.721l3.435.355,2.24-2.629a.474.474,0,0,1,.825.208l.724,3.377,3.192,1.318a.475.475,0,0,1,.057.849l-2.988,1.732-.267,3.443a.474.474,0,0,1-.79.317l-2.571-2.306-3.357.81A.475.475,0,0,1,2364.769,222.449Z" transform="translate(-2050.883 -199.433)"/><path class="e" d="M2249.427,886.71l-.222-2.616-2.28-1.3a.361.361,0,0,1,.039-.646l2.419-1.019.531-2.571a.361.361,0,0,1,.626-.163l1.717,1.986,2.609-.288a.361.361,0,0,1,.348.545l-1.358,2.246,1.081,2.392a.361.361,0,0,1-.411.5l-2.556-.6-1.941,1.767A.361.361,0,0,1,2249.427,886.71Z" transform="translate(-1949.427 -773.481)"/><path class="o" d="M735.442,616.168l1.026-2.315-1.326-2.158a.348.348,0,0,1,.332-.528l2.519.26,1.643-1.928a.348.348,0,0,1,.605.153l.531,2.476,2.341.966a.348.348,0,0,1,.042.623l-2.191,1.27-.2,2.525a.348.348,0,0,1-.579.232l-1.885-1.691-2.462.594A.348.348,0,0,1,735.442,616.168Z" transform="translate(-644.688 -541.392)"/><path class="l" d="M1315.535,585.558l1.026-2.315-1.326-2.158a.348.348,0,0,1,.332-.528l2.519.26,1.642-1.928a.348.348,0,0,1,.605.153l.531,2.476,2.341.966a.348.348,0,0,1,.042.623l-2.191,1.27-.2,2.525a.348.348,0,0,1-.579.232l-1.885-1.691-2.462.594A.348.348,0,0,1,1315.535,585.558Z" transform="translate(-1145.379 -514.971)"/><path class="l" d="M1027.955,332.633l4.065-.59,1.671,6.436,6.05-.129,2.038,4.612,2.335-1.032-2.726-6.169-5.734.122-1.739-6.7-6.117.887Z" transform="translate(-897.332 -299.557)"/><path class="t" d="M955.594,1103.234l3.076-2.722,4.927,4.466,4.989-3.426,4.234,2.74,1.387-2.143-5.662-3.664-4.728,3.246-5.125-4.646-4.629,4.1Z" transform="translate(-833.687 -962.343)"/><path class="l" d="M611.421,1067.5l2.582-4.193-2.073-.841a.886.886,0,0,1-.488-1.154h0a.886.886,0,0,1,1.155-.488l2.391.969,2.308-3.766-2.214-.9a.887.887,0,0,1-.488-1.155h0a.887.887,0,0,1,1.155-.488l2.532,1.027,2.68-4.312a.887.887,0,0,1,1.086-.354l.387.157a.887.887,0,0,1,.423,1.285l-2.493,4.069,3.671,1.489,2.681-4.312a.886.886,0,0,1,1.086-.353l.422.171a.886.886,0,0,1,.423,1.284l-2.493,4.069,2.073.841a.886.886,0,0,1,.488,1.155h0a.886.886,0,0,1-1.155.488l-2.391-.969-2.273,3.78,2.214.9a.887.887,0,0,1,.488,1.155h0a.886.886,0,0,1-1.155.488l-2.532-1.027-2.738,4.447a.886.886,0,0,1-1.088.357l-.452-.183a.886.886,0,0,1-.422-1.286l2.582-4.193-3.671-1.489-2.738,4.447a.886.886,0,0,1-1.088.357l-.452-.183A.886.886,0,0,1,611.421,1067.5Zm9.355-3.359,2.308-3.765-3.671-1.489-2.308,3.766Z" transform="translate(-537.833 -923.241)"/><g transform="translate(275.676 121.567)"><path class="m" d="M2121.08,1176.994a19.158,19.158,0,0,0-1.651-6.76c-1.309-2.516-3.608-4.332-5.617-6.332a35.127,35.127,0,0,1-8.375-13.35c-1.341-3.873-2.009-8-3.856-11.658-1.128-2.234-2.666-4.23-3.947-6.379-3.029-5.079-4.677-11.082-8.783-15.333a18.431,18.431,0,0,0,4.163,14.58,24.59,24.59,0,0,1,2.955,3.593c1.4,2.451,1.271,5.441,1.435,8.259a36.266,36.266,0,0,0,4.337,15.179c2.694,4.948,6.583,9.354,8.024,14.8,1.079,4.083.759,8.663,3.06,12.2a3.118,3.118,0,0,1,.6,1.222,2.677,2.677,0,0,1-.045.767q-.078.493-.155.986c-.524,3.342-1.065,7.594,1.807,10.094,1.99,1.733,4.551,1.772,5.98-.53,1.439-2.318,1.312-5.711,1.2-8.32C2122.034,1185.669,2121.569,1181.313,2121.08,1176.994Z" transform="translate(-2088.648 -1101.256)"/><path class="v" d="M2262.357,1073.885c-1.117-3.868-2.851-7.552-3.72-11.484a54.105,54.105,0,0,1-.852-11.662q-.005-6.42-.01-12.84a48.388,48.388,0,0,0-.445-7.971c-.947-5.654-3.886-10.882-4.384-16.594-.215-2.47.035-4.966-.236-7.431a11.69,11.69,0,0,0-1.168-4.094,1.823,1.823,0,0,0-3.271.092,16.634,16.634,0,0,0-1.756,9.749,39.871,39.871,0,0,0,1.85,5.753c2.862,8.515,1.343,17.94,3.558,26.646.668,2.628,1.679,5.205,1.8,7.915.281,6.485-4.562,12.408-4.118,18.884.364,5.309,4.181,9.7,5.784,14.777.9,2.84,1.089,5.872,2.049,8.691.747,2.191,2.483,4.851,5.18,4.186,2.56-.631,1.787-2.721,1.672-4.717C2263.9,1087.033,2264.262,1080.481,2262.357,1073.885Z" transform="translate(-2224.753 -1000.834)"/><path class="m" d="M2337.7,1101.76a30.868,30.868,0,0,1-.171-6.024,35.113,35.113,0,0,1,1.386-4.9,44.1,44.1,0,0,0,1.336-9.443q.593-8.667,1.184-17.333c.614-8.981,1.23-17.988,2.91-26.831.466-2.455.99-5.116-.114-7.358-.233-.472-.69-.974-1.192-.816-.357.112-.533.506-.662.858-3.671,9.976-5.058,20.716-9.155,30.523a39.244,39.244,0,0,0-2.631,7.156c-.61,3-.275,6.092-.2,9.149a43.172,43.172,0,0,1-1.525,13.018,53.874,53.874,0,0,0-1.829,6.629,34.893,34.893,0,0,0,.2,8.558,131.437,131.437,0,0,1,.528,16.485c-.1,3.233,2.629,3.148,4.437,1.162,1.264-1.389,1.252-2.914,1.685-4.643C2335.316,1112.273,2338.047,1107.914,2337.7,1101.76Z" transform="translate(-2294.239 -1025.165)"/><path class="v" d="M2178.433,1507.676c-2.413-3.877-7.22-6.081-8.762-10.382-.392-1.094-.546-2.271-1.025-3.33-1.065-2.352-3.486-3.681-5.866-4.763a.5.5,0,0,0-.711.453h0a1.718,1.718,0,0,0,.745,1.452,9.656,9.656,0,0,1,3.847,5.248c.735,2.52.416,5.283,1.33,7.744.767,2.066,2.346,3.755,3.088,5.829.678,1.9.607,3.969.926,5.959s1.2,4.1,3.029,4.942C2181.644,1523.874,2179.991,1510.181,2178.433,1507.676Z" transform="translate(-2152.018 -1422.315)"/><path class="m" d="M2406.849,1451.66c-.1,1.874.183,3.84-.55,5.567a16.892,16.892,0,0,1-2.006,2.979c-2.433,3.442-3.316,8.318-7.054,10.255a1.272,1.272,0,0,1-.795.191,1.22,1.22,0,0,1-.788-.8c-.917-2.136.112-4.541.721-6.784a1.664,1.664,0,0,0,.009-1.191c-.206-.4-.675-.569-1-.881a2.9,2.9,0,0,1-.452-2.532,57.416,57.416,0,0,1,1.333-6.547,11.465,11.465,0,0,1,1.4-3.5,15.517,15.517,0,0,1,2.953-2.922,35,35,0,0,0,10.217-15.083,9.9,9.9,0,0,1,1.71-3.573,2.85,2.85,0,0,1,3.57-.728c.773.544-2.395,5.64-2.764,6.251-1.055,1.746-1.07,3.265-1.666,5.2C2410.233,1442.317,2407.129,1446.569,2406.849,1451.66Z" transform="translate(-2352.943 -1367.578)"/><path class="v" d="M2362.21,1347.579a23.049,23.049,0,0,0,1.617-5.5c.253-2.117-.083-4.281.279-6.382.464-2.7,2.04-5.077,2.819-7.7a50.9,50.9,0,0,0,1.04-5.84c.967-5.576,3.589-11.025,2.836-16.634-.164-1.22-.714-2.642-1.925-2.85a2.337,2.337,0,0,0-2.379,1.891,10.2,10.2,0,0,0,.006,3.325,13.727,13.727,0,0,1-2.459,8.8c-1.722,2.437-4.221,4.272-5.771,6.822-1.9,3.128-2.16,6.947-3.13,10.479-1.929,7.022-6.767,13.149-7.649,20.379-.351,2.877.324,6.374,2.979,7.523C2358.153,1365.212,2360.471,1352.078,2362.21,1347.579Z" transform="translate(-2311.989 -1261.33)"/><path class="d" d="M2234.573,1696.059H2216.95a1.869,1.869,0,0,0-1.815,2.3l6.424,27.091a1.867,1.867,0,0,0,1.815,1.438h21.17a1.867,1.867,0,0,0,1.815-1.438l6.424-27.091a1.869,1.869,0,0,0-1.815-2.3Z" transform="translate(-2197.777 -1600.897)"/></g><g transform="translate(39.692 185.022)"><rect class="n" width="85.666" height="4.425" transform="translate(10.297 0)"/><rect class="n" width="56.009" height="3.872" transform="translate(11.845 25.666)"/><rect class="n" width="3.613" height="60.345" transform="translate(83.942 2.212)"/><rect class="n" width="3.613" height="60.345" transform="translate(32.838 2.212)"/><path class="n" d="M767.854,1537.65l19.466-59.826-3.191-1.038-19.8,60.864Z" transform="translate(-709.614 -1475.092)"/><path class="n" d="M368.1,1537.708l16.65-59.957-3.233-.9-16.9,60.855Z" transform="translate(-364.618 -1475.151)"/></g><path class="n" d="M2161.4,357.454a23.917,23.917,0,1,0,23.867,23.917A23.892,23.892,0,0,0,2161.4,357.454Zm1.28,44.356a20.479,20.479,0,1,1,19.116-21.721A20.451,20.451,0,0,1,2162.679,401.81Z" transform="translate(-1855.165 -323.953)"/></g><rect class="s" width="393.478" height="2.669" transform="translate(91.678 359.911)"/></g></svg>