<svg xmlns="http://www.w3.org/2000/svg" xmlns:xlink="http://www.w3.org/1999/xlink" width="400.628" height="413.493" viewBox="0 0 400.628 413.493"><defs><style>.a{opacity:0.3;fill:url(#a);}.b{fill:url(#b);}.c,.i,.j,.l{fill:#fff;}.c{opacity:0.43;}.d{fill:url(#c);}.e{fill:url(#d);}.f{fill:url(#e);}.g{fill:url(#f);}.h{fill:url(#g);}.i,.k{opacity:0.6;}.j{opacity:0.78;}.m{fill:url(#h);}.n{fill:url(#i);}.o{fill:url(#j);}.p{fill:url(#k);}.q{fill:url(#l);}.r{fill:url(#m);}.s{fill:url(#n);}.t{fill:url(#o);}.u{fill:url(#p);}.v{fill:url(#q);}.w{fill:url(#r);}.x{fill:url(#s);}.y{fill:url(#t);}.z{fill:url(#u);}.aa{fill:url(#v);}.ab{fill:url(#w);}.ac{fill:url(#x);}.ad{fill:url(#y);}.ae{fill:url(#z);}.af{fill:url(#aa);}.ag{fill:url(#ab);}.ah{fill:url(#ac);}.ai{fill:url(#ad);}.aj{fill:url(#ae);}.ak{fill:url(#af);}.al{fill:url(#ag);}.am{fill:url(#ah);}.an{fill:url(#ai);}.ao{fill:url(#aj);}.ap{fill:url(#ak);}.aq{fill:url(#al);}.ar{fill:url(#am);}.as{fill:url(#an);}.at{fill:url(#ao);}.au{fill:url(#ap);}.av{fill:url(#aq);}.aw{fill:url(#ar);}.ax{fill:url(#as);}.ay{fill:url(#at);}.az{fill:url(#au);}.ba{fill:url(#av);}.bb{fill:url(#aw);}.bc{fill:url(#ax);}.bd{fill:url(#ay);}.be{fill:url(#az);}.bf{fill:url(#ba);}.bg{fill:url(#bb);}.bh{fill:url(#bc);}.bi{fill:url(#bd);}.bj{fill:url(#be);}.bk{fill:url(#bf);}.bl{fill:url(#bg);}.bm{fill:url(#bh);}.bn{fill:url(#bi);}.bo{fill:url(#bj);}.bp{fill:url(#bk);}.bq{fill:url(#bl);}.br{fill:url(#bm);}.bs{fill:url(#bn);}.bt{fill:url(#bo);}.bu{fill:url(#bp);}.bv{fill:url(#bq);}.bw{fill:url(#br);}.bx{fill:url(#bs);}.by{fill:url(#bt);}.bz{fill:url(#bu);}.ca{fill:url(#bv);}.cb{fill:url(#bw);}.cc{fill:url(#bx);}.cd{fill:url(#by);}.ce{fill:url(#bz);}.cf{fill:url(#ca);}.cg{fill:url(#cb);}.ch{fill:url(#cc);}.ci{fill:url(#cd);}.cj{fill:url(#ce);}.ck{fill:url(#cf);}.cl{fill:url(#cg);}.cm{fill:url(#ch);}.cn{fill:url(#ci);}.co{fill:url(#cj);}.cp{fill:url(#ck);}.cq{fill:url(#cl);}.cr{fill:url(#cm);}.cs{fill:url(#cn);}</style><linearGradient id="a" x1="1.086" y1="1.014" x2="0.335" y2="0.363" gradientUnits="objectBoundingBox"><stop offset="0" stop-color="#b37cff"/><stop offset="1" stop-color="#f895e7"/></linearGradient><linearGradient id="b" x1="-2.169" y1="-0.209" x2="-4.083" y2="0.753" gradientUnits="objectBoundingBox"><stop offset="0" stop-color="#cb236d"/><stop offset="1" stop-color="#4c246d"/></linearGradient><linearGradient id="c" x1="-5.203" y1="-0.724" x2="-7.176" y2="0.234" gradientUnits="objectBoundingBox"><stop offset="0" stop-color="#a737d5"/><stop offset="1" stop-color="#ef497a"/></linearGradient><linearGradient id="d" x1="0.5" y1="0.941" x2="0.429" y2="-0.71" gradientUnits="objectBoundingBox"><stop offset="0" stop-color="#2b3582"/><stop offset="1" stop-color="#150e42"/></linearGradient><linearGradient id="e" x1="-1.224" y1="-0.158" x2="3.769" y2="2.235" xlink:href="#c"/><linearGradient id="f" x1="-30.677" y1="-2.445" x2="159.673" y2="15.534" xlink:href="#c"/><linearGradient id="g" x1="0.992" y1="-0.016" x2="-0.158" y2="1.167" gradientUnits="objectBoundingBox"><stop offset="0" stop-color="#53d8ff"/><stop offset="1" stop-color="#3840f7"/></linearGradient><linearGradient id="h" x1="1.519" y1="-0.775" x2="-1.484" y2="2.907" xlink:href="#d"/><linearGradient id="i" x1="1.004" y1="-2.464" x2="-0.074" y2="4.125" xlink:href="#d"/><linearGradient id="j" x1="0.727" y1="-2.869" x2="0.282" y2="3.71" xlink:href="#g"/><linearGradient id="k" x1="0" y1="0.5" x2="1" y2="0.5" xlink:href="#d"/><linearGradient id="l" x1="0.534" y1="0.094" x2="0.399" y2="1.662" xlink:href="#c"/><linearGradient id="m" x1="0" y1="0.5" x2="1" y2="0.5" xlink:href="#a"/><linearGradient id="n" x1="0.039" y1="1.108" x2="4.685" y2="-5.021" xlink:href="#c"/><linearGradient id="o" x1="-0.334" y1="1.6" x2="4.312" y2="-4.529" xlink:href="#c"/><linearGradient id="p" x1="-0.663" y1="2.035" x2="3.982" y2="-4.094" xlink:href="#c"/><linearGradient id="q" x1="-1.037" y1="2.527" x2="3.609" y2="-3.602" xlink:href="#c"/><linearGradient id="r" x1="-1.366" y1="2.962" x2="3.28" y2="-3.167" xlink:href="#c"/><linearGradient id="s" x1="-1.739" y1="3.454" x2="2.906" y2="-2.675" xlink:href="#c"/><linearGradient id="t" x1="-2.069" y1="3.889" x2="2.577" y2="-2.24" xlink:href="#c"/><linearGradient id="u" x1="-2.442" y1="4.381" x2="2.204" y2="-1.748" xlink:href="#c"/><linearGradient id="v" x1="-2.771" y1="4.816" x2="1.874" y2="-1.313" xlink:href="#c"/><linearGradient id="w" x1="-3.144" y1="5.308" x2="1.501" y2="-0.821" xlink:href="#c"/><linearGradient id="x" x1="-3.474" y1="5.743" x2="1.172" y2="-0.386" xlink:href="#c"/><linearGradient id="y" x1="-3.847" y1="6.235" x2="0.799" y2="0.106" xlink:href="#c"/><linearGradient id="z" x1="-11.717" y1="-8.525" x2="0.581" y2="0.56" gradientUnits="objectBoundingBox"><stop offset="0" stop-color="#fdf53f"/><stop offset="0.665" stop-color="#e57a58"/><stop offset="1" stop-color="#d93c65"/></linearGradient><linearGradient id="aa" x1="13.13" y1="-0.904" x2="-8.223" y2="1.413" xlink:href="#z"/><linearGradient id="ab" x1="12.075" y1="-0.789" x2="-9.278" y2="1.528" xlink:href="#z"/><linearGradient id="ac" x1="11.198" y1="-0.694" x2="-10.155" y2="1.623" xlink:href="#z"/><linearGradient id="ad" x1="10.295" y1="-0.596" x2="-11.059" y2="1.721" xlink:href="#z"/><linearGradient id="ae" x1="9.46" y1="-0.506" x2="-11.894" y2="1.812" xlink:href="#z"/><linearGradient id="af" x1="8.556" y1="-0.408" x2="-12.797" y2="1.91" xlink:href="#z"/><linearGradient id="ag" x1="7.679" y1="-0.312" x2="-13.674" y2="2.005" xlink:href="#z"/><linearGradient id="ah" x1="6.7" y1="-0.206" x2="-14.653" y2="2.111" xlink:href="#z"/><linearGradient id="ai" x1="5.855" y1="-0.114" x2="-15.498" y2="2.203" xlink:href="#z"/><linearGradient id="aj" x1="4.978" y1="-0.019" x2="-16.375" y2="2.298" xlink:href="#z"/><linearGradient id="ak" x1="3.243" y1="0.169" x2="-18.11" y2="2.486" xlink:href="#z"/><linearGradient id="al" x1="3.999" y1="0.087" x2="-17.354" y2="2.404" xlink:href="#z"/><linearGradient id="am" x1="3.149" y1="3.199" x2="3.819" y2="2.421" gradientUnits="objectBoundingBox"><stop offset="0" stop-color="#fdf53f"/><stop offset="1" stop-color="#d93c65"/></linearGradient><linearGradient id="an" x1="4.326" y1="1.9" x2="2.274" y2="4.999" xlink:href="#am"/><linearGradient id="ao" x1="9.303" y1="2.826" x2="6.735" y2="5.746" xlink:href="#am"/><linearGradient id="ap" x1="1.848" y1="2.591" x2="2.519" y2="1.812" xlink:href="#am"/><linearGradient id="aq" x1="2.98" y1="1.27" x2="0.929" y2="4.369" xlink:href="#am"/><linearGradient id="ar" x1="6.14" y1="1.823" x2="3.572" y2="4.744" xlink:href="#am"/><linearGradient id="as" x1="1.518" y1="2.68" x2="2.189" y2="1.901" xlink:href="#am"/><linearGradient id="at" x1="2.639" y1="1.362" x2="0.588" y2="4.461" xlink:href="#am"/><linearGradient id="au" x1="5.338" y1="1.97" x2="2.77" y2="4.89" xlink:href="#am"/><linearGradient id="av" x1="2.413" y1="3.382" x2="3.084" y2="2.604" xlink:href="#am"/><linearGradient id="aw" x1="3.565" y1="2.089" x2="1.514" y2="5.188" xlink:href="#am"/><linearGradient id="ax" x1="7.515" y1="3.127" x2="4.947" y2="6.047" xlink:href="#am"/><linearGradient id="ay" x1="3.174" y1="3.833" x2="3.174" y2="8.022" xlink:href="#b"/><linearGradient id="az" x1="0.5" y1="-0.44" x2="0.5" y2="10.306" xlink:href="#b"/><linearGradient id="ba" x1="-6.03" y1="-14.74" x2="-7.058" y2="-10.494" xlink:href="#g"/><linearGradient id="bb" x1="-9.943" y1="1.669" x2="-9.889" y2="-28.555" xlink:href="#d"/><linearGradient id="bc" x1="-26.535" y1="-0.843" x2="-27.042" y2="2.39" gradientUnits="objectBoundingBox"><stop offset="0" stop-color="#f9b776"/><stop offset="1" stop-color="#f47960"/></linearGradient><linearGradient id="bd" x1="-6.606" y1="2.182" x2="-6.57" y2="-26.771" xlink:href="#d"/><linearGradient id="be" x1="-4.135" y1="-15.939" x2="-4.85" y2="-11.171" xlink:href="#g"/><linearGradient id="bf" x1="-23.104" y1="-0.602" x2="-23.584" y2="2.113" xlink:href="#bc"/><linearGradient id="bg" x1="-0.886" y1="0.703" x2="3.471" y2="-1.332" xlink:href="#d"/><linearGradient id="bh" x1="-4.826" y1="0.5" x2="-3.826" y2="0.5" xlink:href="#bc"/><linearGradient id="bi" x1="-4.682" y1="0.158" x2="-4.619" y2="1.532" xlink:href="#b"/><linearGradient id="bj" x1="-0.143" y1="0.831" x2="-4.42" y2="4.293" xlink:href="#am"/><linearGradient id="bk" x1="-2.717" y1="-0.073" x2="-4.028" y2="0.944" xlink:href="#bc"/><linearGradient id="bl" x1="-11.734" y1="-1.182" x2="-12.346" y2="0.558" xlink:href="#bc"/><linearGradient id="bm" x1="-6.066" y1="0.019" x2="-8.265" y2="3.348" xlink:href="#bc"/><linearGradient id="bn" x1="0.799" y1="0.348" x2="-0.675" y2="1.362" xlink:href="#am"/><linearGradient id="bo" x1="-8.861" y1="1.219" x2="-8.47" y2="0.33" xlink:href="#bc"/><linearGradient id="bp" x1="-2.232" y1="0.45" x2="-3.124" y2="4.043" xlink:href="#bc"/><linearGradient id="bq" x1="1.954" y1="-2.414" x2="-0.69" y2="2.885" xlink:href="#am"/><linearGradient id="br" x1="1.072" y1="-1.069" x2="-0.463" y2="3.239" xlink:href="#am"/><linearGradient id="bs" x1="-7.868" y1="0.277" x2="-10.128" y2="1.877" xlink:href="#bc"/><linearGradient id="bt" x1="-6.076" y1="0.152" x2="-5.326" y2="1.129" xlink:href="#d"/><linearGradient id="bu" x1="-33.186" y1="-0.685" x2="-37.736" y2="1.784" xlink:href="#bc"/><linearGradient id="bv" x1="-19.583" y1="0.5" x2="-18.583" y2="0.5" xlink:href="#bc"/><linearGradient id="bw" x1="-3.091" y1="0.327" x2="-1.753" y2="0.798" xlink:href="#b"/><linearGradient id="bx" x1="-7.827" y1="0.833" x2="-8.107" y2="-0.234" xlink:href="#bc"/><linearGradient id="by" x1="-2.862" y1="0.5" x2="-1.862" y2="0.5" gradientUnits="objectBoundingBox"><stop offset="0" stop-color="#9cfffb"/><stop offset="1" stop-color="#9bfffa"/></linearGradient><linearGradient id="bz" x1="-2.999" y1="0.5" x2="-1.999" y2="0.5" xlink:href="#by"/><linearGradient id="ca" x1="-2.718" y1="0.339" x2="-2.491" y2="1.663" xlink:href="#am"/><linearGradient id="cb" x1="-6.699" y1="0.098" x2="-3.907" y2="1.033" xlink:href="#b"/><linearGradient id="cc" x1="3" y1="-1.039" x2="-0.341" y2="1.017" xlink:href="#b"/><linearGradient id="cd" x1="-6.169" y1="0.148" x2="-6.913" y2="1.392" xlink:href="#bc"/><linearGradient id="ce" x1="16.785" y1="24.797" x2="15.712" y2="26.079" xlink:href="#bc"/><linearGradient id="cf" x1="11.394" y1="16.833" x2="12.301" y2="16.833" xlink:href="#d"/><linearGradient id="cg" x1="41.448" y1="83.554" x2="43.906" y2="80.905" xlink:href="#bc"/><linearGradient id="ch" x1="-2.04" y1="-18.317" x2="-2.04" y2="2.663" xlink:href="#d"/><linearGradient id="ci" x1="-2.643" y1="0.5" x2="-1.643" y2="0.5" xlink:href="#b"/><linearGradient id="cj" x1="-10.912" y1="0.5" x2="-9.912" y2="0.5" xlink:href="#bc"/><linearGradient id="ck" x1="-18.142" y1="-12.36" x2="-18.142" y2="2.15" xlink:href="#d"/><linearGradient id="cl" x1="-12.372" y1="0.5" x2="-11.372" y2="0.5" xlink:href="#b"/><linearGradient id="cm" x1="-19.606" y1="0.5" x2="-18.606" y2="0.5" xlink:href="#bc"/><linearGradient id="cn" x1="1.649" y1="-1.286" x2="0.233" y2="0.91" gradientUnits="objectBoundingBox"><stop offset="0" stop-color="#53d8ff"/><stop offset="0.206" stop-color="#4db9fd"/><stop offset="1" stop-color="#3840f7"/></linearGradient></defs><g transform="translate(-498.559 -455)"><path class="a" d="M882.394,764.816c-38.869,91.522-142.409,142.793-232.2,128.963-14.61-2.251-54.666-8.954-90.129-40.58-68.269-60.882-82.869-181.437-27.8-266.4C572.35,524.968,644.2,489.916,712.474,491.67c14.706.378,71.065,2.705,120.595,43.547a185.744,185.744,0,0,1,37.782,42.868C904.807,631.186,907.726,705.169,882.394,764.816Z" transform="translate(0 -31.201)"/><g transform="translate(501.6 568.99)"><g transform="translate(0 48.37)"><path class="b" d="M529.444,1555.876a1.707,1.707,0,0,1,3.365-.043c4.365,18.271,17.2,65.791,37.843,91.316,33.618,41.56,55.249,108.313,32.569,142.135C603.221,1789.284,484.109,1762.818,529.444,1555.876Z" transform="translate(-519.151 -1554.434)"/><path class="c" d="M607.949,1738.234c.031.595.1,1.083.154,1.611l.189,1.554.409,3.1c.286,2.064.6,4.123.915,6.182q.965,6.172,2.06,12.32c1.465,8.2,3.135,16.346,4.918,24.468s3.755,16.2,5.895,24.221,4.4,16.011,6.891,23.918a420.348,420.348,0,0,0,17.463,46.406c3.447,7.481,7.076,14.868,11.093,22.011a218.318,218.318,0,0,0,13.2,20.588.289.289,0,0,0,.427.053.348.348,0,0,0,.057-.451l0,0q-6.8-10.086-12.6-20.883c-3.888-7.173-7.388-14.584-10.7-22.082s-6.347-15.148-9.219-22.863-5.443-15.56-7.975-23.416c-5-15.739-9.227-31.761-13.042-47.893q-2.837-12.107-5.24-24.329-1.215-6.107-2.314-12.24l-1.048-6.142-.495-3.076-.231-1.539c-.068-.505-.15-1.047-.192-1.492l-.007-.073a.308.308,0,0,0-.331-.291A.32.32,0,0,0,607.949,1738.234Z" transform="translate(-594.836 -1710.797)"/></g><g transform="translate(28.651)"><path class="d" d="M724.818,1228.412a1.782,1.782,0,0,1,3.525-.006c4.39,19.568,17.356,70.479,38.729,97.989,34.8,44.792,56.791,116.352,32.7,152.209C799.77,1478.6,675.27,1448.917,724.818,1228.412Z" transform="translate(-713.166 -1226.891)"/><path class="c" d="M810.283,1423.29c.027.637.095,1.159.145,1.724l.182,1.663.4,3.317c.278,2.208.587,4.411.9,6.614q.948,6.6,2.032,13.184c1.452,8.771,3.119,17.5,4.9,26.2s3.77,17.347,5.931,25.943,4.446,17.156,6.979,25.631a455.273,455.273,0,0,0,17.832,49.777c3.537,8.031,7.266,15.964,11.4,23.642a234.2,234.2,0,0,0,13.627,22.145.3.3,0,0,0,.455.063.383.383,0,0,0,.066-.49l0,0q-7.024-10.857-12.985-22.459c-4-7.708-7.591-15.666-10.988-23.715s-6.5-16.256-9.427-24.53-5.545-16.685-8.119-25.105c-5.084-16.87-9.349-34.034-13.186-51.31q-2.853-12.965-5.25-26.048-1.213-6.537-2.3-13.1l-1.038-6.573-.488-3.291-.228-1.647c-.067-.54-.146-1.121-.187-1.6l-.007-.08a.332.332,0,0,0-.35-.32A.346.346,0,0,0,810.283,1423.29Z" transform="translate(-795.941 -1393.97)"/></g></g><g transform="translate(556.478 455)"><path class="e" d="M890.764,801.064A25.363,25.363,0,0,1,916.127,775.7h215.686a22.345,22.345,0,0,1,22.316,21.209l15.921,312.7a16.478,16.478,0,0,1-16.157,17.313l-247.2,4.493a15.641,15.641,0,0,1-15.925-15.638Z" transform="translate(-890.764 -728.341)"/><path class="f" d="M986.754,2803.907h-.008l-27.661-.357a17.059,17.059,0,0,1-16.774-16.992V2744.8a.591.591,0,0,1,1.181,0v41.763a15.873,15.873,0,0,0,15.608,15.811l27.661.358a.59.59,0,0,1-.007,1.181Z" transform="translate(-934.7 -2406.144)"/><path class="g" d="M942.9,2618.751a.59.59,0,0,1-.591-.59V2611.4a.591.591,0,0,1,1.181,0v6.764A.59.59,0,0,1,942.9,2618.751Z" transform="translate(-934.7 -2292.446)"/><g transform="translate(17.67 44.757)"><path class="h" d="M1010.418,765.492a7.367,7.367,0,0,1,8.356-7.348c29.454,3.994,130.738,16.348,214.479,9.919a6.812,6.812,0,0,1,7.336,6.425l16.694,314.1a7.84,7.84,0,0,1-7.365,8.245c-35.22,2.084-180.266,10.141-232,4.723a6.211,6.211,0,0,1-5.557-6.147Z" transform="translate(-1010.418 -758.076)"/><path class="i" d="M1033.912,820.4a7.09,7.09,0,0,1,8.041-7.071c28.345,3.844,125.815,15.732,206.4,9.546a6.556,6.556,0,0,1,7.06,6.183l16.065,302.271a7.544,7.544,0,0,1-7.088,7.934c-33.893,2.006-173.478,9.76-223.265,4.545a5.977,5.977,0,0,1-5.348-5.915Z" transform="translate(-1030.443 -805.116)"/><path class="j" d="M1211.566,992.947l3.01,64.8a4.12,4.12,0,0,0,4,3.93c12,.339,49.4,1.25,70.516.15a4.6,4.6,0,0,0,4.357-4.447c.4-12.153,1.284-47.526-1.486-62.313a5.192,5.192,0,0,0-4.929-4.224l-70.938-2.481A4.381,4.381,0,0,0,1211.566,992.947Z" transform="translate(-1181.857 -954.355)"/><g class="k" transform="translate(127.381 38.449)"><path class="l" d="M1953.033,1024.219a2.161,2.161,0,0,0,2.222-2.174,2.37,2.37,0,0,0-2.349-2.215l-78.272-1.4a1.485,1.485,0,0,0-1.526,2.115l.533,1.512a3.467,3.467,0,0,0,3.045,2.156Z" transform="translate(-1872.986 -1018.435)"/></g><g class="k" transform="translate(127.381 58.638)"><path class="l" d="M1874.634,1155.151a1.485,1.485,0,0,0-1.526,2.115l.533,1.512a3.467,3.467,0,0,0,3.045,2.156h76.347a2.161,2.161,0,0,0,2.222-2.174,2.37,2.37,0,0,0-2.349-2.215Z" transform="translate(-1872.986 -1155.15)"/></g><g class="k" transform="translate(127.381 80.747)"><path class="l" d="M1874.634,1304.862a1.485,1.485,0,0,0-1.526,2.115l.533,1.512a3.466,3.466,0,0,0,3.045,2.156h76.347a2.161,2.161,0,0,0,2.222-2.174,2.37,2.37,0,0,0-2.349-2.215Z" transform="translate(-1872.986 -1304.861)"/></g><g class="k" transform="translate(30.707 121.872)"><path class="l" d="M1402.629,1589.146a2.069,2.069,0,0,0,2.142-2.174,2.45,2.45,0,0,0-2.429-2.192l-182.723-1.44c-1.257-.01-1.645.787-.862,1.77l1.79,2.248a5.382,5.382,0,0,0,3.71,1.788Z" transform="translate(-1218.352 -1583.339)"/></g><g transform="translate(28.985 156.936)"><path class="l" d="M1234.511,2070.6h-.042l-15.381-.147a4.135,4.135,0,0,1-4.22-3.517l-1.352-12.905a2.8,2.8,0,0,1,.662-2.109,3.378,3.378,0,0,1,2.353-1.161h0c1.3-.088,3.121-.244,5.052-.408,4.068-.346,9.131-.777,11.98-.813a4.3,4.3,0,0,1,4.307,3.013c.8,2.962.731,8.57.578,14.544A3.8,3.8,0,0,1,1234.511,2070.6Zm-17.9-18.661a2.189,2.189,0,0,0-1.53.743,1.631,1.631,0,0,0-.392,1.226l1.352,12.9a2.959,2.959,0,0,0,3.056,2.459l15.381.147h.031a2.62,2.62,0,0,0,2.758-2.354c.15-5.883.222-11.4-.538-14.206a3.173,3.173,0,0,0-3.152-2.139c-2.806.035-7.845.464-11.894.809-1.937.165-3.767.321-5.072.41Z" transform="translate(-1212.496 -2015.756)"/><path class="i" d="M1234.334,2069.18c3.231-.221,10.254-.934,13.585-.975a2.978,2.978,0,0,1,2.98,2.059c.643,2.377.558,7.115.446,11.487a2.559,2.559,0,0,1-2.7,2.341l-12.291-.118a2.84,2.84,0,0,1-2.907-2.387l-1.081-10.313A2,2,0,0,1,1234.334,2069.18Z" transform="translate(-1228.562 -2031.665)"/><g class="k" transform="translate(35.397 41.482)"><path class="l" d="M1446.509,2106.467a3.819,3.819,0,0,0,3.725,2.845l142.31-1.213a2.888,2.888,0,0,0-.011-5.775l-142.314-.649A3.819,3.819,0,0,0,1446.509,2106.467Z" transform="translate(-1446.381 -2101.674)"/></g><path class="l" d="M1227.7,1841.837h-.042l-15.381-.147a4.134,4.134,0,0,1-4.22-3.517l-1.352-12.905a2.8,2.8,0,0,1,.662-2.109,3.377,3.377,0,0,1,2.354-1.161h0c1.3-.088,3.121-.244,5.052-.408,4.068-.346,9.131-.777,11.979-.813a4.3,4.3,0,0,1,4.307,3.013c.8,2.962.731,8.57.578,14.544A3.8,3.8,0,0,1,1227.7,1841.837Zm-17.9-18.661a2.187,2.187,0,0,0-1.53.743,1.631,1.631,0,0,0-.392,1.225l1.352,12.905a2.959,2.959,0,0,0,3.057,2.459l15.381.147h.031a2.62,2.62,0,0,0,2.758-2.354c.15-5.883.222-11.4-.538-14.206a3.174,3.174,0,0,0-3.152-2.14c-2.806.035-7.845.464-11.894.809-1.937.165-3.767.321-5.073.41Z" transform="translate(-1206.69 -1820.776)"/><path class="i" d="M1227.522,1840.418c3.231-.221,10.254-.934,13.585-.975a2.978,2.978,0,0,1,2.98,2.059c.643,2.377.558,7.114.446,11.487a2.559,2.559,0,0,1-2.7,2.341l-12.291-.118a2.839,2.839,0,0,1-2.907-2.387l-1.081-10.312A2,2,0,0,1,1227.522,1840.418Z" transform="translate(-1222.756 -1836.686)"/><g class="k" transform="translate(34.391 7.699)"><path class="l" d="M1439.7,1877.7a3.819,3.819,0,0,0,3.725,2.845l142.31-1.213a2.888,2.888,0,0,0-.012-5.776l-142.314-.649A3.819,3.819,0,0,0,1439.7,1877.7Z" transform="translate(-1439.568 -1872.912)"/></g><path class="l" d="M1234.511,2293.822h-.042l-15.381-.148a4.135,4.135,0,0,1-4.22-3.517l-1.352-12.905a2.8,2.8,0,0,1,.662-2.109,3.378,3.378,0,0,1,2.353-1.162h0c1.3-.088,3.121-.244,5.052-.408,4.068-.347,9.131-.777,11.98-.813h.062a4.29,4.29,0,0,1,4.245,3.013c.8,2.962.731,8.57.578,14.544A3.8,3.8,0,0,1,1234.511,2293.822Zm-17.9-18.661a2.187,2.187,0,0,0-1.53.743,1.632,1.632,0,0,0-.392,1.226l1.352,12.9a2.959,2.959,0,0,0,3.056,2.459l15.381.147h.031a2.62,2.62,0,0,0,2.758-2.354c.15-5.883.222-11.4-.538-14.206a3.156,3.156,0,0,0-3.152-2.139c-2.806.035-7.845.464-11.894.809-1.937.165-3.767.321-5.072.41Z" transform="translate(-1212.496 -2206.013)"/><path class="i" d="M1234.334,2292.405c3.231-.221,10.254-.934,13.585-.975a2.978,2.978,0,0,1,2.98,2.059c.643,2.377.558,7.115.446,11.487a2.559,2.559,0,0,1-2.7,2.341l-12.291-.118a2.84,2.84,0,0,1-2.907-2.387l-1.081-10.313A2,2,0,0,1,1234.334,2292.405Z" transform="translate(-1228.562 -2221.925)"/><g class="k" transform="translate(35.397 74.447)"><path class="l" d="M1446.509,2329.692a3.819,3.819,0,0,0,3.725,2.845l142.31-1.213a2.888,2.888,0,0,0-.011-5.775l-142.314-.649A3.819,3.819,0,0,0,1446.509,2329.692Z" transform="translate(-1446.381 -2324.899)"/></g><path class="l" d="M1234.511,2517.047h-.042l-15.381-.148a4.133,4.133,0,0,1-4.22-3.516l-1.352-12.905a2.8,2.8,0,0,1,.663-2.109,3.377,3.377,0,0,1,2.353-1.162h0c1.3-.088,3.121-.244,5.052-.408,4.068-.347,9.131-.777,11.98-.813h.062a4.29,4.29,0,0,1,4.245,3.013c.8,2.962.731,8.57.578,14.544A3.8,3.8,0,0,1,1234.511,2517.047Zm-17.9-18.661a2.189,2.189,0,0,0-1.53.743,1.632,1.632,0,0,0-.392,1.226l1.352,12.905a2.958,2.958,0,0,0,3.056,2.458l15.381.147h.031a2.62,2.62,0,0,0,2.758-2.353c.15-5.884.222-11.4-.538-14.206a3.152,3.152,0,0,0-3.152-2.14c-2.806.035-7.845.464-11.894.809-1.937.165-3.767.321-5.072.41Z" transform="translate(-1212.496 -2396.273)"/><path class="i" d="M1234.334,2515.631c3.231-.221,10.254-.934,13.585-.975a2.978,2.978,0,0,1,2.98,2.059c.643,2.377.558,7.115.446,11.487a2.559,2.559,0,0,1-2.7,2.341l-12.291-.118a2.84,2.84,0,0,1-2.907-2.387l-1.081-10.313A2,2,0,0,1,1234.334,2515.631Z" transform="translate(-1228.562 -2412.186)"/><g class="k" transform="translate(35.397 107.412)"><path class="l" d="M1446.509,2552.917a3.819,3.819,0,0,0,3.725,2.845l142.31-1.214a2.888,2.888,0,0,0-.011-5.775l-142.314-.649A3.819,3.819,0,0,0,1446.509,2552.917Z" transform="translate(-1446.381 -2548.124)"/></g><g class="k" transform="translate(95.14 141.546)"><path class="l" d="M1851.02,2784.062h0c.286,1.688,1.272,2.86,2.394,2.845l91.462-1.213c1.034-.014,1.862-1.342,1.84-2.951-.022-1.565-.841-2.818-1.847-2.825l-91.465-.649C1851.79,2779.257,1850.608,2781.633,1851.02,2784.062Z" transform="translate(-1850.938 -2779.269)"/></g></g></g><path class="m" d="M1732.55,459.724c-7.791-5.42-14.565-5.313-19.334-3.905a9.512,9.512,0,0,0-6.756,10l2.057,22.447,24.472,2.172S1747.829,470.354,1732.55,459.724Zm-10.762,18.11a6.1,6.1,0,1,1,6.1-6.1A6.1,6.1,0,0,1,1721.788,477.834Z" transform="translate(-1585.967 -455)"/><path class="l" d="M1728.422,497.795a.591.591,0,0,1-.587-.537l-.328-3.575a.59.59,0,1,1,1.176-.107l.328,3.575a.591.591,0,0,1-.534.642Zm-.642-7.006a.59.59,0,0,1-.587-.537l-.249-2.714a9.079,9.079,0,0,1,6.437-9.526,18.288,18.288,0,0,1,8.944-.367.59.59,0,1,1-.237,1.157,17.14,17.14,0,0,0-8.373.343,7.9,7.9,0,0,0-5.6,8.286l.249,2.714a.59.59,0,0,1-.534.642Z" transform="translate(-1603.427 -473.971)"/><path class="n" d="M1494.447,673.613V662.327a6.887,6.887,0,0,1,7.123-6.883l77.811,2.666a6.7,6.7,0,0,1,6.457,6.293l.65,10.844Z" transform="translate(-1405.297 -625.84)"/><path class="l" d="M1668.194,677.447h-3.346a.591.591,0,1,1,0-1.181h3.346a.591.591,0,0,1,0,1.181Z" transform="translate(-1550.031 -643.59)"/><path class="l" d="M1519.558,687.819a.59.59,0,0,1-.591-.591v-4.566a6.4,6.4,0,0,1,6.4-6.4h12.3a.591.591,0,0,1,0,1.181h-12.3a5.222,5.222,0,0,0-5.216,5.216v4.566A.59.59,0,0,1,1519.558,687.819Z" transform="translate(-1426.196 -643.59)"/><path class="o" d="M1277.985,757.486a7.332,7.332,0,0,1,7.324-6.98l136.067,0a10.057,10.057,0,0,1,9.91,8.342l.115.665a8.637,8.637,0,0,1-8.51,10.11h-139.6a5.616,5.616,0,0,1-5.609-5.885Z" transform="translate(-1220.54 -706.863)"/><path class="p" d="M1928.31,2450.357a6.918,6.918,0,0,1-4.6-2.189c-6.251-5.743-7.712-14.714-8.077-23.124-3,3.383-6.087,6.669-9.134,9.916l-1.09-1.023c3.394-3.616,6.833-7.281,10.15-11.07a243.827,243.827,0,0,1,1.542-33.974c.793-6.846,1.936-14.091,4.9-20.686.933-2.079,2.48-5.057,5.123-6.905,2.717-1.9,6.27-2.113,8.639-.522,2.676,1.8,3.4,5.256,3.718,7.7,1.884,14.657-3.842,28.1-8.976,36.8a123.359,123.359,0,0,1-13.434,18.131c.248,8.537,1.411,17.924,7.652,23.656a5.391,5.391,0,0,0,3.7,1.794c1.873-.068,3.336-1.812,4.521-3.509A92.6,92.6,0,0,0,1945,2421.281a24.909,24.909,0,0,1,2.11-7.352l1.4.491q-.886,3.648-2.049,7.192a23.436,23.436,0,0,0,.279,7.4c.265,1.321,1.385,5.679,4.683,6.307,2.482.471,4.933-1.27,7.707-5.488l9.833-14.948-.945,4.072c-.5,2.174-1.338,7.371,1.819,8.67,1.81.743,3.719-.331,5.74-1.469,1.971-1.11,4.008-2.255,6.27-1.958l.77.1-.132.765c-.52,3.014-.262,6.724,2.175,7.263,1.6.356,2.9-.856,4.419-2.257a10.273,10.273,0,0,1,4.318-2.829l.352,1.452a9.229,9.229,0,0,0-3.656,2.474c-1.67,1.544-3.4,3.141-5.756,2.619-3.211-.711-3.9-4.526-3.449-8.138a11.213,11.213,0,0,0-4.578,1.808c-2.242,1.263-4.56,2.567-7.042,1.548-2.295-.944-3.405-3.421-3.214-6.982l-5.676,8.627c-1.981,3.012-5.093,6.926-9.235,6.135-2.844-.542-5.038-3.339-5.868-7.482a24.555,24.555,0,0,1-.422-3.176,94.167,94.167,0,0,1-10.688,20.081c-1.4,2-3.164,4.056-5.693,4.147Zm3.74-89.155a7.2,7.2,0,0,0-4.071,1.324c-2.34,1.636-3.755,4.375-4.616,6.293-2.878,6.41-4,13.519-4.776,20.246a242.312,242.312,0,0,0-1.567,32.117,118.3,118.3,0,0,0,12.2-16.662c5.016-8.5,10.611-21.613,8.781-35.85-.441-3.426-1.416-5.539-3.07-6.65A5.14,5.14,0,0,0,1932.05,2361.2Z" transform="translate(-1755.571 -2078.436)"/></g><g transform="translate(756.518 484.096)"><path class="q" d="M0,0H109.073a0,0,0,0,1,0,0V75.872A16.757,16.757,0,0,1,92.316,92.629H16.757A16.757,16.757,0,0,1,0,75.872V0A0,0,0,0,1,0,0Z" transform="translate(0 1.84)"/><path class="r" d="M0,0H109.073a0,0,0,0,1,0,0V64.67A16.757,16.757,0,0,1,92.315,81.427H16.757A16.757,16.757,0,0,1,0,64.67V0A0,0,0,0,1,0,0Z" transform="translate(0 1.593)"/><g transform="translate(6.279 5.153)"><rect class="s" width="3.755" height="6.384"/><rect class="t" width="3.755" height="6.384" transform="translate(8.449)"/><rect class="u" width="3.755" height="6.384" transform="translate(15.913)"/><rect class="v" width="3.755" height="6.384" transform="translate(24.362)"/><rect class="w" width="3.755" height="6.384" transform="translate(31.825)"/><rect class="x" width="3.755" height="6.384" transform="translate(40.275)"/><rect class="y" width="3.755" height="6.384" transform="translate(47.738)"/><rect class="z" width="3.755" height="6.384" transform="translate(56.187)"/><rect class="aa" width="3.755" height="6.384" transform="translate(63.651)"/><rect class="ab" width="3.755" height="6.384" transform="translate(72.1)"/><rect class="ac" width="3.755" height="6.384" transform="translate(79.564)"/><rect class="ad" width="3.755" height="6.384" transform="translate(88.013)"/></g><g transform="translate(7.626 14.84)"><g transform="translate(40.918)"><rect class="l" width="11.334" height="11.334"/><rect class="l" width="11.334" height="11.334" transform="translate(13.775)"/><rect class="l" width="11.334" height="11.334" transform="translate(27.41)"/><rect class="l" width="11.334" height="11.334" transform="translate(40.932)"/></g><g transform="translate(0 14.252)"><rect class="l" width="11.334" height="11.334"/><rect class="l" width="11.334" height="11.334" transform="translate(13.635)"/><rect class="l" width="11.334" height="11.334" transform="translate(27.157)"/><rect class="l" width="11.334" height="11.334" transform="translate(40.904)"/><rect class="l" width="11.334" height="11.334" transform="translate(54.679)"/><rect class="l" width="11.334" height="11.334" transform="translate(68.314)"/><rect class="l" width="11.334" height="11.334" transform="translate(81.837)"/></g><g transform="translate(0.337 27.831)"><rect class="l" width="11.334" height="11.334"/><rect class="l" width="11.334" height="11.334" transform="translate(13.635)"/><rect class="ae" width="11.334" height="11.334" transform="translate(27.157)"/><rect class="l" width="11.334" height="11.334" transform="translate(40.904)"/><rect class="l" width="11.334" height="11.334" transform="translate(54.679)"/><rect class="l" width="11.334" height="11.334" transform="translate(68.314)"/><rect class="l" width="11.334" height="11.334" transform="translate(81.836)"/></g><g transform="translate(0.673 41.241)"><rect class="l" width="11.334" height="11.334"/><rect class="l" width="11.334" height="11.334" transform="translate(13.635)"/><rect class="l" width="11.334" height="11.334" transform="translate(27.157)"/><rect class="l" width="11.334" height="11.334" transform="translate(40.904)"/><rect class="l" width="11.334" height="11.334" transform="translate(54.679)"/><rect class="l" width="11.334" height="11.334" transform="translate(68.314)"/><rect class="l" width="11.334" height="11.334" transform="translate(81.836)"/></g><g transform="translate(0.673 54.621)"><rect class="l" width="11.334" height="11.334"/><rect class="l" width="11.334" height="11.334" transform="translate(13.635)"/><rect class="l" width="11.334" height="11.334" transform="translate(27.157)"/></g></g><g transform="translate(6.854 0)"><path class="af" d="M2298.6,652.512h-4.821a2.024,2.024,0,0,0-2.018,2.018v4.485h1.458V656.1a2.024,2.024,0,0,1,2.018-2.018h4.821a2,2,0,0,1,.524.072A2.025,2.025,0,0,0,2298.6,652.512Z" transform="translate(-2291.762 -652.44)"/><path class="ag" d="M2362.03,652.512h-4.822a2.024,2.024,0,0,0-2.018,2.018v4.485h1.458V656.1a2.024,2.024,0,0,1,2.019-2.018h4.822a2,2,0,0,1,.524.072A2.025,2.025,0,0,0,2362.03,652.512Z" transform="translate(-2345.823 -652.44)"/><path class="ah" d="M2414.748,652.512h-4.822a2.024,2.024,0,0,0-2.018,2.018v4.485h1.458V656.1a2.024,2.024,0,0,1,2.018-2.018h4.822a2,2,0,0,1,.524.072A2.025,2.025,0,0,0,2414.748,652.512Z" transform="translate(-2390.756 -652.44)"/><path class="ai" d="M2469.058,652.512h-4.821a2.024,2.024,0,0,0-2.018,2.018v4.485h1.458V656.1a2.024,2.024,0,0,1,2.018-2.018h4.822a2,2,0,0,1,.524.072A2.025,2.025,0,0,0,2469.058,652.512Z" transform="translate(-2437.046 -652.44)"/><path class="aj" d="M2519.264,652.512h-4.822a2.024,2.024,0,0,0-2.018,2.018v4.485h1.458V656.1a2.024,2.024,0,0,1,2.018-2.018h4.822a2,2,0,0,1,.524.072A2.025,2.025,0,0,0,2519.264,652.512Z" transform="translate(-2479.837 -652.44)"/><path class="ak" d="M2573.574,652.512h-4.822a2.024,2.024,0,0,0-2.018,2.018v4.485h1.458V656.1a2.024,2.024,0,0,1,2.018-2.018h4.822a2,2,0,0,1,.524.072A2.025,2.025,0,0,0,2573.574,652.512Z" transform="translate(-2526.127 -652.44)"/><path class="al" d="M2626.292,652.512h-4.822a2.024,2.024,0,0,0-2.018,2.018v4.485h1.458V656.1a2.024,2.024,0,0,1,2.018-2.018h4.822a2,2,0,0,1,.524.072A2.026,2.026,0,0,0,2626.292,652.512Z" transform="translate(-2571.06 -652.44)"/><path class="am" d="M2685.161,652.512h-4.821a2.024,2.024,0,0,0-2.018,2.018v4.485h1.458V656.1a2.024,2.024,0,0,1,2.018-2.018h4.822a2,2,0,0,1,.524.072A2.025,2.025,0,0,0,2685.161,652.512Z" transform="translate(-2621.236 -652.44)"/><path class="an" d="M2735.923,652.026H2731.1a2.024,2.024,0,0,0-2.018,2.018v4.485h1.458v-2.915a2.024,2.024,0,0,1,2.018-2.018h4.822a2,2,0,0,1,.524.072A2.026,2.026,0,0,0,2735.923,652.026Z" transform="translate(-2664.501 -652.026)"/><path class="ao" d="M2788.641,652.026h-4.822a2.024,2.024,0,0,0-2.018,2.018v4.485h1.458v-2.915a2.024,2.024,0,0,1,2.018-2.018h4.822a2,2,0,0,1,.524.072A2.026,2.026,0,0,0,2788.641,652.026Z" transform="translate(-2709.434 -652.026)"/><path class="ap" d="M2893.047,653.26h-4.822a2.024,2.024,0,0,0-2.018,2.018v4.485h1.458v-2.915a2.024,2.024,0,0,1,2.018-2.018h4.822a2,2,0,0,1,.524.072A2.025,2.025,0,0,0,2893.047,653.26Z" transform="translate(-2798.422 -653.078)"/><path class="aq" d="M2847.509,652.026h-4.821a2.024,2.024,0,0,0-2.019,2.018v4.485h1.458v-2.915a2.024,2.024,0,0,1,2.018-2.018h4.821a2,2,0,0,1,.524.072A2.026,2.026,0,0,0,2847.509,652.026Z" transform="translate(-2759.608 -652.026)"/></g></g><g transform="translate(615.691 478.429)"><g transform="translate(0 53.353)"><circle class="ar" cx="18.163" cy="18.163" r="18.163" transform="translate(0 25.686) rotate(-45)"/><circle class="as" cx="17.559" cy="17.559" r="17.559" transform="translate(0.854 25.686) rotate(-45)"/><path class="l" d="M1354.874,1049.557a.587.587,0,0,1-.728-.685,16.725,16.725,0,0,1,12.061-12.844,16.981,16.981,0,0,1,3-.53.587.587,0,0,1,.1,1.17,15.826,15.826,0,0,0-2.787.494,15.557,15.557,0,0,0-11.219,11.946A.587.587,0,0,1,1354.874,1049.557Z" transform="translate(-1344.918 -1026.553)"/><circle class="j" cx="14.861" cy="14.861" r="14.861" transform="translate(5.138 25.955) rotate(-45)"/><g transform="translate(18.924 15.643)"><path class="at" d="M1428.591,1102.218l-.423-1.56a13.186,13.186,0,0,1-4.636.239.935.935,0,0,1-.788-.931l0-1.561a.943.943,0,0,1,1.073-.93,10.948,10.948,0,0,0,4.274-.245c1.567-.425,2.591-1.273,2.3-2.362-.266-.983-1.328-1.322-3.664-1.315-3.338-.007-5.936-.756-6.678-3.492-.67-2.47.625-4.845,3.621-6.2l-.423-1.561a.942.942,0,0,1,.662-1.156l.917-.249a.942.942,0,0,1,1.156.663l.38,1.4a12.026,12.026,0,0,1,3.64-.318.937.937,0,0,1,.862.939v1.443a.94.94,0,0,1-1.031.937,9.808,9.808,0,0,0-3.571.305c-1.859.5-2.181,1.418-1.994,2.109.23.85,1.5,1.132,4.123,1.219,3.733.1,5.556,1.144,6.255,3.72.641,2.364-.535,4.964-3.79,6.417l.474,1.746a.942.942,0,0,1-.663,1.156l-.917.249A.942.942,0,0,1,1428.591,1102.218Z" transform="translate(-1419.874 -1080.861)"/></g></g><g transform="translate(25.229 0)"><circle class="au" cx="31.618" cy="31.618" r="31.618" transform="translate(0 44.715) rotate(-45)"/><circle class="av" cx="30.567" cy="30.567" r="30.567" transform="translate(1.487 44.715) rotate(-45)"/><path class="l" d="M1574.892,745.649a.587.587,0,0,1-.728-.685,28.684,28.684,0,0,1,20.684-22.026,28.991,28.991,0,0,1,5.137-.909.587.587,0,1,1,.1,1.17,27.883,27.883,0,0,0-4.929.872,27.516,27.516,0,0,0-19.842,21.129A.587.587,0,0,1,1574.892,745.649Z" transform="translate(-1557.674 -706.022)"/><circle class="j" cx="25.871" cy="25.871" r="25.871" transform="translate(8.945 45.184) rotate(-45)"/><g transform="translate(32.943 27.232)"><path class="aw" d="M1700.822,835.231l-.737-2.716a22.953,22.953,0,0,1-8.071.415,1.628,1.628,0,0,1-1.372-1.621l0-2.718a1.641,1.641,0,0,1,1.869-1.62,19.056,19.056,0,0,0,7.44-.427c2.728-.74,4.511-2.217,4-4.112-.464-1.71-2.312-2.3-6.379-2.29-5.81-.012-10.333-1.316-11.625-6.078-1.166-4.3,1.087-8.435,6.3-10.793l-.737-2.717a1.64,1.64,0,0,1,1.153-2.012l1.6-.433a1.64,1.64,0,0,1,2.012,1.153l.662,2.439a20.931,20.931,0,0,1,6.336-.554,1.632,1.632,0,0,1,1.5,1.634V805.3a1.636,1.636,0,0,1-1.795,1.631,17.075,17.075,0,0,0-6.217.532c-3.236.878-3.8,2.469-3.471,3.671.4,1.479,2.619,1.97,7.177,2.123,6.5.173,9.673,1.992,10.889,6.476,1.116,4.114-.932,8.641-6.6,11.17l.825,3.04a1.64,1.64,0,0,1-1.153,2.012l-1.6.433A1.64,1.64,0,0,1,1700.822,835.231Z" transform="translate(-1685.647 -798.053)"/></g></g><g transform="translate(64.998 62.683)"><circle class="ax" cx="32.535" cy="32.535" r="32.535" transform="translate(11.946 11.946)"/><circle class="ay" cx="31.453" cy="31.453" r="31.453" transform="translate(0 44.482) rotate(-45)"/><path class="l" d="M1837.181,1163.658a.587.587,0,0,1-.728-.685,29.5,29.5,0,0,1,21.271-22.651,29.85,29.85,0,0,1,5.283-.935.587.587,0,1,1,.1,1.17,28.733,28.733,0,0,0-5.074.9,28.33,28.33,0,0,0-20.429,21.754A.587.587,0,0,1,1837.181,1163.658Z" transform="translate(-1820.998 -1124.429)"/><circle class="j" cx="26.621" cy="26.621" r="26.621" transform="translate(18.701 18.342)"/><g transform="translate(32.368 26.492)"><path class="az" d="M1966.668,1255.755l-.758-2.8a23.624,23.624,0,0,1-8.3.427,1.675,1.675,0,0,1-1.412-1.668l0-2.8a1.689,1.689,0,0,1,1.923-1.667,19.613,19.613,0,0,0,7.655-.44c2.807-.761,4.642-2.281,4.113-4.231-.477-1.76-2.379-2.368-6.563-2.356-5.979-.012-10.633-1.354-11.962-6.254-1.2-4.424,1.119-8.679,6.486-11.105l-.758-2.8a1.688,1.688,0,0,1,1.187-2.07l1.642-.445a1.687,1.687,0,0,1,2.071,1.187l.681,2.51a21.534,21.534,0,0,1,6.52-.57,1.679,1.679,0,0,1,1.544,1.682v2.585a1.683,1.683,0,0,1-1.847,1.679,17.57,17.57,0,0,0-6.4.547c-3.33.9-3.907,2.541-3.571,3.778.413,1.522,2.695,2.027,7.385,2.184,6.688.178,9.953,2.05,11.2,6.664,1.149,4.234-.958,8.891-6.789,11.494l.849,3.128a1.688,1.688,0,0,1-1.187,2.071l-1.643.445A1.687,1.687,0,0,1,1966.668,1255.755Z" transform="translate(-1951.053 -1217.498)"/></g></g><g transform="translate(105.567 20.872)"><circle class="ba" cx="23.838" cy="23.838" r="23.838" transform="translate(5.178 12.969) rotate(-9.405)"/><circle class="bb" cx="23.046" cy="23.046" r="23.046" transform="translate(0 32.591) rotate(-45)"/><path class="l" d="M2082.88,846.219a.587.587,0,0,1-.728-.685,21.769,21.769,0,0,1,15.7-16.717,22.056,22.056,0,0,1,3.9-.69.587.587,0,1,1,.1,1.17,20.925,20.925,0,0,0-3.69.653A20.6,20.6,0,0,0,2083.3,845.77.587.587,0,0,1,2082.88,846.219Z" transform="translate(-2070.982 -817.324)"/><circle class="j" cx="19.505" cy="19.505" r="19.505" transform="translate(5.623 32.944) rotate(-45)"/><g transform="translate(23.716 19.41)"><path class="bc" d="M2178.621,914.452l-.556-2.048a17.309,17.309,0,0,1-6.085.313,1.228,1.228,0,0,1-1.034-1.222l0-2.049a1.237,1.237,0,0,1,1.409-1.221,14.368,14.368,0,0,0,5.609-.322c2.056-.558,3.4-1.671,3.013-3.1-.35-1.29-1.743-1.735-4.809-1.726-4.38-.009-7.791-.992-8.764-4.582-.879-3.242.819-6.359,4.752-8.137l-.555-2.048a1.236,1.236,0,0,1,.869-1.517l1.2-.326a1.237,1.237,0,0,1,1.517.87l.5,1.839a15.777,15.777,0,0,1,4.777-.418,1.231,1.231,0,0,1,1.131,1.232v1.894a1.233,1.233,0,0,1-1.353,1.23,12.877,12.877,0,0,0-4.687.4c-2.44.662-2.863,1.862-2.617,2.768.3,1.115,1.974,1.485,5.411,1.6,4.9.13,7.292,1.5,8.21,4.882.841,3.1-.7,6.514-4.975,8.422l.622,2.292a1.236,1.236,0,0,1-.869,1.517l-1.2.326A1.236,1.236,0,0,1,2178.621,914.452Z" transform="translate(-2167.18 -886.422)"/></g></g></g><g transform="translate(840.143 586.144)"><g transform="translate(21.759)"><path class="bd" d="M2977.844,1359.306c-2.972,9.45-8.532,12.931-13.053,11.509-4.623-1.454-6.864-7.464-4.2-16.1,2.668-8.484,8.031-12.937,13.111-11.339C2978.931,1345.02,2980.381,1351.237,2977.844,1359.306Zm-18.874,30.371,33.728-40.327,3.556,1.118-33.728,40.327Zm6.478-33.738c-1.677,5.157-1.5,9.382.991,10.165s4.836-2.42,6.549-7.869c1.562-4.967,1.8-9.286-.888-10.133C2969.56,1347.3,2967.032,1350.9,2965.448,1355.939Zm29.3,29.147c-2.95,9.38-8.481,12.946-13.053,11.508s-6.863-7.464-4.13-16.155c2.646-8.415,8.031-12.936,13.06-11.355C2995.854,1370.731,2997.283,1377.017,2994.745,1385.087Zm-12.394-3.368c-1.656,5.088-1.5,9.382.99,10.164,2.54.8,4.837-2.42,6.55-7.869,1.583-5.035,1.8-9.286-.888-10.133C2986.462,1373.083,2983.934,1376.684,2982.351,1381.719Z" transform="translate(-2958.97 -1343.054)"/></g><g transform="translate(0 15.002)"><path class="be" d="M2817.249,1457.485h-5.625V1452.9h5.625v-8.26h4.362v8.26h5.625v4.584h-5.625v8.149h-4.362Z" transform="translate(-2811.624 -1444.641)"/></g></g><g transform="translate(625.33 607.258)"><g transform="translate(0.774 120.214)"><path class="bf" d="M1437.336,3160.09a1.6,1.6,0,0,0-.042-.419c-2.089-8.284-12.459-13.443-12.459-13.443l-4.109.322c-2.363,7.3-2.059,11.779-1.68,13.773.01.056.028.109.042.163A97.456,97.456,0,0,0,1437.336,3160.09Z" transform="translate(-1410.435 -3021.271)"/><path class="bg" d="M1420.83,3240.493a1.781,1.781,0,0,0,1.3,1.317c4.822,1.014,12.486.2,15.7-.223a1.5,1.5,0,0,0,1.241-1.49A97.542,97.542,0,0,1,1420.83,3240.493Z" transform="translate(-1412.178 -3101.277)"/><path class="bh" d="M1420.729,3106.963l1.74,8.378a1.37,1.37,0,0,0,1.171,1.127,11.62,11.62,0,0,0,2.7-.043,1.722,1.722,0,0,0,1.364-2.023l-1.21-7.439Z" transform="translate(-1412.092 -2987.804)"/><path class="bi" d="M1618.164,3235.382c-4.538-.127-6.886-.661-8.1-1.157,0,.451,0,.911.015,1.387a.9.9,0,0,0,.855.911l24.919-.161a1.138,1.138,0,0,0,.915-1.657C1633.5,3234.974,1625.179,3235.578,1618.164,3235.382Z" transform="translate(-1573.465 -3096.272)"/><path class="bj" d="M1636.774,3167.007a1.15,1.15,0,0,0-.1-.188c-2.2-3.075-7.806-9.2-18.881-11.854l-5.313-.167s-2.366,4.112-2.411,11.729c1.214.5,3.561,1.031,8.1,1.157C1625.185,3167.881,1633.507,3167.276,1636.774,3167.007Z" transform="translate(-1573.471 -3028.574)"/><path class="bk" d="M1618.12,3092.02c.084.392,1.189,6.353,1.618,8.665a1.156,1.156,0,0,0,1.039.981,12.161,12.161,0,0,0,3.639-.286,1.572,1.572,0,0,0,1.089-1.649l-.594-9.43Z" transform="translate(-1580.333 -2973.602)"/><path class="bl" d="M1396,2308.41s7.309,50.224,12.584,109.99a2.277,2.277,0,0,1-1.882,2.312,27.631,27.631,0,0,1-5.941.688,2.2,2.2,0,0,1-2.1-1.838c-1.8-10.538-14.619-67.092-17.984-79.539,0,0-3.865,52.872-2.63,80.3a1.3,1.3,0,0,1-1.147,1.352,21.863,21.863,0,0,1-4.77-.013,1.74,1.74,0,0,1-1.55-1.477c-1.28-8.918-8.647-62-8.334-100.244.018-2.156,2.53-19.875,2.53-19.875Z" transform="translate(-1362.24 -2300.068)"/></g><g transform="translate(83.906 41.47)"><path class="bm" d="M1938.458,1986.718s-2.046-5.386-4.436-4.893a16.344,16.344,0,0,0-5,2.329l-3.84,5.192s10.778,4.246,14.569,1.813a82.942,82.942,0,0,0,24.911-.379,54.5,54.5,0,0,1-3.916-11.8C1953.7,1982.961,1946.116,1985.939,1938.458,1986.718Z" transform="translate(-1925.178 -1947.65)"/><path class="bn" d="M2202.03,1766.848s-15.762,19.853-36.032,31.326a54.486,54.486,0,0,0,3.917,11.8c10.515-1.725,22.685-5.843,33-14.993Z" transform="translate(-2130.435 -1766.848)"/></g><path class="bo" d="M1610.036,1784.625l.979,26.281a72.229,72.229,0,0,0,7.945,2.256c1.576-5.074,5.047-11.3,7.889-15.933C1616.407,1793.538,1610.036,1784.625,1610.036,1784.625Z" transform="translate(-1572.669 -1740.529)"/><path class="bp" d="M1713.671,1781.6c-14.323,15.464-25.916,16.375-35.317,13.052-2.842,4.631-6.312,10.859-7.889,15.933,38.249,8.433,47.256-26.73,47.256-26.73Z" transform="translate(-1624.174 -1737.949)"/><path class="bq" d="M1982.707,1760.006a5.248,5.248,0,0,1,4.7-1.215c3.053.557,5.772,1.618,7.674,0s2.572.553,2.572.553l-5.7,4.331Z" transform="translate(-1890.305 -1718)"/><path class="br" d="M1959.632,1767.09s1.131-4.727,4.537-4.079,11.141,4.854,13.134,4.079,4.542-2.629,5.85-1.974l-2.3,2.864s5.921-3.416,6.941-1.317l-9.853,5.544S1963.523,1770.764,1959.632,1767.09Z" transform="translate(-1870.638 -1722.055)"/><path class="bs" d="M1359.217,1830.234a2.068,2.068,0,0,1-1.357-1.742c-.972-9.43-5.678-67.9,24.032-91.949,0,0,1.7-4.458,15.709,6.5s6.507,22.444,3.154,38.286c-4.057,19.171-11.176,34.841-8.027,46.638a1.635,1.635,0,0,1-1,1.96A46.388,46.388,0,0,1,1359.217,1830.234Z" transform="translate(-1357.002 -1698.783)"/><path class="bt" d="M1535.5,1623.094c-.009.832-11.873,17.683-11.873,17.683s2.129,4.194,12.3,7.6l8.775-18.042Z" transform="translate(-1499.021 -1602.853)"/><path class="bu" d="M1572.434,1932.907s22.509,18.851,46.814,10.626a5.787,5.787,0,0,1,4.563.344l6.988,3.69a6.238,6.238,0,0,0,8.267-2.315,13.131,13.131,0,0,0,1.964-5.256l-13.673-5.535,1.008-1.677s-6.676-.566-8.423,4.219c0,0-12.715,5.289-34.159-18.3C1585.784,1918.706,1576.053,1926.98,1572.434,1932.907Z" transform="translate(-1540.62 -1854.81)"/><path class="bv" d="M1482.125,1912.862a.379.379,0,0,1-.215-.066c-9.477-6.4-13.936-16.739-13.98-16.843a.385.385,0,0,1,.71-.3c.043.1,4.419,10.233,13.7,16.506a.385.385,0,0,1-.216.7Z" transform="translate(-1451.522 -1834.96)"/><path class="bw" d="M1516.776,1792.7a.386.386,0,0,1-.324-.177c-.029-.044-2.924-4.552-8.439-14.426a11.114,11.114,0,0,0-6.624-5.715c-4.471-1.249-8.779,1.148-8.822,1.172a.385.385,0,0,1-.381-.67,13.452,13.452,0,0,1,9.4-1.246c2.908.811,5.3,2.858,7.1,6.082,5.5,9.85,8.385,14.341,8.414,14.386a.385.385,0,0,1-.115.532A.379.379,0,0,1,1516.776,1792.7Z" transform="translate(-1472.056 -1729.121)"/><g transform="translate(21.316)"><path class="bx" d="M1569.562,1557.708s4.221,9.7,4.5,14.787,1.38,8.392-4.5,9.417-10.843-1.907-13.529-6.977c0,0-4.208-7.812-3.264-11.012S1569.562,1557.708,1569.562,1557.708Z" transform="translate(-1545.058 -1547.123)"/><path class="by" d="M1514.332,1510.2l.335-.148a.808.808,0,0,0,.395-1.11c-.83-1.6-2.448-5.278-.358-6.135,2.693-1.1,13.362-3.28,15.664-7.066a7.044,7.044,0,0,0-2.694-9.671.406.406,0,0,0-.531.173l-.245.465a.4.4,0,0,1-.738-.076h0a.4.4,0,0,0-.72-.1c-.707,1.133-2.618,2.969-7.726,3.912-7.26,1.34-12.06,4.278-12.18,9.3a.4.4,0,0,1-.619.33c-.536-.327-1.394-.48-2.541.484-1.994,1.677-1.178,6.026,3.193,9.6a.4.4,0,0,1-.019.64c-.792.516-1.974,1.743,1.087,3.379a10.307,10.307,0,0,0,6.44,1.4.4.4,0,0,0,.323-.481l-.972-4.409a.4.4,0,0,1,.391-.486Z" transform="translate(-1501.345 -1486.029)"/><path class="bz" d="M1559.917,1628.481s-1.61-6.194-4.387-4.458,1.441,6.941,3.674,7.172Z" transform="translate(-1546.748 -1603.383)"/></g><path class="ca" d="M1920.341,2063.17s5.72,5.595,6.823,4.78a20.112,20.112,0,0,0,2.345-2.514,2.456,2.456,0,0,0,.167-2.893l-1.349-2.082a3.9,3.9,0,0,0-5.821-.848A7.069,7.069,0,0,0,1920.341,2063.17Z" transform="translate(-1837.149 -1974.104)"/><path class="cb" d="M2418.28,1836.929c-3.082-14.641-6.165-23.118-16.486-50.871-3.248-8.733-6.2-17.57-4.772-26.778l1.6-10.342s20.058-6.787,42.292-.286c0,0,30.334,13.178,9.73,78.259C2441.358,1837.3,2430.49,1840.263,2418.28,1836.929Z" transform="translate(-2243.122 -1707.468)"/><path class="cc" d="M2433.111,1658.3l5.2,12.5a2.489,2.489,0,0,0,1.881,1.5c3,.514,10.251,1.317,15.014-1.814a1.211,1.211,0,0,0,.324-1.7l-9.609-13.8Z" transform="translate(-2274.196 -1630.033)"/><g transform="translate(170.882 70.63)"><path class="cd" d="M2515.007,1989.988a1.155,1.155,0,0,0-.729,1.651l15.047,28.852a1.155,1.155,0,0,0,1.344.576l49.219-14.211a1.154,1.154,0,0,0,.789-1.43l-8.478-29.351a1.155,1.155,0,0,0-1.4-.8Z" transform="translate(-2514.146 -1973.625)"/><path class="ce" d="M2536.114,1977.278a1.209,1.209,0,0,0-.854,1.594l12.045,32.718a1.209,1.209,0,0,0,1.47.744l49.071-14.168a1.209,1.209,0,0,0,.846-1.417l-6.8-31.49a1.209,1.209,0,0,0-1.462-.921Z" transform="translate(-2532.078 -1964.305)"/><path class="cf" d="M2563.086,1986.608a1.494,1.494,0,0,0-1.231,1.814l8.181,35.321a1.494,1.494,0,0,0,1.87,1.1l48.327-13.953a1.494,1.494,0,0,0,1.032-1.808l-7.432-28.831a1.494,1.494,0,0,0-1.671-1.1Z" transform="translate(-2554.777 -1976.938)"/></g><path class="cg" d="M2655.97,1831.718c3.751-28.334-18.084-50.121-18.084-50.121l-12.991,15.145c9.863,12.294,14.552,23.559,16.693,32.408C2644.428,1828.323,2651.267,1827.016,2655.97,1831.718Z" transform="translate(-2437.657 -1737.949)"/><path class="ch" d="M2636.943,1912.724a.8.8,0,0,1-.781-.615c-2.64-10.907-8.2-21.706-16.539-32.094a.8.8,0,1,1,1.255-1.007c8.483,10.574,14.152,21.584,16.848,32.722a.8.8,0,0,1-.593.971A.782.782,0,0,1,2636.943,1912.724Z" transform="translate(-2433.013 -1820.718)"/><path class="ci" d="M2661.414,2098.888a52.063,52.063,0,0,1,1.479,17.289,2.281,2.281,0,0,1-2.109,2.044c-1.258.088-2.971.2-4.5.292-1.682.1-3.549-.966-4.8-1.855a.751.751,0,0,0-1.106.949c.932,1.823,3.3,3.446,4.927,4.4a.778.778,0,0,1-.18,1.421l-6.97,1.976c11.453,10.791,19.015-1.283,19.015-1.283a54.621,54.621,0,0,0,8.625-22.666C2671.092,2096.754,2664.254,2098.061,2661.414,2098.888Z" transform="translate(-2457.483 -2007.686)"/><g transform="translate(152.242 1.162)"><path class="cj" d="M2416.329,1544.093c-.219.206-9.219,17.88-9.219,17.88l10.2,4.924,11.019-15.484S2419.986,1540.651,2416.329,1544.093Z" transform="translate(-2404.276 -1536.102)"/><path class="ck" d="M2407.338,1511.068l-5.088,8.481a1.586,1.586,0,0,1-.279.347c-.605.564-2.678,2.2-4.28-.029-1.365-1.9-2.646-3.633-4.019-4.346a1.626,1.626,0,0,0-2.2.723,60.712,60.712,0,0,0-3.482,8.26,1.62,1.62,0,0,0,.943,1.986,45.123,45.123,0,0,0,9.771,2.85,1.627,1.627,0,0,0,1.538-.654c1.559-2.135,5.951-8.1,7.451-9.6,1.393-1.388,3.964-.865,5.123-.532a1.635,1.635,0,0,0,1.3-.171c1.175-.708,3.226-2.471,1.35-5.456a1.628,1.628,0,0,1,.5-2.212,3.6,3.6,0,0,0,1.38-5.107,5.075,5.075,0,0,0-5.5-2.69,1.69,1.69,0,0,1-1.773-.986,1.077,1.077,0,0,0-.84-.661,1.579,1.579,0,0,1-1.278-1.855,4.168,4.168,0,0,0-2.327-4.775c-4.4-2.42-8.257,1.523-9.237,4.852s3.941,5.681,7.036,6.074c2.274.288,3.521,2.77,4.022,4.067A1.63,1.63,0,0,1,2407.338,1511.068Z" transform="translate(-2387.92 -1493.898)"/><path class="cl" d="M2508.907,1653.707s1.957-5.727,4.463-5.517,4.477,2.706,1.372,5.512C2510.88,1657.192,2508.907,1653.707,2508.907,1653.707Z" transform="translate(-2491.04 -1625.4)"/></g><g transform="translate(172.385 241.747)"><path class="cm" d="M2525.119,3236.476c4.844.419,13.252,1.1,19.88,1.391,3.984.175,6.278-.215,7.6-.744,0,.149-.006.29-.012.42a1.371,1.371,0,0,1-1.3,1.295,232.958,232.958,0,0,1-26.031.026.976.976,0,0,1-.8-1.467A8.061,8.061,0,0,1,2525.119,3236.476Z" transform="translate(-2524.32 -3219.724)"/><path class="cn" d="M2549.608,3181.409c-6.628-.292-15.036-.972-19.881-1.391,4.763-5.843,19.881-9.782,19.881-9.782h4.27a17.905,17.905,0,0,1,3.33,10.429C2555.886,3181.194,2553.592,3181.584,2549.608,3181.409Z" transform="translate(-2528.929 -3163.266)"/><path class="co" d="M2652.157,3123.035l-.4,7.907a1.805,1.805,0,0,1-1.542,1.7,7.025,7.025,0,0,1-3.207-.266,2.137,2.137,0,0,1-1.436-1.643l-1.381-7.7Z" transform="translate(-2626.49 -3123.035)"/></g><g transform="translate(239.173 234.357)"><g transform="translate(1.881 7.338)"><path class="cp" d="M3031.486,3230.767a3.835,3.835,0,0,0,3.45-2.551l.008.031a2.73,2.73,0,0,1-1.84,3.113,12.014,12.014,0,0,1-5.094.8,5.064,5.064,0,0,1-3.82-1.761l-.012-.016C3025.761,3231.164,3027.982,3231.256,3031.486,3230.767Z" transform="translate(-3019.03 -3212.632)"/><path class="cq" d="M2991.867,3122.686h3.521c5.363-.11,8.731,11.2,9.833,15.584a3.834,3.834,0,0,1-3.45,2.551c-3.5.489-5.725.4-7.308-.386-2.9-3.813-4.334-9.4-5.024-12.657A4.444,4.444,0,0,1,2991.867,3122.686Z" transform="translate(-2989.316 -3122.686)"/></g><path class="cr" d="M2984.079,3073l1.955,7.777a2.111,2.111,0,0,1-1.1,2.392,7.492,7.492,0,0,1-4.049.98,1.763,1.763,0,0,1-1.438-1.176l-2.871-8.182Z" transform="translate(-2976.578 -3072.997)"/></g><path class="cs" d="M2612.5,2414.482c-2.433,2.158-10.345,2.443-10.345,2.443-28.5-68.407-40.384-87.239-40.384-87.239,4.115,25.82.887,92.1.887,92.1-4.7,2.075-10.767,0-10.767,0-.382-42.271-6.333-87.692-14.009-116.755,19.264-.433,29.733-4.633,33.078-7.278C2587.017,2323.636,2612.5,2414.482,2612.5,2414.482Z" transform="translate(-2363.493 -2177.876)"/></g></g></svg>