<svg xmlns="http://www.w3.org/2000/svg" width="761.855" height="351.147" viewBox="0 0 761.855 351.147"><defs><style>.a{fill:#ebf3fa;}.b{fill:#c0d8fb;}.c{fill:#dfebfd;}.d{fill:#b7d3f3;}.e{fill:#82b378;}.f{fill:#a8d29f;}.g{fill:#8cb4f4;}.h{fill:#99c3ff;}.i{fill:#2a4e96;}.j{fill:#c3dafc;}.k{fill:#d4e4f8;}.l{fill:#9dc3f3;}.m{fill:#e3f0ff;}.n{fill:#fff;}.o{fill:#b0d4ff;}.p{fill:#d2e3fc;}.q{fill:#afcdfb;}.r{fill:#aac8e8;}.s{fill:#9fc3f7;}.t{fill:#8bb3ee;}.u{fill:#77a4e5;}.v{fill:#ffb27d;}.w{fill:#ed975d;}.x{fill:#2c3a64;}.y{fill:#ff9e55;}.z{fill:#ed823a;}.aa{fill:#a9453d;}.ab{fill:#9abfe2;}.ac{fill:#bad4f4;}.ad{fill:#c8dbf4;}.ae{fill:#618dc1;}.af{fill:#dd732c;}.ag{fill:#d8702a;}.ah{fill:#c15e1b;}.ai{fill:#9fc1f4;}.aj{fill:#ff9843;}.ak{fill:#ffc48a;}.al{fill:#2e3552;}</style></defs><g transform="translate(-163.561 -291.03)"><path class="a" d="M891.081,640.973l-702.525-1.165c0-6.583-76.09-230,37.251-301.381,53.269-33.55,101.071-46.4,143.29-47.341.514-.015,1.027-.023,1.538-.029,104.132-1.62,174.091,69.032,208.231,78.822,121,34.7,167.335-45.577,261.817-19.044C947.376,380.794,940.1,565.91,891.081,640.973Z" transform="translate(0)"/><g transform="translate(704.675 402.381)"><path class="b" d="M10.974,0H28.942A10.975,10.975,0,0,1,39.917,10.975V27.751A10.975,10.975,0,0,1,28.942,38.726H10.974A10.974,10.974,0,0,1,0,27.752V10.974A10.974,10.974,0,0,1,10.974,0Z"/><path class="c" d="M10.024,0H26.435A10.024,10.024,0,0,1,36.459,10.024V25.347A10.023,10.023,0,0,1,26.435,35.371H10.023A10.023,10.023,0,0,1,0,25.347V10.024A10.024,10.024,0,0,1,10.024,0Z" transform="translate(1.729 1.678)"/><g transform="translate(4.713 4.385)"><g transform="translate(14.419)"><path class="d" d="M2316.97,736.711a.827.827,0,1,1,.827.827A.827.827,0,0,1,2316.97,736.711Z" transform="translate(-2316.97 -735.884)"/><path class="d" d="M2342.319,742.344a.827.827,0,1,1,.321,1.124A.827.827,0,0,1,2342.319,742.344Z" transform="translate(-2335.647 -740.349)"/><path class="d" d="M2363.51,760.633a.827.827,0,1,1-.246,1.143A.827.827,0,0,1,2363.51,760.633Z" transform="translate(-2351.122 -754.097)"/><path class="d" d="M2373.118,788.026a.827.827,0,1,1-.827.827A.827.827,0,0,1,2373.118,788.026Z" transform="translate(-2357.898 -774.46)"/><path class="d" d="M2365.9,818.691a.827.827,0,1,1-1.169,0A.826.826,0,0,1,2365.9,818.691Z" transform="translate(-2352.125 -796.969)"/><path class="d" d="M2345.941,838.7a.827.827,0,1,1-1.169,0A.827.827,0,0,1,2345.941,838.7Z" transform="translate(-2337.359 -811.772)"/><path class="d" d="M2316.97,847.352a.827.827,0,1,1,.827.827A.827.827,0,0,1,2316.97,847.352Z" transform="translate(-2316.97 -817.74)"/></g><g transform="translate(0 1.57)"><path class="d" d="M2293.173,742.344a.827.827,0,1,0-.321,1.124A.827.827,0,0,0,2293.173,742.344Z" transform="translate(-2283.798 -741.919)"/><path class="d" d="M2271.982,760.633a.827.827,0,1,0,.247,1.143A.827.827,0,0,0,2271.982,760.633Z" transform="translate(-2268.324 -755.667)"/><path class="d" d="M2262.375,788.026a.827.827,0,1,0,.826.827A.827.827,0,0,0,2262.375,788.026Z" transform="translate(-2261.548 -776.031)"/><path class="d" d="M2269.594,818.691a.827.827,0,1,0,1.169,0A.826.826,0,0,0,2269.594,818.691Z" transform="translate(-2267.321 -798.539)"/><path class="d" d="M2289.552,838.7a.827.827,0,1,0,1.169,0A.826.826,0,0,0,2289.552,838.7Z" transform="translate(-2282.087 -813.342)"/></g></g><g transform="translate(19.736 8.448)"><path class="d" d="M2319.291,788.853a.827.827,0,1,1,.827.827A.827.827,0,0,1,2319.291,788.853Z" transform="translate(-2319.291 -778.523)"/><g transform="translate(0.714)"><rect class="d" width="0.226" height="10.33"/></g><g transform="translate(0.514 5.749)"><rect class="d" width="6.962" height="0.677" transform="translate(0 4.3) rotate(-38.146)"/></g></g></g><g transform="translate(634.918 474.903)"><g transform="translate(5.258 25.088)"><path class="e" d="M2019.831,1104.85s4.4-5.129.271-8.387c0,0-3.013-1.824-5.47-1.676,0,0,3.481,5.838,2.355,6.419s-3.41-6.785-3.41-6.785-6.857-.665-9.063.4c0,0,5.862,4.8,4.627,5.083s-7.566-4.423-7.566-4.423-6.382,1.086-6.042,4.979,2.539,5.1,3.506,4.992,6.62-2.262,6.743-1.47-3.28,3.38-5.663,3.5c0,0,4.5,4.962,7.49,3.53s3.246-3.7,5.11-4.553,3.455-.849,2.686.019-4.143,1.712-5.209,3.6-2.023,3.157,1.071,2.692,8.123-2.729,8.344-5.321Z" transform="translate(-1995.52 -1094.215)"/><g transform="translate(3.149 6.315)"><path class="e" d="M2007.623,1118.519s17.334-.668,21.162,4.289a12.541,12.541,0,0,0,3.451,4.844l.406,1.106s-3-3.167-4.078-3.359C2028.564,1125.4,2030.245,1119.259,2007.623,1118.519Z" transform="translate(-2007.623 -1118.489)"/><path class="e" d="M2099.447,1152.471a10.884,10.884,0,0,1,3.979,7.668l-.675.06s-1.188-5.084-3.336-7.072S2099.447,1152.471,2099.447,1152.471Z" transform="translate(-2074.833 -1143.307)"/></g></g><g transform="translate(40.342 11.163)"><path class="f" d="M2134.969,1058.8s-6.993-3.916-3.73-9.231c0,0,2.611-3.264,5.408-4.1,0,0-1.492,7.926,0,8.112s1.026-8.952,1.026-8.952,7.366-3.543,10.257-3.264c0,0-4.569,7.739-3.077,7.553s6.621-8.019,6.621-8.019,7.553-1.4,8.765,3.077-.746,6.714-1.865,6.993-8.3.187-8.112,1.119,5.035,2.425,7.739,1.585c0,0-2.983,7.366-6.9,6.993s-5.128-2.8-7.553-2.984-4.2.466-2.984,1.119,5.315.214,7.273,1.879,3.543,2.69-.093,3.436-10.164.28-11.47-2.517Z" transform="translate(-2130.372 -1040.691)"/><g transform="translate(0.904 4.683)"><path class="e" d="M2164.559,1058.69s-19.581,6.34-21.819,13.427a14.878,14.878,0,0,1-1.865,6.807v1.4s2.052-4.756,3.17-5.408C2144.045,1074.915,2139.663,1068.76,2164.559,1058.69Z" transform="translate(-2139.046 -1058.69)"/><path class="e" d="M2135.675,1133.988a12.915,12.915,0,0,0-1.3,10.168l.777-.209s-.754-6.148.826-9.24S2135.675,1133.988,2135.675,1133.988Z" transform="translate(-2133.846 -1113.754)"/></g></g><g transform="translate(0 0)"><path class="f" d="M2009.124,1021.655s9.218-5.162,4.917-12.168c0,0-3.442-4.3-7.129-5.408,0,0,1.967,10.448,0,10.694s-1.352-11.8-1.352-11.8-9.71-4.671-13.521-4.3c0,0,6.023,10.2,4.056,9.956s-8.727-10.571-8.727-10.571-9.956-1.844-11.554,4.056.983,8.85,2.458,9.218,10.94.246,10.694,1.475-6.637,3.2-10.2,2.09c0,0,3.933,9.71,9.1,9.218s6.76-3.687,9.956-3.933,5.531.615,3.933,1.475-7.006.282-9.587,2.477-4.671,3.547.123,4.53,13.4.369,15.118-3.319Z" transform="translate(-1975.31 -997.783)"/><g transform="translate(5.052 6.172)"><path class="e" d="M1994.729,1021.508s25.811,8.358,28.761,17.7a19.61,19.61,0,0,0,2.458,8.973v1.844s-2.7-6.268-4.179-7.129C2021.77,1042.9,2027.546,1034.783,1994.729,1021.508Z" transform="translate(-1994.729 -1021.508)"/><path class="e" d="M2111.221,1120.764a17.024,17.024,0,0,1,1.711,13.4l-1.024-.275s.994-8.1-1.089-12.181S2111.221,1120.764,2111.221,1120.764Z" transform="translate(-2080.001 -1094.092)"/></g></g><path class="g" d="M2055.123,1185.526a18.058,18.058,0,0,1-18.058-18.057h36.115A18.058,18.058,0,0,1,2055.123,1185.526Z" transform="translate(-2020.998 -1123.322)"/><path class="h" d="M2069.243,1185.387a18.07,18.07,0,0,1-20.3-17.919h4.486A18.061,18.061,0,0,0,2069.243,1185.387Z" transform="translate(-2029.786 -1123.322)"/><path class="g" d="M2036.106,1234.073h36.614a2.228,2.228,0,0,0-2.228-2.228h-32.158a2.228,2.228,0,0,0-2.228,2.228Z" transform="translate(-2020.289 -1170.95)"/><rect class="h" width="37.12" height="0.554" transform="translate(52.776 44.7) rotate(180)"/></g><path class="i" d="M657.7,1215.059l2.69,13.747-5.8.487-6.545-13.381Z" transform="translate(-358.438 -683.627)"/><path class="i" d="M1373.442,1124.679l2.69,13.747-5.8.487-6.545-13.381Z" transform="translate(-887.966 -616.761)"/><g transform="translate(281.191 606.571)"><rect class="j" width="40.946" height="33.763" transform="translate(40.946 33.763) rotate(180)"/><rect class="k" width="40.946" height="33.763" transform="translate(61.419 33.763) rotate(180)"/><path class="l" d="M615.785,1591.831h6.488l-.572-1.826.572-1.3h-6.488Z" transform="translate(-615.761 -1566.631)"/><path class="m" d="M694.385,1535.13h6.488l-.572-1.826.572-1.3h-6.488Z" transform="translate(-673.912 -1524.682)"/><path class="l" d="M675.935,1532h-6.488l.572,1.826-.572,1.3h6.488Z" transform="translate(-655.462 -1524.682)"/><path class="m" d="M833.322,1602.126h-6.488l.572,1.826-.572,1.3h6.488Z" transform="translate(-771.902 -1576.563)"/><rect class="n" width="11.783" height="4.584" transform="translate(46.955 2.289)"/></g><g transform="translate(346.998 606.571)"><rect class="j" width="40.946" height="33.763" transform="translate(40.946 33.763) rotate(180)"/><rect class="k" width="40.946" height="33.763" transform="translate(61.419 33.763) rotate(180)"/><path class="l" d="M868.725,1591.831h6.488l-.572-1.826.572-1.3h-6.488Z" transform="translate(-868.701 -1566.631)"/><path class="m" d="M947.325,1535.13h6.488l-.572-1.826.572-1.3h-6.488Z" transform="translate(-926.852 -1524.682)"/><path class="l" d="M928.874,1532h-6.488l.572,1.826-.572,1.3h6.488Z" transform="translate(-908.401 -1524.682)"/><path class="m" d="M1086.262,1602.126h-6.488l.572,1.826-.572,1.3h6.488Z" transform="translate(-1024.842 -1576.563)"/><rect class="n" width="11.783" height="4.584" transform="translate(46.955 2.289)"/></g><g transform="translate(316.312 573.2)"><rect class="j" width="40.946" height="33.763" transform="translate(40.946 33.763) rotate(180)"/><rect class="k" width="40.946" height="33.763" transform="translate(61.419 33.763) rotate(180)"/><path class="l" d="M750.777,1463.565h6.488l-.571-1.826.571-1.3h-6.488Z" transform="translate(-750.753 -1438.365)"/><path class="m" d="M829.377,1406.864h6.488l-.572-1.826.572-1.3h-6.488Z" transform="translate(-808.904 -1396.415)"/><path class="l" d="M810.927,1403.733h-6.488l.572,1.826-.572,1.3h6.488Z" transform="translate(-790.454 -1396.415)"/><path class="m" d="M968.314,1473.859h-6.488l.572,1.826-.572,1.3h6.488Z" transform="translate(-906.894 -1448.297)"/><rect class="n" width="11.783" height="4.584" transform="translate(46.955 2.289)"/></g><g transform="translate(195.209 386.747)"><g transform="translate(59.735 0)"><path class="o" d="M791.528,727.959c-.55,1.69-7.351,3.941-17.541,6.386q-2.694.647-5.687,1.31c-34.749,7.7-130.841,20.316-136.9,19.816-8.376-.69-33.09-76.2-33.09-76.2s47.986-6,86.121-10.521c13.046-1.545,58.439-6.8,66.863-7.713C764.34,659.619,792.415,725.222,791.528,727.959Z" transform="translate(-576.583 -660.473)"/><path class="p" d="M1212.4,717.949s-20.5-51.352-22.053-55.687a3.683,3.683,0,0,0-3.724-2.515c2.569-.515,4.454-.738,4.454-.738a11.973,11.973,0,0,1,12.151,6.778c4.707,10.047,13.984,29.322,22.778,48.2C1225.673,714.015,1212.4,717.949,1212.4,717.949Z" transform="translate(-1011.842 -658.939)"/><path class="p" d="M1454.743,870.448c-.912,13.539-15.385,23.668-31.171,25.381l-31.267,3.393-5.9-77.006s28.866-12.353,37.229-5.144c7.327,6.315,28.148,32.2,30.872,48.569A20.689,20.689,0,0,1,1454.743,870.448Z" transform="translate(-1159.64 -774.261)"/><path class="q" d="M1516.834,1028.654c-.912,13.539-15.385,23.668-31.171,25.381l-15.337,1.664C1479.891,1048.484,1487.1,1028.665,1516.834,1028.654Z" transform="translate(-1221.731 -932.466)"/><path class="r" d="M1310.252,837.565s40.122-23.539,49.455-12.02c4.956,6.116,19.477,31.087,22.125,47.459,2.573,15.908-12.023,28.136-28.213,29.893l-28.754,3.12Z" transform="translate(-1103.303 -779.851)"/><path class="s" d="M1029.08,919.911q-.643.6-1.324,1.188a67.821,67.821,0,0,1-22.083,12.137,97.506,97.506,0,0,1-22,4.759L970,939.484l-.186.02-64.717,7.04L868,950.58l-.548.059,0-.015-1.971-6.167-18.648-62.329s162.19-21.07,176.175-15.437c6.494,2.615,11.452,15.83,15.009,30.6C1039.905,905.156,1036.362,913.115,1029.08,919.911Z" transform="translate(-760.447 -811.933)"/><path class="t" d="M1082.109,1073.973q-.643.6-1.324,1.188A67.819,67.819,0,0,1,1058.7,1087.3a97.509,97.509,0,0,1-22,4.76l-13.672,1.488-.185.02-64.717,7.04-37.1,4.036-.553.045-1.972-6.167c22.291-6.583,53.3-14.178,86.158-17.416C1036.043,1078.012,1062.284,1075.124,1082.109,1073.973Z" transform="translate(-813.476 -965.995)"/><path class="p" d="M860.513,936.076c-1.137,13.158-14.165,22.832-28.426,24.38l-28.754,3.12L797.18,885.91s26.519-11.411,34.28-4.136c6.8,6.373,26.19,32.417,28.839,48.789A22.271,22.271,0,0,1,860.513,936.076Z" transform="translate(-723.715 -822.005)"/><path class="q" d="M894.344,1097.391c-1.138,13.158-14.165,22.832-28.426,24.38l-23.01,2.5C852.981,1116.669,865.555,1097.331,894.344,1097.391Z" transform="translate(-757.547 -983.32)"/><path class="u" d="M635.207,824.594a23.514,23.514,0,0,1-6.68,13.642l0,0a32.019,32.019,0,0,1-7.634,5.8A37.514,37.514,0,0,1,609.3,848.1l-.64.106c-.17.026-.341.052-.511.075q-.427.063-.854.116l-.456.052-28.754,3.12,0-.012-1.658.2c-2.956.353-6.045.718-8.911,1.052l-1.419.165c-.174.021-.348.04-.517.058-2.832.325-5.338.6-7.126.788a53.935,53.935,0,0,1-7.163.289,35.335,35.335,0,0,1-8.142-1.137c-.449-.121-.892-.25-1.328-.392s-.883-.3-1.315-.461a25.4,25.4,0,0,1-3.321-1.535,26.07,26.07,0,0,1-7.378-6.14,35.893,35.893,0,0,1-4.165-6.241,57.678,57.678,0,0,1-4.084-10c-.031-.1-.062-.192-.091-.29q-.806-2.609-1.506-5.51-.318-1.322-.615-2.706-1.051-4.888-1.84-10.566-.069-.495-.136-1l-.029-.222q-.6-4.519-1.048-9.546-.2-2.2-.368-4.508-.078-1.048-.149-2.116-.359-5.364-.581-11.259-.1-2.649-.175-5.409-.306-11.375-.183-24.682c.083-10.083.671-17.189,2.451-18.986,2.626-2.651,8.532-4.244,12.672-5.075h0c2.567-.516,4.452-.738,4.452-.738.093-.01.186-.019.279-.027.066-.005.132-.011.2-.015.159-.011.319-.019.478-.023.088,0,.179,0,.268-.005.06,0,.118,0,.176,0,.089,0,.178,0,.265,0,.158,0,.314.012.471.023.107.008.215.017.323.028a.14.14,0,0,1,.028,0c.078.007.155.015.234.026.149.016.3.037.442.059.1.016.2.033.3.051l.208.04a12.138,12.138,0,0,1,2.4.747,11.9,11.9,0,0,1,6.091,5.893c4.4,9.408,12.251,26.228,20.435,43.825.04.088.083.177.123.265q.705,1.515,1.414,3.04c.047.1.094.206.143.308l.073.155c.335-.176.681-.359,1.04-.543a.223.223,0,0,1,.037-.02c1.423-.742,3.037-1.561,4.782-2.4h0c.9-.437,1.842-.885,2.812-1.333,2.734-1.265,5.693-2.545,8.71-3.7,1.337-.513,2.689-1,4.035-1.451,1.728-.578,3.449-1.1,5.136-1.524l.146-.039c.2-.05.4-.1.6-.146,1.191-.286,2.359-.528,3.5-.714h0c5.813-.949,10.768-.447,13.358,2.757a63.783,63.783,0,0,1,3.839,5.551,181.754,181.754,0,0,1,10.762,19.91c3.5,7.584,6.475,15.556,7.54,22.142A22.31,22.31,0,0,1,635.207,824.594Z" transform="translate(-514.805 -708.2)"/><path class="p" d="M598.843,784.534s-20.5-51.352-22.053-55.687a3.682,3.682,0,0,0-3.724-2.515c2.569-.515,4.454-.738,4.454-.738a11.974,11.974,0,0,1,12.152,6.778c4.706,10.047,13.376,28.574,22.17,47.449C611.5,779.852,598.843,784.534,598.843,784.534Z" transform="translate(-557.908 -708.201)"/></g><path class="v" d="M1454.515,1130.055c-.159-.093-5.1,1.173-6.482,1.2-1.209.027-5.754-1-6.266-2.127-.073-.161,5.257-.485,6.1-1.013a7.13,7.13,0,0,1,3.675-1.292,11.963,11.963,0,0,0,2.285-.007Z" transform="translate(-1140.867 -1005.093)"/><g transform="translate(54.661 33.949)"><path class="v" d="M500.446,883.779s4.777,7.792,12.632,6.025a22.726,22.726,0,0,0,2.634-6.458c.056-.35.112-.688.166-1.01.525-3.2.905-4.978.905-4.978l-.007,0c-.316-.192-10.632-6.375-10.68-6C504.971,880.048,500.446,883.779,500.446,883.779Z" transform="translate(-499.108 -850.029)"/><path class="w" d="M525.192,879.808a17.4,17.4,0,0,0,8.99,8.746c.525-3.2.905-4.978.905-4.978l-.007,0C534.788,883.445,524.964,879.18,525.192,879.808Z" transform="translate(-517.413 -856.247)"/><path class="v" d="M532.216,833.715s-12.812,1.034-13.333-6.954-2.525-13.235,5.632-14.233,9.948,1.946,10.77,4.57S535.535,833.24,532.216,833.715Z" transform="translate(-512.306 -806.37)"/><path class="i" d="M502.1,811.988c-.185.082-2.971.5-6.491-10.309a8.846,8.846,0,0,1,1.726-7.923c2.3-2.734,9.2-4.112,14.792-4.32s6.432,3.048,7.246,6.315c.855,3.43,4.332,6.674,4.332,6.674-5.083,1.908-10.16-2.691-12.209-2.372s-3.206,3.3-3.5,4.262-.646,1.753-2.971.5-1.64,3.316-1.373,4.211C503.653,809.023,503.65,811.3,502.1,811.988Z" transform="translate(-495.303 -789.427)"/></g><g transform="translate(0 64.546)"><path class="x" d="M487.931,1605.359H467.848a1.8,1.8,0,0,1-.426-.124c-1.341-.671-.921-5.805-.76-7.391.031-.293.053-.466.053-.466s7.062-5.648,8.034-1.323c.031.135.066.267.1.4v0c1.226,4.047,6.706,5.885,9.871,6.4C487.143,1603.245,487.77,1604.654,487.931,1605.359Z" transform="translate(-419.311 -1415.588)"/><path class="x" d="M301.08,1583.236H293.5c-1.588,0-3.353-1.59-3.795-4.5s-3.707-4.5-4.413-6.885,2.914-5.739,2.914-5.739l.605-.777.63-.811,6,1.411s.148,1.429.241,3.25a41.482,41.482,0,0,1,.024,4.166c-.177,3.179.89,6.6,3.713,7.219S301.08,1583.236,301.08,1583.236Z" transform="translate(-285.204 -1393.466)"/><path class="y" d="M448.184,1186.033s-1.072,13.381-2.333,29.466c-1.713,21.85-3.774,48.689-3.977,53.773-.352,8.829-1.766,22.952-1.766,22.952s-3.353,3.355-10.063,1.941a231.028,231.028,0,0,1-7.688-41.491c-.027-.35-.053-.7-.079-1.054-1.589-21.714-4.06-67.44-4.06-67.44Z" transform="translate(-383.612 -1112.075)"/><path class="z" d="M442.77,1188.675s2.112,4.815-1.749,20.481c-2.833,11.493-18.664,43.517-18.664,43.517-.027-.35-.053-.7-.079-1.054-1.589-21.714-4.06-67.44-4.06-67.44Z" transform="translate(-383.612 -1112.075)"/><path class="y" d="M354.324,1170.081s-20.233,50.941-32.944,73.715-16.683,29.13-16.683,29.13-7.282-2.913-7.944-4.9c0,0,4.861-43.966,13.373-54.684,4.81-6.056,10.46-24.23,10.725-30.586s1.721-18.934,1.721-18.934Z" transform="translate(-293.748 -1097.014)"/><path class="i" d="M436.613,982.4c-2.729-.771-30.561-11.678-30.018-13.256,1.886-5.487,3.835-14.755,6.163-26.024q.658-3.148,1.462-6.184a96.072,96.072,0,0,1,5.037-14.534c3.6-8.038,9.45-13.491,14.127-15.354.609-.229,1.887,1.7,4.391,3.9,2.313,2.031,4.718,1.993,7.376,2.161l2.145,3.8A30.946,30.946,0,0,1,450.71,928.6S436.857,982.471,436.613,982.4Z" transform="translate(-375.007 -907.034)"/><path class="y" d="M442.872,987.378l-8.328-.9-20.619,25.012a11.117,11.117,0,0,1-12.241,3.425h0l-5.691,17.7,34.984,11.293Z" transform="translate(-367.169 -965.812)"/><path class="z" d="M509.38,916.655c-1.212-2.292-5.365-8.876-5.365-8.876s.516-.277.695-.36.755-.313.755-.313c.824.105,5.208,6.651,6.572,9.1,1.643,2.954,5.585,11.893,5.585,11.893l-3.159-.347S510.807,919.354,509.38,916.655Z" transform="translate(-447.088 -907.087)"/></g><g transform="translate(43.603 70.934)"><path class="v" d="M562.018,1188.808a9.013,9.013,0,0,0,3.311,1.04,14.386,14.386,0,0,1,3.932.532c1.831.391,1.906,1.009.546,1.313s-2.9-.279-2.209.456,7.23,1.364,7.149,2.2-6.027,3.245-8.2,2.487-7.264-5.212-7.264-5.212Z" transform="translate(-531.576 -1121.888)"/><path class="i" d="M482.947,1001.189c1.887-1.466,1.359-2.651,1.359-2.651s-12.888-20.99-13.779-22.957,1.019-27.316,1.019-27.316,1.173-10.11-3.768-13.109c-4.293-2.606-5.708-4.743-8.8-2.839-3.679,2.269-6.84,10.735-6.067,14.988,1.735,9.546,3.976,27.637,5.724,31.305,3.891,8.165,21.185,23.982,21.185,23.982A7.527,7.527,0,0,0,482.947,1001.189Z" transform="translate(-452.799 -931.588)"/></g><g transform="translate(311.719 31.835)"><path class="v" d="M1661.511,887.294s-7.077,5.783-13.912,1.527a22.725,22.725,0,0,1-.359-6.965c.063-.349.122-.687.176-1.009.558-3.192.785-5,.785-5h.008c.361-.077,12.139-2.516,12.06-2.145C1658.468,882.281,1661.511,887.294,1661.511,887.294Z" transform="translate(-1604.485 -849.636)"/><path class="w" d="M1659.742,880.417a17.4,17.4,0,0,1-11.37,5.3c.558-3.192.785-5,.785-5h.008C1649.483,880.69,1660.164,879.9,1659.742,880.417Z" transform="translate(-1605.44 -854.501)"/><path class="v" d="M1639.737,823.959s11.756,5.2,14.88-2.174,6.745-11.664-.629-15.294-10.034-1.44-11.675.767S1636.76,822.418,1639.737,823.959Z" transform="translate(-1598.248 -798.507)"/><path class="aa" d="M1647.844,806.6c.148.139,2.641,1.448,9.525-7.6a8.846,8.846,0,0,0,.98-8.049c-1.272-3.339-7.333-6.914-12.542-8.952s-7.077.759-8.922,3.575c-1.937,2.957-6.289,4.874-6.289,4.874,4.171,3.476,10.479.806,12.308,1.782s1.941,4.169,1.9,5.178.033,1.867,2.641,1.449.456,3.671-.091,4.428C1647.356,803.288,1646.61,805.437,1647.844,806.6Z" transform="translate(-1592.288 -781.303)"/><path class="x" d="M1765.363,1579.942h7.577c1.588,0,3.353-1.59,3.795-4.5s3.707-4.5,4.413-6.885-2.913-5.739-2.913-5.739l-.606-.778-.629-.81-6,1.411s-.148,1.429-.241,3.25a41.638,41.638,0,0,0-.024,4.166c.177,3.179-.89,6.6-3.713,7.219S1765.363,1579.942,1765.363,1579.942Z" transform="translate(-1691.817 -1358.318)"/><path class="x" d="M1563.314,1602.063H1583.4a1.807,1.807,0,0,0,.426-.124c1.341-.672.921-5.805.76-7.391-.031-.294-.053-.466-.053-.466s-7.062-5.648-8.034-1.323c-.031.135-.066.267-.1.4v0c-1.226,4.046-6.706,5.885-9.872,6.4C1564.1,1599.949,1563.475,1601.359,1563.314,1602.063Z" transform="translate(-1542.511 -1380.439)"/><path class="y" d="M1578.873,1182.737s1.072,13.381,2.333,29.466c1.714,21.85,3.774,48.689,3.977,53.773.352,8.829,1.767,22.951,1.767,22.951s3.352,3.355,10.063,1.941a231.034,231.034,0,0,0,7.688-41.491c.026-.349.053-.7.08-1.054,1.589-21.715,4.06-67.44,4.06-67.44Z" transform="translate(-1554.022 -1076.926)"/><path class="z" d="M1594.094,1181.846s-.694,8.349,3.167,24.014c2.833,11.494,18.664,43.517,18.664,43.517.026-.349.053-.7.08-1.054,1.589-21.715,4.06-67.44,4.06-67.44Z" transform="translate(-1565.247 -1076.926)"/><path class="y" d="M1594.232,1166.785s20.233,50.941,32.944,73.715,16.683,29.13,16.683,29.13,7.283-2.913,7.945-4.9c0,0-4.861-43.966-13.373-54.684-4.81-6.056-10.46-24.231-10.725-30.586s-1.721-18.934-1.721-18.934Z" transform="translate(-1565.385 -1061.865)"/><path class="i" d="M1590.294,981.382c2.831.171,32.7-.958,32.709-2.627.027-5.8,1.24-15.194,2.754-26.6q.416-3.189.657-6.32a96.083,96.083,0,0,0,.032-15.382c-.752-8.775-4.479-15.851-8.28-19.15-.5-.417-2.341.98-5.43,2.233-2.853,1.155-5.111.327-7.676-.39l-3.279,2.885a30.946,30.946,0,0,0-7.073,9.91S1590.041,981.364,1590.294,981.382Z" transform="translate(-1562.464 -877.424)"/><path class="y" d="M1586.267,967.775l8.159,1.9,11.228,30.408a11.118,11.118,0,0,0,10.429,7.267h0l-.984,15.011-36.226,2.715Z" transform="translate(-1554.022 -919.261)"/><path class="i" d="M1483.52,1010.461c-.582-2.318.563-2.926.563-2.926s23.086-8.584,25-9.584,16.035-22.138,16.035-22.138,5.309-8.684,11.047-8c4.987.594,7.494,3.953,8.752,7.356a10.518,10.518,0,0,1-2.91,11.486c-7.25,6.448-21.793,19.2-25.431,21.009-8.1,4.031-31.464,5.826-31.464,5.826A7.522,7.522,0,0,1,1483.52,1010.461Z" transform="translate(-1483.355 -919.261)"/><path class="z" d="M1637.971,919.228c1.9-1.765,7.99-6.613,7.99-6.613s-.478-.516-.653-.686c-.111-.108-.494-.427-.494-.427-.813-.172-7.108,4.564-9.2,6.43-2.524,2.248-9.307,9.356-9.307,9.356l3.213.747S1635.734,921.306,1637.971,919.228Z" transform="translate(-1589.113 -877.625)"/></g></g><g transform="translate(421.432 544.097)"><path class="ab" d="M1243.671,1265.27v2.4c0,.842-.272,1.529-.6,1.529h-87.727c-.332,0-.6-.687-.6-1.529v-2.4c0-.84.272-1.529.6-1.529h87.727C1243.4,1263.741,1243.671,1264.43,1243.671,1265.27Z" transform="translate(-1154.734 -1263.741)"/><path class="ac" d="M1295.371,1265.27v2.4c0,.842-.25,1.529-.555,1.529H1225.17c-.305,0-.555-.687-.555-1.529v-2.4c0-.84.25-1.529.555-1.529h69.645C1295.121,1263.741,1295.371,1264.43,1295.371,1265.27Z" transform="translate(-1206.434 -1263.741)"/><rect class="ad" width="62.281" height="90.777" transform="translate(4.453 5.463)"/><rect class="c" width="62.28" height="90.777" transform="translate(21.906 5.463)"/><g transform="translate(25.253 8.027)"><path class="d" d="M1307.387,1377.795H1251.8v-83.2h55.587Zm-54.987-.6h54.387v-82H1252.4Z" transform="translate(-1251.8 -1294.594)"/><g transform="translate(0.3 27.523)"><rect class="d" width="54.987" height="0.6"/></g><g transform="translate(0.3 55.583)"><rect class="d" width="54.987" height="0.6"/></g><path class="d" d="M1348.711,1310.1h-10.2a.9.9,0,0,1-.9-.9h0a.9.9,0,0,1,.9-.9h10.2a.9.9,0,0,1,.9.9h0A.9.9,0,0,1,1348.711,1310.1Z" transform="translate(-1315.283 -1304.732)"/><path class="d" d="M1348.711,1415.566h-10.2a.9.9,0,0,1-.9-.9h0a.9.9,0,0,1,.9-.9h10.2a.9.9,0,0,1,.9.9h0A.9.9,0,0,1,1348.711,1415.566Z" transform="translate(-1315.283 -1382.761)"/><path class="d" d="M1348.711,1525.51h-10.2a.9.9,0,0,1-.9-.9h0a.9.9,0,0,1,.9-.9h10.2a.9.9,0,0,1,.9.9h0A.9.9,0,0,1,1348.711,1525.51Z" transform="translate(-1315.283 -1464.101)"/></g></g><g transform="translate(613.783 575.604)"><rect class="j" width="78.502" height="64.73" transform="translate(78.502 64.73) rotate(180)"/><rect class="k" width="78.502" height="64.73" transform="translate(117.753 64.73) rotate(180)"/><path class="i" d="M1894.251,1553.481h12.439l-1.1-3.5,1.1-2.5h-12.439Z" transform="translate(-1894.205 -1505.167)"/><path class="ae" d="M2044.942,1444.773h12.439l-1.1-3.5,1.1-2.5h-12.439Z" transform="translate(-2005.692 -1424.741)"/><path class="i" d="M2009.569,1438.771H1997.13l1.1,3.5-1.1,2.5h12.439Z" transform="translate(-1970.318 -1424.741)"/><path class="ae" d="M2311.312,1573.218h-12.439l1.1,3.5-1.1,2.5h12.439Z" transform="translate(-2193.558 -1524.209)"/><rect class="n" width="22.59" height="8.789" transform="translate(90.023 4.389)"/></g><g transform="translate(633.658 538.062)"><rect class="z" width="45.487" height="37.507" transform="translate(22.745)"/><rect class="y" width="45.487" height="37.507" transform="translate(0.001)"/><path class="af" d="M2212.129,1338.258h-7.208l.635-2.028-.635-1.449h7.208Z" transform="translate(-2143.923 -1310.263)"/><path class="v" d="M2124.812,1275.268H2117.6l.635-2.028-.635-1.449h7.208Z" transform="translate(-2079.323 -1263.661)"/><path class="af" d="M2145.309,1271.791h7.208l-.635,2.028.635,1.449h-7.208Z" transform="translate(-2099.82 -1263.661)"/><path class="v" d="M1970.466,1349.694h7.208l-.635,2.028.635,1.449h-7.208Z" transform="translate(-1970.466 -1321.297)"/></g><g transform="translate(669.69 595.636)"><rect class="z" width="54.208" height="44.698" transform="translate(27.105 0)"/><rect class="y" width="54.208" height="44.698" transform="translate(0.001 0)"/><path class="af" d="M2396.956,1578.289h-8.59l.757-2.417-.757-1.727h8.59Z" transform="translate(-2315.675 -1544.927)"/><path class="v" d="M2292.9,1503.223h-8.59l.757-2.417-.757-1.727h8.59Z" transform="translate(-2238.689 -1489.391)"/><path class="af" d="M2317.325,1499.079h8.59l-.757,2.417.757,1.727h-8.59Z" transform="translate(-2263.116 -1489.391)"/><path class="v" d="M2108.963,1591.918h8.59l-.757,2.417.757,1.727h-8.59Z" transform="translate(-2108.963 -1558.076)"/></g><g transform="translate(779.487 422.371)"><g transform="translate(48.788 42.957)"><rect class="ag" width="45.32" height="37.37" transform="translate(45.32 37.37) rotate(180)"/><rect class="y" width="45.32" height="37.37" transform="translate(67.98 37.37) rotate(180)"/><path class="ah" d="M2718.613,1058.336h7.182l-.633-2.021.633-1.444h-7.182Z" transform="translate(-2718.587 -1030.443)"/><path class="v" d="M2805.61,995.577h7.181l-.633-2.021.633-1.444h-7.181Z" transform="translate(-2782.95 -984.012)"/><path class="ah" d="M2785.188,992.112h-7.182l.633,2.021-.633,1.444h7.182Z" transform="translate(-2762.528 -984.012)"/><path class="v" d="M2959.389,1069.73h-7.181l.633,2.021-.633,1.444h7.181Z" transform="translate(-2891.408 -1041.437)"/><rect class="n" width="13.042" height="5.074" transform="translate(51.971 2.534)"/></g><path class="v" d="M2889.566,1092.911c1.1-.715,3.593-2.284,3.7-1.909a1.633,1.633,0,0,1-.376,1.178c1.49-.492,3-.794,6.5.02a2.644,2.644,0,0,1,1.691,1.209,1.167,1.167,0,0,1-.476,1.8c-1.843,1.05-1.3.4-3.86,1.932s-5.643,1.831-7.429.616l-2.44-.5-.148-4.051S2888.135,1093.093,2889.566,1092.911Z" transform="translate(-2794.177 -1014.175)"/><path class="v" d="M2653.457,900.065s6.961,5.688,13.683,1.5a22.352,22.352,0,0,0,.353-6.851c-.062-.343-.119-.675-.173-.992-.548-3.139-.772-4.916-.772-4.916h-.008c-.356-.076-11.939-2.475-11.861-2.11C2656.451,895.135,2653.457,900.065,2653.457,900.065Z" transform="translate(-2621.594 -863.039)"/><path class="w" d="M2663.723,893.3a17.116,17.116,0,0,0,11.182,5.209c-.548-3.139-.772-4.916-.772-4.916h-.008C2673.813,893.57,2663.308,892.793,2663.723,893.3Z" transform="translate(-2629.181 -867.825)"/><path class="v" d="M2660.234,837.774s-11.562,5.112-14.635-2.138-6.634-11.472.618-15.042,9.868-1.416,11.482.755S2663.162,836.257,2660.234,837.774Z" transform="translate(-2613.09 -812.752)"/><path class="i" d="M2628.088,820.732c-.145.137-2.6,1.424-9.368-7.47a8.7,8.7,0,0,1-.964-7.916c1.251-3.284,7.212-6.8,12.336-8.8a10.349,10.349,0,0,1,6.451-.3,4.014,4.014,0,0,1,2.818,4.977c-.969,3.393-3.373,5.476-6.415,5.384-2.038-.061-1.909,4.1-1.872,5.093s-.032,1.837-2.6,1.425c-2.2-.353-.958,2.55-.22,3.857a3.855,3.855,0,0,1,.524,2.114A2.378,2.378,0,0,1,2628.088,820.732Z" transform="translate(-2594.779 -795.866)"/><path class="x" d="M2546.6,1581.3h-7.452c-1.562,0-3.3-1.564-3.732-4.427s-3.646-4.428-4.341-6.772,2.865-5.644,2.865-5.644l.6-.765.619-.8,5.9,1.388s.146,1.406.236,3.2a40.854,40.854,0,0,1,.024,4.1c-.174,3.126.875,6.491,3.652,7.1S2546.6,1581.3,2546.6,1581.3Z" transform="translate(-2530.988 -1363.342)"/><path class="x" d="M2730.375,1603.063h-19.752a1.778,1.778,0,0,1-.419-.122c-1.319-.66-.906-5.709-.748-7.269.03-.289.052-.458.052-.458s6.946-5.555,7.9-1.3c.03.132.065.263.1.391v0c1.206,3.98,6.6,5.787,9.709,6.292C2729.6,1600.983,2730.217,1602.369,2730.375,1603.063Z" transform="translate(-2662.886 -1385.101)"/><path class="y" d="M2691.283,1190.642s-1.055,13.161-2.295,28.981c-1.685,21.49-3.711,47.886-3.912,52.887-.347,8.683-1.737,22.573-1.737,22.573s-3.3,3.3-9.9,1.909a227.22,227.22,0,0,1-7.561-40.807c-.026-.344-.052-.69-.078-1.036-1.563-21.357-3.993-66.33-3.993-66.33Z" transform="translate(-2627.774 -1086.586)"/><path class="z" d="M2687.353,1189.766s.683,8.211-3.115,23.618c-2.787,11.3-18.357,42.8-18.357,42.8-.026-.344-.052-.69-.078-1.036-1.563-21.357-3.993-66.33-3.993-66.33Z" transform="translate(-2627.774 -1086.586)"/><path class="y" d="M2598.968,1174.954s-19.9,50.1-32.4,72.5-16.408,28.65-16.408,28.65-7.163-2.865-7.814-4.819c0,0,4.781-43.242,13.153-53.783,4.731-5.957,10.288-23.832,10.549-30.082s1.693-18.622,1.693-18.622Z" transform="translate(-2539.389 -1071.773)"/><path class="i" d="M2661.9,992.6c-2.784.169-32.164-.943-32.171-2.583-.027-5.707-1.22-14.945-2.709-26.163q-.409-3.136-.646-6.216a94.557,94.557,0,0,1-.031-15.128c.74-8.631,4.4-15.59,8.144-18.835.491-.41,2.3.964,5.34,2.2,2.806,1.136,5.027.322,7.549-.383l3.224,2.837a30.443,30.443,0,0,1,6.957,9.746S2662.15,992.586,2661.9,992.6Z" transform="translate(-2601.323 -890.37)"/><path class="y" d="M2663.752,979.221l-8.024,1.866-11.043,29.907a10.935,10.935,0,0,1-10.258,7.147h0l.968,14.764,35.629,2.67Z" transform="translate(-2607.516 -931.518)"/><path class="i" d="M2710.707,1008.822c.253-2.337-.945-2.774-.945-2.774s-23.652-5.238-25.652-5.953-18.617-19.4-18.617-19.4-6.347-7.741-11.845-6.3c-4.778,1.254-6.766,4.865-7.53,8.35a10.344,10.344,0,0,0,4.389,10.8c7.935,5.3,23.828,15.753,27.617,17.025,8.433,2.83,31.44,1.417,31.44,1.417A7.4,7.4,0,0,0,2710.707,1008.822Z" transform="translate(-2615.99 -927.819)"/><path class="z" d="M2661.99,931.474c-1.868-1.736-7.858-6.5-7.858-6.5l1.128-1.1c.8-.169,6.991,4.489,9.053,6.325,2.483,2.211,9.374,9.151,9.374,9.151l-3.38.786S2664.19,933.517,2661.99,931.474Z" transform="translate(-2622.094 -890.567)"/></g><g transform="translate(343.723 291.057)"><path class="ai" d="M955.114,291.135V322.5c0,.179,0,.358,0,.537-.032,3.293-.338,5.893-.713,5.893h-.106c-.346,0-.637-2.228-.7-5.174q0-.37-.009-.757v-.056c0-.147,0-.3,0-.443V291.164C954.09,291.15,954.6,291.141,955.114,291.135Z" transform="translate(-928.203 -291.135)"/><g transform="translate(0 27.258)"><path class="aj" d="M882.19,395.906c-14.438,0-26.142,12.376-26.142,27.643h52.285C908.333,408.282,896.629,395.906,882.19,395.906Z" transform="translate(-856.048 -395.906)"/><path class="ak" d="M909.572,396.49a10.746,10.746,0,0,0-2.3-.25c-9.407,0-17.033,12.337-17.033,27.556h4.592C894.835,409.837,901.251,398.3,909.572,396.49Z" transform="translate(-881.347 -396.153)"/></g></g><path class="i" d="M848.715,1197.557l2.69,13.747-5.8.487-6.545-13.381Z" transform="translate(-499.756 -670.679)"/><rect class="al" width="753.055" height="1.844" rx="0.922" transform="translate(165.068 640.333)"/></g></svg>