<svg xmlns="http://www.w3.org/2000/svg" width="40.839" height="40.839" viewBox="0 0 40.839 40.839"><defs><style>.a{fill:none;}</style></defs><path class="a" d="M0,0H40.839V40.839H0Z"/><path d="M30.6,23.855l-4.322-.493a3.387,3.387,0,0,0-2.791.97l-3.131,3.131A25.6,25.6,0,0,1,9.141,16.249L12.289,13.1a3.387,3.387,0,0,0,.97-2.791l-.493-4.288A3.406,3.406,0,0,0,9.38,3.01H6.436a3.377,3.377,0,0,0-3.4,3.522A28.914,28.914,0,0,0,30.072,33.571a3.377,3.377,0,0,0,3.522-3.4V27.224A3.373,3.373,0,0,0,30.6,23.855Z" transform="translate(2.123 2.112)"/></svg>