<svg xmlns="http://www.w3.org/2000/svg" width="45.844" height="35.247" viewBox="0 0 45.844 35.247"><path d="M47.844,8.072a20.366,20.366,0,0,1-5.41,1.386,9.053,9.053,0,0,0,4.149-4.914A19.5,19.5,0,0,1,40.6,6.709,9.8,9.8,0,0,0,29.263,4.9a8.708,8.708,0,0,0-4.708,9.908A27.236,27.236,0,0,1,5.186,5.518,8.623,8.623,0,0,0,3.925,10,8.733,8.733,0,0,0,8.1,17.382a9.7,9.7,0,0,1-4.263-1.1v.108a9.024,9.024,0,0,0,7.564,8.66,9.5,9.5,0,0,1-2.521.368,11.874,11.874,0,0,1-1.765-.152,9.374,9.374,0,0,0,8.779,6.148,19.555,19.555,0,0,1-11.6,3.81A19.233,19.233,0,0,1,2,35.091,27.665,27.665,0,0,0,16.418,39.1a27.4,27.4,0,0,0,19.037-7.325,24.4,24.4,0,0,0,7.8-17.961V12.662a18.732,18.732,0,0,0,4.584-4.59Z" transform="translate(-2 -3.85)"/></svg>