<svg xmlns="http://www.w3.org/2000/svg" width="35.036" height="35.248" viewBox="0 0 35.036 35.248"><path d="M34.505,2H4.651A2.555,2.555,0,0,0,2.06,4.52V34.728a2.555,2.555,0,0,0,2.591,2.52H34.505a2.555,2.555,0,0,0,2.591-2.52V4.52A2.555,2.555,0,0,0,34.505,2ZM12.687,31.5H7.4V15.641h5.287ZM10.044,13.42h0a2.749,2.749,0,1,1,0-5.5,2.767,2.767,0,1,1,0,5.5ZM31.756,31.5H26.469V22.99c0-2.132-.758-3.525-2.679-3.525a2.908,2.908,0,0,0-2.714,1.921,3.525,3.525,0,0,0-.176,1.287v8.812H15.613V15.623H20.9v2.238a5.287,5.287,0,0,1,4.776-2.644c3.525,0,6.08,2.273,6.08,7.155Z" transform="translate(-2.06 -2)"/></svg>