<svg xmlns="http://www.w3.org/2000/svg" width="35.248" height="35.248" viewBox="0 0 35.248 35.248"><path d="M29.035,8.1h0a2.115,2.115,0,1,0,2.115,2.115A2.115,2.115,0,0,0,29.035,8.1Zm8.107,4.265a13.376,13.376,0,0,0-.811-4.283,8.706,8.706,0,0,0-2.044-3.119,8.283,8.283,0,0,0-3.119-2.027,12.865,12.865,0,0,0-4.283-.828C25.017,2,24.418,2,19.624,2s-5.393,0-7.261.106a12.865,12.865,0,0,0-4.283.828A8.424,8.424,0,0,0,4.961,4.961,8.283,8.283,0,0,0,2.934,8.08a12.865,12.865,0,0,0-.828,4.283C2,14.231,2,14.83,2,19.624s0,5.393.106,7.261a12.865,12.865,0,0,0,.828,4.283,8.283,8.283,0,0,0,2.027,3.119A8.424,8.424,0,0,0,8.08,36.314a12.865,12.865,0,0,0,4.283.828c1.868.106,2.467.106,7.261.106s5.393,0,7.261-.106a12.865,12.865,0,0,0,4.283-.828,8.283,8.283,0,0,0,3.119-2.027,8.548,8.548,0,0,0,2.044-3.119,13.376,13.376,0,0,0,.811-4.283c0-1.868.106-2.467.106-7.261S37.248,14.231,37.142,12.363ZM33.97,26.673a9.887,9.887,0,0,1-.6,3.278,5.393,5.393,0,0,1-1.322,2.027A5.622,5.622,0,0,1,30.022,33.3a9.887,9.887,0,0,1-3.278.6c-1.762.088-2.414.106-7.05.106s-5.287,0-7.05-.106a10.1,10.1,0,0,1-3.419-.529,5.763,5.763,0,0,1-1.939-1.322,5.287,5.287,0,0,1-1.3-2.027,9.764,9.764,0,0,1-.7-3.349c0-1.762-.106-2.414-.106-7.05s0-5.287.106-7.05a9.764,9.764,0,0,1,.617-3.349A5.287,5.287,0,0,1,7.287,7.287a5.534,5.534,0,0,1,1.939-1.41,10.1,10.1,0,0,1,3.349-.6c1.762,0,2.414-.106,7.05-.106s5.287,0,7.05.106a9.887,9.887,0,0,1,3.278.6,5.393,5.393,0,0,1,2.1,1.41A5.393,5.393,0,0,1,33.37,9.226a9.887,9.887,0,0,1,.6,3.349c.088,1.762.106,2.414.106,7.05S34.058,24.911,33.97,26.673ZM19.624,10.583a9.023,9.023,0,1,0,6.41,2.637A9.041,9.041,0,0,0,19.624,10.583Zm0,14.91a5.869,5.869,0,1,1,5.869-5.869,5.869,5.869,0,0,1-5.869,5.869Z" transform="translate(-2 -2)"/></svg>