<svg xmlns="http://www.w3.org/2000/svg" width="107.99" height="145.472" viewBox="0 0 107.99 145.472"><defs><style>.a{fill:#313233;}.b{fill:#fff;stroke:#000;stroke-miterlimit:10;stroke-width:4px;}.c{fill:#ff0c00;}</style></defs><g transform="translate(2.046 2.047)"><g transform="translate(0)"><g transform="translate(7.582 60.791)"><path class="a" d="M-350.564,374.239l-15.975-7.013-7.58,15.714-27.308-73.933,23.556-8.7Z" transform="translate(439.297 -300.306)"/><path class="a" d="M-504.25,374.239l15.975-7.013,7.58,15.714,27.308-73.933-23.556-8.7Z" transform="translate(504.25 -300.306)"/></g><path class="b" d="M-467.133,137.335h0a8.984,8.984,0,0,1,14.189,3.8h0a8.985,8.985,0,0,0,9.969,5.755h0a8.985,8.985,0,0,1,10.387,10.387h0a8.984,8.984,0,0,0,5.756,9.969h0a8.985,8.985,0,0,1,3.8,14.19h0a8.984,8.984,0,0,0,0,11.511h0a8.984,8.984,0,0,1-3.8,14.189h0a8.984,8.984,0,0,0-5.756,9.969h0A8.984,8.984,0,0,1-442.974,227.5h0a8.985,8.985,0,0,0-9.969,5.756h0a8.984,8.984,0,0,1-14.189,3.8h0a8.985,8.985,0,0,0-11.511,0h0a8.984,8.984,0,0,1-14.189-3.8h0A8.985,8.985,0,0,0-502.8,227.5h0a8.984,8.984,0,0,1-10.387-10.387h0a8.984,8.984,0,0,0-5.756-9.969h0a8.984,8.984,0,0,1-3.8-14.189h0a8.985,8.985,0,0,0,0-11.511h0a8.985,8.985,0,0,1,3.8-14.19h0a8.984,8.984,0,0,0,5.756-9.969h0A8.985,8.985,0,0,1-502.8,146.892h0a8.985,8.985,0,0,0,9.969-5.755h0a8.984,8.984,0,0,1,14.189-3.8h0A8.984,8.984,0,0,0-467.133,137.335Z" transform="translate(524.837 -135.245)"/></g><path class="c" d="M-400.116,235.446a11.8,11.8,0,0,0-12.2-11.1c-.2,0-.4,0-.605.013-5.973.244-9.952,5.963-9.952,5.963s-3.894-5.777-9.865-6.108q-.413-.023-.816-.023a11.79,11.79,0,0,0-12.143,10.918c-.4,5.942,3.744,11.335,7.1,15A76.792,76.792,0,0,0-423.1,262.573a76.852,76.852,0,0,0,15.673-12.227C-404.025,246.726-399.8,241.394-400.116,235.446Z" transform="translate(474.859 -191.436)"/></g></svg>