<svg xmlns="http://www.w3.org/2000/svg" width="172.685" height="144.284" viewBox="0 0 172.685 144.284"><defs><style>.a{fill:#1f2021;}.b{fill:#090a0a;}.c{fill:#313233;}.d{fill:#363636;}.e,.f{fill:red;font-family:Montserrat-SemiBold, Montserrat;font-weight:600;}.e{font-size:21px;}.f{font-size:43px;}</style></defs><g transform="translate(-1450.265 -1250.04)"><g transform="translate(1450.265 1250.04)"><g transform="translate(0 82.065)"><g transform="translate(0 14.766)"><path class="a" d="M168.018,711.053l-28.725,8.622,2.715-15.621-10.868-11.544,28.726-8.622Z" transform="translate(-131.139 -683.887)"/><path class="b" d="M201.062,737.818l-7.2.2a4.812,4.812,0,0,1-4.743-3.427l-.286-.954,10.069-3.022Z" transform="translate(-164.183 -710.652)"/></g><g transform="translate(136.055 14.478)"><path class="a" d="M449.585,710.485l28.837,8.24L475.5,703.142l10.714-11.688-28.837-8.24Z" transform="translate(-449.585 -683.214)"/><path class="b" d="M449.585,737.355l7.2.107a4.812,4.812,0,0,0,4.7-3.489l.274-.958-10.108-2.888Z" transform="translate(-449.585 -710.083)"/></g><path class="c" d="M300.551,687.461a199.632,199.632,0,0,0-123.379,0q-4.382-13.487-8.765-26.975a227.992,227.992,0,0,1,140.909,0Z" transform="translate(-152.484 -649.327)"/></g><g transform="translate(26.367)"><path class="d" d="M307.467,489.47c-7.714-1.376-20.2-.5-35.515-11.9-11.06-8.228-21.569-20.322-21.569-20.322s-10.63,12.237-21.569,20.322c-15.013,11.094-27.8,10.525-35.514,11.9.052,8.628-6.773,67.973,31.075,95.116,10.32,7.4,25.933,16.973,26.008,16.945.074.028,15.688-9.544,26.008-16.945C314.24,557.443,307.415,498.1,307.467,489.47Zm-11.332,23.917a116.342,116.342,0,0,1-2.565,23.833,71.33,71.33,0,0,1-8.838,22.457c-4.823,7.7-11.354,13.2-18.823,18.221q-5.815,3.908-11.772,7.6c-1.224.763-2.9,2.423-4.375,1.922a17.53,17.53,0,0,1-3.134-1.922q-2.541-1.583-5.061-3.2c-4.318-2.77-8.669-5.55-12.774-8.631-13.387-10.046-20.1-26.016-22.681-42.141a126.567,126.567,0,0,1-1.491-20.439c.014-3.938.352-7.872.349-11.807a.816.816,0,0,1,.6-.782c3.562-.6,7.171-.824,10.712-1.574A42.732,42.732,0,0,0,231,490.765c7.035-4.642,13.285-10.892,18.813-17.234a.815.815,0,0,1,1.147,0c5.632,6.458,12.025,12.829,19.219,17.517a41.833,41.833,0,0,0,14.7,6.02c3.416.681,6.9.85,10.327,1.431a.648.648,0,0,1,.584.664.857.857,0,0,1,.012.118C295.791,503.984,296.19,508.678,296.135,513.388Z" transform="translate(-192.852 -457.248)"/></g></g><text class="e" transform="translate(1560 1354)"><tspan x="-46.935" y="0">Year</tspan></text><text class="f" transform="translate(1558 1330)"><tspan x="-45.322" y="0">10</tspan></text></g></svg>