<svg xmlns="http://www.w3.org/2000/svg" width="156.627" height="135.291" viewBox="0 0 156.627 135.291"><defs><style>.a{fill:#ff1d13;}</style></defs><path d="M-87.407,142.978-108.7,121.686q-.049-.051-.1-.1l-51.459-51.46a5.463,5.463,0,0,0-7.724,0l-51.508,51.508-.018.018-21.325,21.325a5.462,5.462,0,0,0,0,7.724,5.463,5.463,0,0,0,7.724,0l12.01-12.01v59.664a5.462,5.462,0,0,0,5.462,5.462h103.03a5.462,5.462,0,0,0,5.462-5.462v-59.67L-95.131,150.7a5.447,5.447,0,0,0,3.862,1.6,5.446,5.446,0,0,0,3.862-1.6A5.462,5.462,0,0,0-87.407,142.978Zm-30.663,49.916h-92.106V127.769l46.056-46.056,46.05,46.05Z" transform="translate(242.434 -68.527)"/><path class="a" d="M-118.392,168.151a13.152,13.152,0,0,0-13.588-12.362c-.222,0-.448.005-.674.014-6.655.272-11.088,6.644-11.088,6.644s-4.339-6.436-10.991-6.805q-.461-.025-.91-.025a13.136,13.136,0,0,0-13.529,12.165c-.449,6.62,4.171,12.63,7.907,16.718A85.548,85.548,0,0,0-144,198.374a85.63,85.63,0,0,0,17.462-13.622C-122.747,180.719-118.04,174.778-118.392,168.151Z" transform="translate(222.102 -92.707)"/></svg>