<svg xmlns="http://www.w3.org/2000/svg" width="135.535" height="135.527" viewBox="0 0 135.535 135.527"><defs><style>.a{fill-rule:evenodd;}.b{fill:red;font-size:40px;font-family:Montserrat-ExtraBold, Montserrat;font-weight:800;}.c{font-size:25px;}</style></defs><path class="a" d="M26.434,230.761h8.508a4.171,4.171,0,0,0,4.18-4.176V209.721a4.3,4.3,0,0,0-4.18-4.328H26.434a4.206,4.206,0,0,0-4.18,4.328v16.864a4.08,4.08,0,0,0,4.18,4.176Z" transform="translate(3.27 -205.393)"/><path class="a" d="M134.045,209.977h-4.328v4.176a8.472,8.472,0,0,1-8.36,8.508h-8.508a8.6,8.6,0,0,1-8.508-8.508v-4.176H61.949v4.176a8.469,8.469,0,0,1-8.36,8.508H45.082a8.6,8.6,0,0,1-8.508-8.508v-4.176h-4.18a16.879,16.879,0,0,0-17.016,16.868v84.627a17.007,17.007,0,0,0,17.016,17.016H134.045a16.976,16.976,0,0,0,16.868-17.016V226.845A16.846,16.846,0,0,0,134.045,209.977Zm8.36,101.495a8.383,8.383,0,0,1-8.36,8.512H32.394a8.505,8.505,0,0,1-8.508-8.512V243.857a8.5,8.5,0,0,1,8.508-8.5c14.781,0,110.01-7.766,110.01,8.5Z" transform="translate(-15.378 -192.961)"/><path class="a" d="M44.69,230.761H53.2a4.171,4.171,0,0,0,4.18-4.176V209.721a4.3,4.3,0,0,0-4.18-4.328H44.69a4.2,4.2,0,0,0-4.18,4.328v16.864a4.078,4.078,0,0,0,4.18,4.176Z" transform="translate(52.781 -205.393)"/><text class="b" transform="translate(67.173 83.077)"><tspan x="-26.12" y="0">45</tspan><tspan class="c"><tspan x="-32.525" y="25">Days</tspan></tspan></text></svg>